<?xml version="1.0" standalone="no"?>
<!DOCTYPE svg PUBLIC "-//W3C//DTD SVG 20010904//EN"
 "http://www.w3.org/TR/2001/REC-SVG-20010904/DTD/svg10.dtd">
<svg version="1.0" xmlns="http://www.w3.org/2000/svg"
 width="12500.000000pt" height="12500.000000pt" viewBox="0 0 12500.000000 12500.000000"
 preserveAspectRatio="xMidYMid meet">

<g transform="translate(0.000000,12500.000000) scale(0.100000,-0.100000)"
fill="#000000" stroke="none">
<path d="M42462 92540 l-203 -50 -122 -87 c-117 -83 -127 -94 -208 -206 l-84
-119 -51 -209 -51 -210 49 -207 c36 -151 59 -226 85 -277 61 -119 252 -456
583 -1030 411 -713 1193 -2073 2220 -3865 453 -789 1047 -1824 1320 -2300 676
-1177 1833 -3191 3120 -5435 590 -1028 1211 -2111 1380 -2405 169 -294 547
-953 840 -1465 293 -511 966 -1684 1495 -2605 2290 -3988 3494 -6094 4215
-7375 158 -280 328 -585 378 -676 l91 -166 50 -364 c28 -200 71 -519 96 -709
65 -492 538 -4009 646 -4800 49 -366 99 -732 110 -815 11 -82 89 -665 174
-1295 193 -1437 226 -1678 270 -2025 19 -154 49 -361 65 -460 16 -99 45 -306
65 -460 49 -382 163 -1237 360 -2695 91 -674 224 -1664 296 -2200 71 -536 159
-1186 194 -1445 36 -258 117 -857 180 -1330 64 -473 151 -1121 195 -1440 44
-319 116 -852 160 -1185 44 -333 141 -1053 215 -1600 136 -1007 520 -3856 730
-5415 164 -1218 196 -1497 214 -1855 9 -172 13 -200 62 -399 l52 -215 86 -120
c81 -113 94 -126 207 -207 l120 -86 203 -48 c111 -26 227 -47 256 -47 29 -1
145 21 256 47 l203 48 120 86 c113 81 126 94 207 207 l86 120 52 215 c49 199
53 227 62 399 18 358 50 637 214 1855 210 1559 594 4408 730 5415 74 547 171
1267 215 1600 44 333 116 866 160 1185 44 319 131 967 195 1440 63 473 144
1072 180 1330 35 259 123 909 194 1445 72 536 205 1526 296 2200 197 1458 311
2313 360 2695 20 154 49 361 65 460 16 99 46 306 65 460 44 347 77 588 270
2025 85 630 163 1213 174 1295 11 83 61 449 110 815 108 791 581 4308 646
4800 25 190 68 509 96 709 l50 364 91 166 c50 91 220 396 378 676 721 1281
1925 3387 4215 7375 529 921 1202 2094 1495 2605 293 512 671 1171 840 1465
169 294 790 1377 1380 2405 1287 2244 2444 4258 3120 5435 273 476 867 1511
1320 2300 1027 1792 1809 3152 2220 3865 331 574 522 911 583 1030 26 51 49
126 85 277 l49 207 -51 210 -51 209 -84 119 c-81 112 -91 123 -208 206 l-122
87 -208 50 -208 50 -207 -50 -207 -49 -118 -86 c-104 -75 -218 -186 -1002
-977 -487 -491 -1382 -1395 -1991 -2008 -608 -613 -1828 -1844 -2710 -2735
-6460 -6521 -9186 -9268 -12491 -12589 l-1124 -1129 -1810 1819 c-3309 3326
-5197 5228 -11805 11899 -882 891 -2102 2122 -2710 2735 -609 613 -1504 1517
-1991 2008 -784 791 -898 902 -1002 977 l-118 86 -207 49 c-114 28 -209 50
-212 49 -3 0 -96 -22 -208 -49z"/>
<path d="M49390 64841 c-191 -47 -215 -56 -1250 -473 -1681 -679 -5508 -2218
-10905 -4386 -1232 -495 -2487 -1000 -2790 -1122 -302 -122 -1223 -492 -2045
-822 -1782 -715 -3028 -1217 -3425 -1378 -498 -203 -529 -218 -671 -319 -124
-88 -133 -97 -216 -213 l-87 -121 -50 -206 -49 -206 50 -209 51 -210 86 -120
c81 -113 94 -126 207 -207 l120 -86 203 -48 c171 -40 213 -47 263 -41 98 10
1484 251 2248 391 223 41 549 99 725 130 544 95 1879 333 5400 960 1865 332
4200 748 5190 924 9044 1608 8806 1565 9077 1629 l205 49 125 89 c118 84 128
95 209 207 l84 119 50 206 51 207 -52 215 -53 215 -848 2185 -848 2185 -85
119 c-80 111 -93 124 -204 204 l-120 86 -195 47 c-108 27 -209 48 -226 48 -16
0 -118 -22 -225 -48z"/>
<path d="M75204 64841 l-190 -47 -120 -86 c-112 -80 -124 -93 -204 -204 l-85
-119 -848 -2185 -848 -2185 -53 -215 -52 -215 51 -207 50 -206 84 -119 c81
-112 91 -123 209 -207 l125 -89 205 -49 c271 -64 33 -21 9077 -1629 990 -176
3326 -592 5190 -924 3521 -627 4856 -865 5400 -960 176 -31 502 -89 725 -130
764 -140 2150 -381 2248 -391 50 -6 92 1 263 41 l203 48 120 86 c113 81 126
94 207 207 l86 120 51 210 50 209 -49 206 -50 205 -87 122 c-83 116 -92 125
-216 213 -142 101 -173 116 -671 319 -397 161 -1643 663 -3425 1378 -822 330
-1742 700 -2045 822 -302 122 -1558 627 -2790 1122 -5383 2163 -9217 3705
-10905 4386 -1050 423 -1056 425 -1255 474 -110 26 -213 47 -230 47 -16 -1
-116 -22 -221 -48z"/>
</g>
</svg>
