<?xml version="1.0" standalone="no"?>
<!DOCTYPE svg PUBLIC "-//W3C//DTD SVG 20010904//EN"
 "http://www.w3.org/TR/2001/REC-SVG-20010904/DTD/svg10.dtd">
<svg version="1.0" xmlns="http://www.w3.org/2000/svg"
 width="3000.000000pt" height="3000.000000pt" viewBox="0 0 3000.000000 3000.000000"
 preserveAspectRatio="xMidYMid meet">

<g transform="translate(0.000000,3000.000000) scale(0.100000,-0.100000)"
fill="#000000" stroke="none">
<path d="M10240 21997 c0 -3 40 -75 88 -159 49 -84 196 -340 327 -568 131
-228 376 -656 545 -950 457 -795 1021 -1779 1300 -2265 135 -236 354 -617 485
-845 672 -1170 1025 -1792 1030 -1812 3 -13 28 -192 55 -398 77 -573 137
-1019 175 -1300 74 -549 85 -629 100 -745 8 -66 17 -131 20 -145 3 -14 12 -79
20 -145 14 -109 35 -264 110 -820 14 -104 30 -221 35 -260 5 -38 25 -187 44
-330 20 -143 47 -345 61 -450 14 -104 37 -273 51 -375 14 -102 40 -300 59
-440 19 -140 46 -340 60 -445 75 -556 96 -710 110 -815 8 -63 29 -214 45 -335
17 -121 30 -251 31 -290 1 -48 3 -62 8 -45 l8 25 5 -25 c3 -14 6 7 7 45 0 39
14 169 31 290 16 121 37 272 45 335 14 105 35 259 110 815 14 105 41 305 60
445 19 140 50 372 69 515 20 143 47 344 61 447 14 104 37 272 51 375 14 104
29 220 34 258 5 39 25 187 44 330 69 507 86 631 101 750 8 66 17 131 20 145 3
14 12 79 20 145 9 66 31 235 50 375 87 642 129 954 225 1670 27 206 52 385 55
398 5 20 358 642 1030 1812 131 228 350 609 485 845 279 486 843 1470 1300
2265 169 294 414 722 545 950 131 228 278 484 327 569 49 84 87 154 86 155 -3
2 -597 -597 -2408 -2424 -618 -624 -1401 -1413 -1740 -1753 l-615 -617 -615
617 c-339 340 -1122 1129 -1740 1753 -619 624 -1412 1425 -1764 1780 -352 355
-642 647 -643 649 -2 2 -3 2 -3 -2z"/>
<path d="M11885 15344 c-280 -113 -807 -325 -1170 -471 -1435 -577 -1697 -682
-2135 -858 -250 -101 -720 -290 -1045 -420 -688 -277 -640 -257 -595 -251 40
6 407 70 520 91 41 8 165 30 275 49 193 34 1718 306 2055 366 91 16 597 106
1125 200 956 170 1183 210 1430 255 72 13 204 36 294 52 90 15 165 33 167 38
8 19 -383 1150 -397 1152 -8 1 -243 -90 -524 -203z"/>
<path d="M17585 15538 c-90 -253 -384 -1135 -381 -1143 2 -5 77 -23 167 -38
90 -16 223 -39 294 -52 247 -45 474 -85 1430 -255 528 -94 1034 -184 1125
-200 337 -60 1862 -332 2055 -366 110 -19 234 -41 275 -49 113 -21 480 -85
520 -91 45 -6 96 -27 -620 261 -338 136 -797 320 -1020 410 -223 90 -682 274
-1020 410 -338 136 -808 325 -1045 420 -1347 542 -1755 705 -1765 705 -6 0
-13 -6 -15 -12z"/>
</g>
</svg>
