<?xml version="1.0" standalone="no"?>
<!DOCTYPE svg PUBLIC "-//W3C//DTD SVG 20010904//EN"
 "http://www.w3.org/TR/2001/REC-SVG-20010904/DTD/svg10.dtd">
<svg version="1.0" xmlns="http://www.w3.org/2000/svg"
 width="512.000000pt" height="512.000000pt" viewBox="0 0 512.000000 512.000000"
 preserveAspectRatio="xMidYMid meet">

<g transform="translate(0.000000,512.000000) scale(0.100000,-0.100000)"
fill="#000000" stroke="none">
<path d="M2380 5114 c-19 -2 -78 -9 -130 -14 -330 -36 -695 -160 -990 -336
-375 -224 -680 -529 -904 -904 -175 -292 -291 -632 -338 -990 -16 -123 -16
-497 0 -620 82 -623 356 -1150 820 -1581 256 -239 575 -425 922 -539 274 -91
491 -124 800 -124 228 0 329 9 530 50 689 141 1304 583 1674 1204 175 292 291
632 338 990 16 123 16 497 0 620 -47 358 -163 698 -338 990 -224 375 -529 680
-904 904 -289 173 -634 291 -980 336 -88 12 -438 21 -500 14z m450 -329 c259
-31 482 -98 720 -216 237 -118 415 -246 594 -425 296 -296 510 -681 602 -1083
90 -394 68 -831 -62 -1222 -45 -135 -170 -390 -249 -509 -170 -253 -392 -475
-645 -645 -119 -79 -374 -204 -509 -249 -469 -156 -973 -156 -1442 0 -135 45
-390 170 -509 249 -253 170 -475 392 -645 645 -79 119 -204 374 -249 509 -156
469 -156 973 0 1442 45 135 170 390 249 509 170 253 392 475 645 645 199 133
505 262 745 315 226 49 520 63 755 35z"/>
<path d="M1627 3391 c-92 -37 -155 -97 -201 -191 -28 -58 -31 -75 -31 -155 0
-78 4 -98 28 -151 36 -77 104 -145 182 -181 52 -24 72 -28 155 -28 81 0 103 4
150 26 281 132 282 536 2 667 -77 36 -212 42 -285 13z"/>
<path d="M3229 3387 c-127 -53 -207 -152 -228 -283 -25 -160 62 -324 209 -393
47 -22 69 -26 150 -26 83 0 103 4 156 28 77 36 145 104 181 182 24 52 28 72
28 150 0 80 -3 97 -31 155 -37 78 -99 141 -174 178 -79 39 -210 43 -291 9z"/>
<path d="M1298 2097 c-75 -29 -140 -55 -143 -59 -4 -4 20 -62 53 -130 164
-337 442 -598 787 -739 191 -77 354 -109 565 -109 211 0 374 32 565 109 262
107 502 297 664 526 70 100 188 332 175 345 -5 4 -72 31 -149 59 -100 37 -141
48 -144 39 -2 -7 -26 -57 -53 -110 -163 -325 -464 -554 -833 -634 -109 -23
-341 -23 -450 0 -246 53 -436 156 -611 331 -110 110 -181 210 -240 340 -22 47
-41 85 -44 84 -3 0 -67 -24 -142 -52z"/>
</g>
</svg>
