<?xml version="1.0" standalone="no"?>
<!DOCTYPE svg PUBLIC "-//W3C//DTD SVG 20010904//EN"
 "http://www.w3.org/TR/2001/REC-SVG-20010904/DTD/svg10.dtd">
<svg version="1.0" xmlns="http://www.w3.org/2000/svg"
 width="2000.000000pt" height="2000.000000pt" viewBox="0 0 2000.000000 2000.000000"
 preserveAspectRatio="xMidYMid meet">

<g transform="translate(0.000000,2000.000000) scale(0.100000,-0.100000)"
fill="#000000" stroke="none">
<path d="M9150 19620 c-279 -7 -302 -9 -355 -42 -22 -13 -50 -18 -105 -18 -41
0 -100 -7 -130 -15 -30 -8 -75 -15 -100 -15 -25 0 -78 -9 -118 -20 -39 -11
-91 -20 -114 -20 -24 0 -68 -7 -98 -16 -30 -9 -82 -20 -115 -24 -98 -12 -736
-176 -820 -210 -11 -4 -47 -13 -80 -20 -33 -7 -69 -18 -80 -25 -11 -7 -35 -16
-53 -20 -18 -4 -45 -13 -60 -21 -15 -8 -34 -14 -42 -14 -8 0 -27 -6 -41 -14
-14 -7 -59 -23 -100 -35 -41 -12 -87 -28 -104 -36 -16 -7 -43 -17 -60 -21 -16
-4 -41 -14 -55 -23 -14 -9 -50 -25 -80 -34 -30 -10 -73 -27 -95 -37 -22 -10
-67 -29 -100 -41 -33 -12 -91 -37 -129 -55 -37 -19 -73 -34 -80 -34 -6 0 -22
-9 -36 -20 -14 -11 -31 -20 -39 -20 -8 0 -35 -10 -60 -21 -25 -12 -62 -29 -81
-37 -43 -19 -83 -38 -132 -64 -13 -7 -54 -28 -93 -49 -38 -20 -88 -47 -110
-59 -22 -13 -62 -35 -90 -50 -87 -47 -130 -72 -140 -81 -5 -5 -15 -9 -23 -9
-7 0 -34 -15 -60 -32 -26 -18 -56 -38 -67 -44 -11 -6 -37 -21 -57 -32 -21 -12
-55 -31 -75 -43 -21 -12 -52 -32 -70 -45 -17 -13 -35 -24 -39 -24 -3 0 -29
-16 -55 -35 -27 -19 -52 -35 -57 -35 -4 0 -31 -18 -60 -41 -30 -22 -91 -64
-136 -93 -46 -30 -125 -85 -177 -122 -52 -38 -107 -76 -123 -84 -16 -8 -48
-33 -71 -55 -22 -22 -64 -55 -92 -73 -29 -18 -53 -37 -55 -41 -2 -4 -40 -35
-84 -68 -45 -33 -95 -73 -110 -89 -16 -16 -49 -44 -74 -63 -25 -19 -49 -39
-55 -45 -5 -7 -23 -22 -40 -34 -40 -30 -133 -115 -254 -232 -54 -52 -129 -122
-166 -155 -37 -33 -79 -73 -94 -89 -14 -16 -46 -50 -71 -76 -25 -26 -57 -60
-71 -76 -14 -16 -38 -41 -55 -56 -16 -14 -56 -56 -89 -93 -33 -37 -80 -88
-105 -114 -25 -25 -57 -62 -70 -81 -14 -19 -38 -48 -55 -65 -17 -16 -42 -46
-55 -65 -14 -19 -38 -48 -55 -65 -17 -16 -51 -58 -75 -92 -23 -35 -46 -63 -50
-63 -4 0 -23 -24 -42 -52 -19 -29 -49 -69 -66 -88 -41 -46 -163 -211 -170
-230 -3 -8 -19 -33 -37 -55 -50 -64 -185 -262 -185 -273 0 -5 -23 -40 -51 -78
-28 -38 -57 -82 -64 -99 -7 -16 -34 -57 -59 -90 -25 -33 -46 -67 -46 -75 0 -8
-25 -52 -55 -97 -30 -46 -55 -88 -55 -95 0 -8 -11 -29 -24 -49 -35 -52 -65
-105 -105 -189 -25 -51 -50 -96 -74 -134 -9 -14 -17 -31 -17 -38 0 -17 -74
-160 -100 -193 -4 -5 -11 -25 -15 -44 -7 -34 -38 -96 -56 -116 -5 -5 -9 -15
-9 -23 0 -8 -8 -26 -19 -40 -10 -15 -22 -43 -26 -62 -7 -33 -11 -43 -37 -92
-6 -13 -14 -30 -18 -38 -4 -8 -16 -35 -28 -60 -11 -25 -28 -72 -38 -105 -9
-33 -25 -76 -34 -95 -9 -19 -26 -55 -38 -80 -11 -25 -32 -87 -46 -139 -14 -52
-30 -99 -36 -105 -5 -5 -10 -17 -10 -26 0 -9 -8 -32 -19 -53 -10 -20 -29 -78
-41 -129 -12 -51 -28 -102 -35 -113 -6 -11 -18 -45 -25 -75 -7 -30 -16 -59
-20 -65 -4 -5 -19 -64 -34 -130 -15 -66 -31 -127 -35 -135 -5 -9 -14 -43 -21
-75 -6 -33 -16 -67 -20 -76 -5 -9 -14 -45 -20 -80 -6 -35 -18 -95 -26 -134 -8
-38 -14 -81 -14 -95 0 -15 -4 -30 -9 -35 -13 -15 -31 -99 -31 -147 0 -24 -4
-48 -9 -53 -14 -16 -31 -101 -31 -157 0 -29 -7 -78 -15 -108 -8 -30 -15 -94
-15 -142 0 -48 -4 -89 -9 -92 -18 -11 -30 -129 -36 -331 -15 -614 -17 -1023
-6 -1480 11 -463 21 -607 42 -621 5 -3 9 -49 9 -102 0 -54 7 -122 15 -152 8
-30 15 -77 15 -103 0 -52 17 -136 31 -151 5 -6 9 -30 9 -54 0 -48 18 -132 31
-147 5 -5 9 -29 9 -52 0 -24 6 -72 14 -106 8 -34 20 -89 26 -122 7 -33 15 -64
19 -70 4 -5 13 -37 20 -70 7 -33 16 -64 20 -70 7 -9 18 -57 52 -230 6 -33 17
-69 24 -80 7 -11 16 -36 20 -55 4 -19 13 -44 20 -55 7 -11 23 -63 35 -115 13
-52 29 -104 36 -115 6 -11 15 -36 19 -55 4 -19 13 -44 21 -55 7 -11 22 -58 34
-105 11 -47 29 -101 40 -121 11 -20 20 -42 20 -49 0 -6 8 -24 18 -38 10 -15
26 -54 36 -87 10 -33 26 -76 37 -96 10 -20 19 -42 19 -49 0 -6 8 -24 18 -38
10 -15 26 -54 36 -87 9 -33 21 -67 25 -75 4 -8 13 -25 19 -37 7 -13 17 -33 24
-45 43 -82 58 -115 58 -128 0 -9 4 -20 9 -25 23 -25 101 -175 101 -195 0 -9 4
-20 9 -25 21 -23 101 -175 101 -193 0 -7 23 -46 50 -87 28 -41 54 -85 60 -97
5 -13 31 -57 59 -98 28 -41 51 -81 51 -88 0 -7 18 -40 41 -73 l40 -59 -20 -29
c-12 -16 -21 -35 -21 -41 0 -7 -9 -29 -19 -49 -11 -20 -27 -63 -37 -96 -9 -33
-25 -76 -34 -95 -45 -95 -60 -130 -76 -185 -9 -33 -26 -72 -36 -87 -10 -14
-18 -32 -18 -38 0 -7 -9 -29 -19 -49 -11 -20 -27 -63 -37 -96 -9 -33 -25 -76
-34 -95 -45 -95 -60 -130 -76 -185 -9 -33 -26 -72 -36 -87 -10 -14 -18 -32
-18 -38 0 -7 -9 -29 -19 -49 -11 -20 -27 -63 -37 -96 -9 -33 -25 -76 -34 -95
-45 -95 -60 -130 -76 -185 -9 -33 -26 -72 -36 -87 -10 -14 -18 -32 -18 -38 0
-7 -9 -29 -19 -49 -11 -20 -27 -63 -37 -96 -9 -33 -25 -76 -34 -95 -45 -95
-60 -130 -76 -185 -9 -33 -26 -72 -36 -87 -10 -14 -18 -32 -18 -38 0 -7 -9
-29 -19 -49 -11 -20 -27 -63 -37 -96 -16 -57 -40 -112 -83 -192 -6 -10 -18
-45 -27 -78 -9 -33 -25 -76 -34 -95 -46 -95 -60 -130 -76 -185 -9 -33 -26 -78
-37 -100 -11 -22 -23 -47 -27 -55 -4 -8 -12 -24 -18 -35 -6 -11 -20 -52 -32
-91 -11 -38 -26 -79 -34 -90 -7 -10 -16 -30 -20 -44 -11 -42 -35 -291 -36
-370 0 -74 23 -292 36 -340 10 -34 130 -206 171 -244 19 -17 51 -47 71 -66 20
-19 68 -58 106 -87 98 -72 133 -78 441 -77 276 0 332 8 402 55 23 16 46 29 51
29 6 0 23 6 39 14 46 24 96 44 128 52 17 4 42 15 57 25 14 11 33 19 41 19 9 0
18 4 22 9 3 5 20 12 38 16 17 4 50 15 72 25 70 32 109 48 135 55 24 6 68 25
120 50 14 7 41 16 60 20 19 4 47 16 62 26 14 11 33 19 41 19 9 0 18 4 22 9 3
5 20 12 38 16 17 4 50 15 72 25 70 32 109 48 135 55 24 6 68 25 120 50 14 7
41 16 60 20 19 4 47 16 62 26 14 11 33 19 41 19 9 0 18 4 22 9 3 5 20 12 38
16 17 4 50 15 72 25 70 32 109 48 135 55 24 6 68 25 120 50 14 7 41 16 60 20
19 4 47 16 62 26 14 11 33 19 41 19 9 0 18 4 22 9 3 5 20 12 38 16 17 4 50 15
72 25 70 32 109 48 135 55 24 6 68 25 120 50 14 7 41 16 60 20 19 4 47 16 62
26 14 11 33 19 41 19 9 0 18 4 22 9 3 5 20 12 38 16 17 4 50 15 72 25 70 32
109 48 135 55 24 6 68 25 120 50 14 7 41 16 60 20 19 4 47 16 62 26 14 11 33
19 41 19 9 0 18 4 22 9 3 5 20 12 38 16 17 4 52 16 77 27 134 61 137 61 173
34 28 -21 64 -43 132 -80 11 -6 41 -26 67 -44 26 -17 51 -32 57 -32 6 0 42
-21 82 -46 39 -25 180 -100 312 -166 133 -66 251 -124 262 -131 62 -34 132
-67 144 -67 7 0 30 -8 50 -18 63 -32 105 -50 146 -62 22 -7 44 -16 49 -21 6
-5 16 -9 24 -9 8 0 26 -8 40 -18 15 -10 58 -29 96 -41 39 -12 81 -28 95 -35
59 -29 101 -45 186 -71 50 -15 104 -33 122 -41 17 -8 36 -14 43 -14 7 0 26 -6
43 -14 18 -8 73 -26 122 -41 50 -14 99 -31 110 -36 29 -13 245 -73 340 -94 44
-9 89 -21 100 -26 11 -5 49 -16 85 -24 36 -8 119 -28 185 -44 66 -17 135 -30
153 -31 18 0 65 -9 104 -20 40 -11 90 -20 110 -20 21 0 71 -9 110 -20 40 -11
91 -20 113 -20 22 0 65 -7 95 -15 31 -8 99 -15 153 -15 80 0 104 -4 125 -19
65 -45 78 -45 1177 -45 1099 0 1112 0 1177 45 20 15 44 19 105 19 43 0 103 7
133 15 30 8 73 15 95 15 22 0 73 9 113 20 39 11 91 20 114 20 24 0 68 7 98 16
30 9 82 20 115 24 33 4 114 21 180 38 66 16 149 36 185 45 94 21 441 116 465
127 11 5 44 14 74 21 30 6 66 18 80 25 14 8 32 14 39 14 7 0 32 8 55 19 23 10
58 22 77 26 19 4 40 11 45 15 6 4 44 17 85 29 41 12 89 28 105 36 17 7 44 17
60 21 17 4 42 15 57 25 14 11 31 19 38 19 12 0 47 14 126 51 23 10 46 19 53
19 6 0 22 6 34 14 12 8 37 17 56 21 18 4 60 22 91 41 32 19 64 34 72 34 7 0
24 9 38 20 14 11 33 20 42 20 9 0 20 4 23 10 3 5 25 14 48 20 37 10 70 24 155
68 12 7 31 17 42 22 11 6 29 15 40 20 45 22 64 33 99 53 20 11 70 38 111 60
41 21 86 47 101 58 15 10 33 19 41 19 7 0 24 9 38 20 14 11 29 20 33 20 5 0
29 15 55 32 58 40 87 57 180 104 40 21 84 48 98 61 14 13 29 23 35 23 14 0 89
51 89 61 0 5 7 9 15 9 20 0 92 48 99 66 3 8 11 14 17 14 6 0 32 15 58 33 25
17 59 39 75 47 16 8 41 26 55 40 14 14 39 32 54 40 16 8 39 24 51 35 12 11 45
35 73 53 29 18 53 37 55 41 2 4 48 41 103 81 55 40 105 78 110 85 6 6 37 31
70 56 33 24 70 53 81 64 24 24 103 90 142 119 42 32 79 65 148 131 77 73 150
141 238 220 93 83 236 225 236 235 0 4 17 19 38 33 20 15 48 44 61 65 13 21
39 49 57 61 19 13 34 27 34 32 0 4 26 35 58 68 79 83 110 118 160 180 23 30
49 59 56 65 7 6 30 34 52 61 21 28 51 63 67 78 15 16 41 49 58 73 16 24 42 56
56 72 14 15 43 52 64 83 21 31 54 73 73 93 19 20 41 51 49 69 9 18 33 51 54
74 22 23 46 55 53 70 8 15 33 53 57 83 23 30 48 66 55 80 7 14 37 60 66 102
28 42 52 79 52 82 0 2 23 37 51 78 28 40 55 83 60 96 5 12 31 56 59 97 27 41
50 80 50 87 0 7 25 50 55 95 30 46 55 88 55 95 0 7 16 37 35 65 19 29 35 55
35 59 0 3 8 18 19 32 10 15 21 40 25 56 4 16 20 48 37 72 16 23 29 46 29 51 0
4 9 19 20 33 11 14 20 31 20 38 0 18 28 80 52 114 10 14 18 31 18 38 0 7 9 24
19 39 11 15 22 43 26 64 4 20 11 40 16 43 5 3 9 13 9 22 0 9 9 28 20 42 11 14
20 31 20 38 0 8 8 26 19 40 10 15 22 43 26 62 4 19 11 41 15 50 4 8 17 35 28
60 12 25 22 49 22 53 0 5 8 21 18 35 10 15 27 59 37 97 10 39 26 82 37 97 10
14 18 32 18 39 0 7 9 31 19 53 11 23 29 79 41 126 12 47 27 94 34 105 8 11 17
36 21 55 4 19 14 46 21 60 8 14 25 74 39 134 14 60 29 114 34 120 5 6 14 36
21 66 7 30 16 60 20 65 8 9 44 168 57 245 3 19 9 40 14 45 4 6 13 39 19 75 7
36 16 74 21 85 16 39 29 101 29 140 0 22 7 65 15 95 8 30 15 75 15 100 0 26 4
50 9 55 13 15 31 99 31 147 0 24 4 48 9 53 17 20 31 106 31 197 0 51 7 118 15
148 9 35 15 102 15 180 0 70 4 130 9 135 28 31 31 123 31 855 0 732 -3 824
-31 855 -5 5 -9 65 -9 135 0 78 -6 145 -15 180 -8 30 -15 97 -15 148 0 91 -14
177 -31 197 -5 5 -9 29 -9 53 0 48 -18 132 -31 147 -5 5 -9 29 -9 55 0 25 -7
70 -15 100 -8 30 -15 73 -15 95 0 39 -13 101 -29 140 -5 11 -14 49 -21 85 -6
36 -15 70 -19 75 -5 6 -11 26 -14 45 -13 77 -49 236 -57 245 -4 6 -13 35 -20
65 -7 30 -16 60 -21 66 -5 6 -20 60 -34 120 -14 60 -31 120 -39 134 -7 14 -17
41 -21 60 -4 19 -13 44 -21 55 -7 11 -22 58 -34 105 -12 47 -30 103 -41 126
-10 22 -19 46 -19 53 0 7 -8 25 -18 39 -11 15 -27 59 -37 97 -10 39 -27 82
-37 97 -10 14 -18 30 -18 35 0 4 -10 28 -22 53 -11 25 -24 52 -28 60 -4 9 -11
31 -15 50 -4 19 -16 47 -26 62 -11 14 -19 32 -19 40 0 7 -9 24 -20 38 -11 14
-20 33 -20 42 0 9 -4 19 -9 22 -5 3 -12 23 -16 43 -4 21 -15 49 -26 64 -10 15
-19 32 -19 39 0 7 -8 24 -18 38 -24 34 -52 96 -52 114 0 7 -9 24 -20 38 -11
14 -20 29 -20 33 0 5 -13 28 -29 51 -17 24 -33 56 -37 72 -4 16 -15 41 -25 56
-11 14 -19 29 -19 32 0 4 -16 30 -35 59 -19 28 -35 58 -35 65 0 7 -25 49 -55
95 -30 45 -55 88 -55 95 0 7 -23 46 -50 87 -28 41 -54 85 -59 97 -5 13 -32 56
-60 96 -28 41 -51 76 -51 78 0 3 -24 40 -52 82 -29 42 -59 88 -66 102 -7 14
-32 50 -55 80 -24 30 -49 68 -57 83 -7 15 -31 47 -53 70 -21 23 -45 56 -54 74
-8 18 -30 49 -49 69 -19 20 -52 62 -73 93 -21 31 -50 68 -64 83 -14 16 -40 48
-56 72 -17 24 -43 57 -58 73 -16 15 -46 51 -67 78 -22 28 -45 55 -52 61 -7 6
-33 35 -56 65 -50 62 -81 97 -160 180 -32 33 -58 64 -58 68 0 5 -15 19 -34 32
-18 12 -44 40 -57 61 -13 21 -41 50 -61 65 -21 14 -38 29 -38 33 0 10 -143
152 -236 235 -88 79 -161 147 -238 220 -69 66 -106 99 -148 131 -39 29 -118
95 -142 119 -11 11 -48 40 -81 64 -33 25 -64 50 -70 56 -5 7 -55 45 -110 85
-55 40 -101 77 -103 81 -2 4 -26 23 -55 41 -28 18 -61 42 -73 53 -12 11 -35
27 -51 35 -15 8 -40 26 -54 40 -14 14 -39 32 -55 40 -16 8 -49 29 -74 46 -25
17 -53 34 -62 37 -10 4 -18 10 -18 15 0 13 -76 62 -95 62 -8 0 -15 4 -15 9 0
10 -75 61 -89 61 -6 0 -21 10 -35 23 -14 13 -58 40 -98 61 -93 47 -122 64
-180 104 -26 17 -50 32 -55 32 -4 0 -19 9 -33 20 -14 11 -31 20 -38 20 -8 0
-26 9 -41 19 -15 11 -60 37 -101 58 -41 22 -91 49 -111 60 -35 20 -54 31 -99
53 -11 6 -29 15 -40 20 -11 6 -30 15 -42 22 -85 44 -118 58 -155 68 -23 6 -45
15 -48 20 -3 6 -14 10 -23 10 -9 0 -28 9 -42 20 -14 11 -31 20 -38 20 -8 0
-40 15 -72 34 -31 19 -73 37 -91 41 -19 4 -44 13 -56 21 -12 8 -28 14 -34 14
-7 0 -30 9 -53 19 -79 37 -114 51 -126 51 -7 0 -24 8 -38 19 -15 10 -40 21
-57 25 -16 4 -43 14 -60 21 -16 8 -64 24 -105 36 -41 12 -79 25 -85 29 -5 4
-26 11 -45 15 -19 4 -54 16 -77 26 -23 11 -48 19 -55 19 -7 0 -25 6 -39 14
-14 7 -50 19 -80 25 -30 7 -63 16 -74 21 -24 11 -371 106 -465 127 -36 9 -119
29 -185 45 -66 17 -147 34 -180 38 -33 4 -85 15 -115 24 -30 9 -74 16 -98 16
-23 0 -75 9 -114 20 -40 11 -91 20 -113 20 -22 0 -65 7 -95 15 -30 8 -90 15
-133 15 -60 0 -85 4 -105 18 -58 41 -94 42 -940 46 -449 2 -941 0 -1092 -4z"/>
</g>
</svg>
