<?xml version="1.0" standalone="no"?>
<!DOCTYPE svg PUBLIC "-//W3C//DTD SVG 20010904//EN"
 "http://www.w3.org/TR/2001/REC-SVG-20010904/DTD/svg10.dtd">
<svg version="1.0" xmlns="http://www.w3.org/2000/svg"
 width="2000.000000pt" height="1664.000000pt" viewBox="0 0 2000.000000 1664.000000"
 preserveAspectRatio="xMidYMid meet">

<g transform="translate(0.000000,1664.000000) scale(0.100000,-0.100000)"
fill="#000000" stroke="none">
<path d="M10960 15658 c-41 -10 -79 -24 -84 -29 -6 -5 -33 -9 -61 -9 -29 0
-157 -25 -286 -55 -217 -52 -265 -65 -422 -116 -31 -11 -63 -19 -70 -19 -6 0
-23 -6 -37 -13 -14 -8 -48 -19 -74 -26 -27 -7 -58 -19 -70 -27 -11 -7 -26 -14
-34 -14 -13 0 -103 -38 -154 -66 -14 -8 -31 -14 -38 -14 -28 0 -377 -174 -565
-283 -38 -22 -122 -75 -185 -116 -63 -42 -127 -82 -141 -90 -15 -7 -134 -99
-265 -203 -495 -395 -926 -882 -1268 -1433 -31 -50 -56 -94 -56 -99 0 -4 -11
-22 -24 -39 -14 -18 -58 -97 -99 -177 -40 -80 -90 -176 -110 -215 -21 -38 -37
-75 -37 -83 0 -8 -6 -26 -14 -40 -8 -15 -23 -47 -34 -72 -11 -25 -27 -61 -35
-80 -9 -19 -23 -52 -31 -72 -8 -21 -21 -38 -28 -38 -7 0 -71 13 -143 29 -282
65 -321 71 -411 71 -51 0 -129 8 -175 17 -113 22 -318 22 -428 0 -46 -9 -129
-17 -185 -17 -68 0 -126 -7 -176 -20 -41 -11 -88 -20 -105 -20 -49 0 -469
-115 -500 -136 -11 -8 -26 -14 -35 -14 -8 0 -32 -9 -53 -20 -20 -11 -43 -20
-50 -20 -7 0 -29 -9 -50 -20 -20 -11 -42 -20 -48 -20 -12 0 -193 -89 -261
-128 -50 -29 -100 -58 -143 -82 -334 -189 -858 -670 -1085 -995 -36 -52 -95
-136 -132 -189 -38 -52 -73 -107 -78 -122 -6 -14 -19 -38 -29 -53 -37 -52 -72
-118 -180 -343 -34 -70 -61 -133 -61 -140 0 -8 -4 -18 -9 -23 -9 -9 -69 -185
-124 -360 -23 -75 -66 -253 -103 -428 -9 -43 -20 -119 -24 -170 -5 -51 -14
-108 -19 -127 -6 -19 -11 -62 -11 -95 l0 -60 -50 -32 c-27 -18 -52 -33 -55
-33 -18 0 -220 -148 -410 -300 -188 -151 -247 -206 -405 -375 -201 -215 -239
-263 -455 -580 -23 -33 -55 -79 -72 -103 -18 -24 -41 -62 -51 -85 -11 -23 -32
-69 -47 -102 -15 -33 -43 -84 -61 -113 -19 -29 -34 -55 -34 -58 0 -3 -16 -32
-35 -65 -19 -33 -40 -81 -47 -107 -6 -25 -17 -58 -25 -72 -7 -14 -13 -32 -13
-40 0 -9 -5 -21 -11 -27 -5 -5 -23 -52 -39 -104 -17 -52 -45 -140 -64 -196
-19 -57 -42 -138 -51 -180 -19 -83 -54 -219 -88 -343 -20 -73 -21 -96 -21
-755 1 -674 1 -681 23 -765 13 -47 26 -89 31 -95 4 -5 17 -53 29 -105 30 -132
92 -353 102 -365 4 -6 20 -53 35 -105 15 -52 33 -104 40 -115 8 -11 14 -26 14
-34 0 -8 12 -39 26 -70 30 -64 54 -119 78 -176 32 -75 61 -130 90 -174 16 -25
43 -70 59 -100 16 -31 43 -75 58 -98 16 -23 33 -52 38 -65 5 -13 26 -46 47
-73 21 -28 58 -80 83 -116 125 -182 342 -431 517 -595 202 -189 502 -420 669
-514 43 -24 92 -53 143 -82 74 -43 330 -168 343 -168 8 -1 32 -9 54 -20 22
-11 46 -19 53 -20 6 0 29 -9 49 -20 21 -11 45 -20 53 -20 8 0 27 -6 42 -14 25
-13 162 -53 378 -111 52 -14 109 -25 126 -25 16 0 34 -4 40 -9 5 -5 46 -19 91
-30 l81 -21 6152 0 6152 0 81 21 c45 11 86 25 91 30 6 5 24 9 42 9 61 0 653
152 689 176 11 8 26 14 35 14 8 0 32 9 53 20 20 11 43 20 49 20 7 1 31 9 53
20 22 11 47 19 55 20 8 0 32 9 53 20 20 11 43 20 49 20 7 0 42 16 78 34 36 19
128 66 205 106 77 40 152 81 167 91 14 11 29 19 32 19 22 0 388 255 533 372
187 149 493 436 578 540 28 34 87 102 133 152 46 50 110 129 143 176 32 47 83
119 113 160 127 174 155 216 194 295 8 17 23 41 32 55 20 29 57 92 78 135 9
17 27 48 42 70 15 22 31 51 35 65 4 14 15 44 26 67 10 24 28 63 39 88 51 114
65 145 95 210 18 39 36 86 40 105 4 19 11 40 14 45 4 6 20 48 35 95 15 47 32
94 37 105 15 32 72 244 123 455 26 107 59 245 74 305 l27 110 -1 755 0 755
-43 159 c-23 87 -46 183 -51 214 -9 54 -82 323 -122 452 -54 172 -72 226 -80
237 -5 6 -22 50 -38 97 -16 46 -34 93 -39 103 -6 10 -31 63 -57 118 -89 191
-158 330 -185 370 -14 22 -42 69 -61 105 -51 94 -234 370 -319 480 -159 208
-475 555 -597 657 -31 27 -86 75 -122 109 -36 33 -81 71 -100 84 -19 13 -66
49 -105 80 -165 134 -433 305 -670 429 -38 21 -79 42 -90 48 -11 7 -41 21 -67
32 -74 32 -128 56 -190 85 -31 14 -61 26 -67 26 -6 0 -26 8 -45 18 -32 15 -37
24 -51 84 -8 37 -15 109 -15 160 0 51 -6 125 -14 163 -8 39 -24 115 -35 170
-12 55 -21 116 -21 135 0 19 -9 67 -19 105 -108 404 -159 578 -180 615 -5 9
-12 31 -16 50 -4 19 -20 62 -35 95 -15 33 -35 86 -44 117 -9 31 -21 60 -26 63
-6 3 -10 13 -10 21 0 9 -35 88 -79 177 -43 89 -89 185 -101 212 -34 79 -60
126 -96 178 -19 26 -34 50 -34 53 0 4 -25 45 -55 93 -30 48 -55 91 -55 95 0 8
-124 187 -223 322 -105 143 -118 160 -153 204 -20 25 -102 122 -184 216 -188
216 -558 564 -720 674 -19 13 -66 49 -105 80 -94 76 -290 204 -545 358 -58 34
-436 222 -449 222 -6 0 -28 9 -48 20 -21 11 -45 20 -53 20 -8 1 -33 9 -55 20
-22 11 -46 19 -53 20 -6 0 -29 9 -49 20 -21 11 -45 20 -53 20 -9 0 -25 6 -36
14 -22 16 -34 20 -369 111 -132 36 -251 65 -265 65 -14 0 -59 9 -100 20 -41
11 -93 20 -115 20 -23 0 -45 4 -50 9 -6 5 -47 19 -92 30 -78 20 -106 21 -650
20 -532 -1 -573 -2 -643 -21z m1020 -1521 c30 -9 78 -17 105 -17 28 0 84 -9
125 -20 41 -11 89 -20 106 -20 18 0 69 -11 115 -24 46 -13 129 -36 184 -51 55
-14 114 -33 132 -41 17 -7 36 -14 42 -14 6 0 28 -9 48 -20 21 -11 43 -20 50
-20 7 0 30 -9 50 -20 21 -11 43 -20 50 -20 29 0 432 -214 552 -293 73 -48 134
-87 137 -87 2 0 82 -62 177 -139 268 -215 569 -535 730 -776 26 -38 67 -97 92
-130 24 -33 65 -100 90 -148 25 -49 53 -101 63 -115 11 -15 26 -40 34 -57 8
-16 24 -47 36 -68 12 -21 22 -42 22 -48 0 -6 21 -54 46 -107 25 -53 59 -124
74 -157 16 -33 40 -96 54 -140 15 -44 30 -87 35 -95 5 -9 12 -31 16 -50 4 -19
13 -48 21 -65 27 -60 134 -515 134 -573 0 -31 9 -91 20 -132 15 -58 20 -108
20 -223 0 -81 6 -189 14 -240 8 -50 17 -148 21 -217 7 -131 34 -266 64 -309 9
-15 23 -39 31 -56 41 -82 262 -273 336 -291 16 -3 39 -12 50 -20 12 -7 45 -19
75 -28 147 -41 296 -87 325 -101 17 -8 37 -15 43 -15 6 0 28 -9 48 -20 21 -11
44 -20 51 -20 8 0 26 -6 40 -14 15 -8 85 -42 156 -77 72 -34 172 -89 224 -121
51 -32 95 -58 97 -58 5 0 103 -70 187 -132 202 -151 483 -435 636 -641 76
-104 172 -245 172 -254 0 -4 23 -44 51 -87 28 -44 60 -100 71 -125 11 -25 40
-86 63 -136 39 -83 54 -116 98 -215 8 -19 25 -64 36 -100 12 -36 25 -72 30
-81 13 -22 96 -331 115 -424 8 -44 23 -116 32 -160 9 -44 20 -136 24 -205 4
-69 15 -182 25 -251 13 -105 14 -140 5 -205 -26 -177 -29 -213 -30 -299 0 -56
-8 -118 -20 -165 -11 -41 -20 -92 -20 -113 0 -65 -95 -429 -136 -524 -8 -17
-14 -37 -14 -45 -1 -7 -9 -31 -20 -53 -11 -22 -19 -46 -20 -53 0 -7 -4 -20 -9
-30 -13 -23 -42 -90 -87 -197 -20 -49 -41 -94 -45 -100 -10 -14 -49 -84 -67
-120 -9 -16 -28 -49 -44 -72 -15 -23 -28 -45 -28 -50 0 -5 -19 -36 -42 -69
-24 -34 -67 -96 -96 -139 -94 -134 -286 -356 -414 -475 -170 -160 -299 -261
-463 -365 -135 -86 -453 -255 -478 -255 -7 0 -29 -9 -50 -20 -20 -11 -42 -20
-48 -20 -6 0 -25 -7 -42 -14 -111 -51 -519 -156 -607 -156 -25 0 -79 -9 -120
-20 -74 -19 -141 -20 -5935 -20 -5794 0 -5861 1 -5935 20 -41 11 -96 20 -121
20 -49 0 -363 86 -414 114 -16 9 -35 16 -42 16 -29 0 -293 138 -424 221 -311
198 -619 528 -781 838 -21 40 -46 85 -57 100 -16 24 -40 73 -93 191 -90 202
-198 610 -198 750 -1 62 -6 110 -29 266 -9 60 -8 82 9 153 14 55 20 117 20
189 0 87 7 137 36 267 40 177 78 313 100 362 8 17 14 35 14 40 1 4 9 26 20 48
11 22 19 46 20 53 0 8 6 28 14 45 8 18 26 59 41 92 15 32 35 71 46 86 11 15
41 71 69 123 27 53 95 158 151 234 115 154 350 401 444 465 33 22 76 53 95 67
122 93 177 127 299 186 247 121 275 136 354 191 78 55 140 119 221 228 36 47
49 76 64 145 51 222 54 240 51 368 -7 350 26 587 122 884 20 65 44 130 52 145
9 15 24 48 35 73 89 205 202 396 323 545 90 110 284 304 359 356 178 126 268
182 380 236 158 77 195 93 212 93 7 0 26 7 42 15 41 22 244 75 286 75 19 0 69
9 110 20 111 29 416 29 550 0 260 -57 328 -74 367 -91 23 -11 47 -19 53 -19
16 0 57 -18 255 -115 94 -46 186 -86 205 -90 19 -4 40 -11 45 -15 19 -15 173
-50 220 -50 47 0 201 35 220 50 6 4 33 13 60 19 59 14 158 84 256 181 93 92
160 233 228 481 89 327 115 409 156 504 8 17 20 46 28 65 8 19 27 61 41 92 14
31 26 61 26 67 0 5 18 45 41 88 41 78 81 155 126 248 38 75 262 407 344 510
188 234 459 509 614 621 37 27 91 68 120 91 79 63 278 190 385 247 188 98 348
176 364 176 4 0 33 12 64 26 92 42 95 43 142 55 25 6 50 14 55 19 6 4 32 13
60 19 27 7 54 16 60 20 5 5 73 23 150 40 77 17 177 41 222 51 45 11 113 20
150 20 37 0 100 9 138 20 63 17 98 19 365 16 237 -2 306 -6 350 -19z"/>
</g>
</svg>
