<?xml version="1.0" standalone="no"?>
<!DOCTYPE svg PUBLIC "-//W3C//DTD SVG 20010904//EN"
 "http://www.w3.org/TR/2001/REC-SVG-20010904/DTD/svg10.dtd">
<svg version="1.0" xmlns="http://www.w3.org/2000/svg"
 width="2000.000000pt" height="2000.000000pt" viewBox="0 0 2000.000000 2000.000000"
 preserveAspectRatio="xMidYMid meet">

<g transform="translate(0.000000,2000.000000) scale(0.100000,-0.100000)"
fill="#000000" stroke="none">
<path d="M9970 19988 c0 -13 -100 -102 -430 -383 -102 -87 -241 -206 -310
-266 -69 -59 -195 -167 -280 -240 -85 -73 -198 -169 -250 -214 -52 -45 -178
-153 -280 -240 -102 -86 -232 -198 -290 -249 -57 -50 -134 -116 -170 -146 -69
-58 -268 -227 -480 -411 -69 -59 -321 -275 -560 -480 -239 -204 -482 -412
-540 -463 -57 -50 -134 -116 -170 -146 -70 -57 -267 -227 -480 -411 -69 -59
-211 -181 -316 -271 -105 -90 -219 -188 -255 -219 -35 -30 -154 -131 -263
-225 -110 -93 -238 -203 -285 -244 -48 -42 -113 -98 -146 -125 -33 -27 -80
-68 -105 -90 -76 -67 -111 -97 -210 -180 -52 -44 -134 -113 -181 -155 -86 -76
-152 -132 -689 -590 -162 -139 -342 -293 -400 -344 -57 -50 -131 -113 -165
-141 -33 -27 -108 -91 -165 -141 -137 -120 -375 -323 -465 -399 -98 -82 -826
-706 -955 -819 -57 -50 -143 -123 -190 -163 -47 -39 -121 -103 -165 -142 -44
-39 -86 -71 -92 -71 -10 0 -13 -1208 -13 -6005 l0 -6005 3329 0 3329 0 6 23
c3 12 6 1263 6 2780 0 2725 0 2759 20 2895 25 165 51 281 95 423 32 100 95
270 115 307 4 9 31 63 60 120 50 102 67 132 138 242 181 279 458 559 742 752
164 110 362 214 535 278 111 42 130 48 195 68 486 148 1052 145 1540 -7 93
-29 180 -60 217 -77 17 -7 34 -14 38 -14 11 0 191 -89 270 -134 313 -176 584
-413 804 -701 208 -272 360 -569 449 -880 40 -138 54 -202 78 -364 l24 -165 0
-2750 c0 -1513 3 -2761 6 -2773 l6 -23 3329 0 3329 0 0 6005 c0 3986 -3 6005
-10 6005 -9 0 -134 105 -440 370 -69 59 -141 121 -160 136 -19 16 -73 62 -121
104 -109 96 -392 339 -478 410 -37 30 -114 96 -171 146 -58 51 -188 163 -290
249 -102 87 -201 172 -220 189 -19 17 -78 67 -130 111 -52 44 -131 111 -175
150 -44 39 -107 93 -140 120 -33 28 -98 84 -145 125 -47 41 -186 161 -310 265
-123 105 -265 226 -315 270 -50 44 -239 206 -420 360 -181 154 -367 314 -414
355 -47 42 -114 99 -148 127 -34 28 -108 91 -165 141 -57 49 -186 161 -288
247 -102 87 -243 208 -315 270 -210 182 -550 473 -664 569 -58 49 -140 119
-181 155 -41 37 -103 90 -137 118 -34 28 -108 91 -165 141 -57 49 -186 161
-288 247 -102 87 -243 208 -315 270 -115 100 -312 268 -605 519 -295 252 -408
348 -520 446 -69 59 -208 179 -310 265 -102 87 -243 208 -315 270 -167 145
-518 446 -702 602 -195 166 -243 209 -243 222 0 6 -13 11 -30 11 -17 0 -30 -5
-30 -12z"/>
</g>
</svg>
