<?xml version="1.0" standalone="no"?>
<!DOCTYPE svg PUBLIC "-//W3C//DTD SVG 20010904//EN"
 "http://www.w3.org/TR/2001/REC-SVG-20010904/DTD/svg10.dtd">
<svg version="1.0" xmlns="http://www.w3.org/2000/svg"
 width="2000.000000pt" height="2000.000000pt" viewBox="0 0 2000.000000 2000.000000"
 preserveAspectRatio="xMidYMid meet">

<g transform="translate(0.000000,2000.000000) scale(0.100000,-0.100000)"
fill="#000000" stroke="none">
<path d="M9955 19796 c-5 -2 -57 -14 -115 -27 -93 -20 -113 -28 -175 -73 -38
-28 -77 -58 -85 -67 -8 -9 -43 -38 -78 -64 -68 -51 -74 -56 -178 -156 -38 -36
-105 -93 -150 -127 -45 -33 -101 -80 -126 -104 -55 -53 -90 -83 -147 -128 -25
-19 -55 -44 -67 -55 -57 -53 -93 -84 -133 -115 -25 -19 -54 -44 -66 -55 -20
-18 -92 -83 -170 -154 -16 -15 -67 -55 -112 -89 -45 -35 -115 -95 -155 -135
-40 -41 -102 -96 -138 -123 -36 -27 -72 -56 -80 -65 -8 -9 -35 -31 -59 -50
-25 -18 -54 -43 -66 -54 -11 -11 -42 -38 -69 -60 -27 -22 -67 -58 -90 -81 -22
-22 -78 -69 -123 -103 -45 -34 -115 -94 -155 -135 -40 -40 -110 -101 -155
-135 -46 -34 -93 -72 -106 -84 -31 -29 -92 -83 -151 -132 -26 -22 -62 -53 -79
-69 -18 -15 -45 -40 -62 -55 -16 -15 -58 -49 -93 -75 -68 -52 -75 -58 -178
-157 -38 -36 -105 -93 -150 -127 -45 -33 -101 -80 -126 -104 -55 -53 -90 -83
-147 -128 -25 -19 -55 -44 -67 -55 -57 -53 -93 -84 -133 -115 -25 -19 -54 -44
-66 -55 -20 -18 -92 -83 -170 -154 -16 -15 -67 -55 -112 -89 -45 -35 -115 -95
-155 -135 -40 -41 -102 -96 -138 -123 -36 -27 -72 -56 -80 -65 -8 -9 -35 -31
-59 -50 -25 -18 -54 -43 -66 -54 -11 -11 -42 -38 -69 -60 -27 -22 -67 -58 -90
-81 -22 -22 -78 -69 -123 -103 -45 -34 -115 -94 -155 -135 -40 -40 -110 -101
-155 -135 -46 -34 -93 -72 -106 -84 -31 -29 -92 -83 -151 -132 -26 -22 -62
-53 -79 -69 -18 -15 -45 -40 -62 -55 -16 -15 -67 -55 -111 -89 -45 -34 -115
-95 -155 -135 -41 -41 -110 -101 -155 -135 -45 -33 -101 -80 -126 -104 -55
-53 -90 -83 -147 -128 -25 -19 -54 -44 -66 -55 -11 -11 -45 -40 -74 -65 -29
-25 -63 -54 -75 -66 -11 -11 -41 -36 -66 -55 -25 -18 -67 -57 -95 -85 -27 -28
-95 -85 -151 -126 -55 -42 -134 -109 -175 -150 -41 -40 -102 -95 -137 -122
-35 -26 -74 -58 -86 -70 -58 -53 -94 -84 -136 -116 -52 -40 -60 -47 -132 -116
-29 -28 -89 -78 -134 -112 -45 -33 -114 -94 -155 -134 -41 -41 -111 -102 -156
-136 -46 -35 -93 -73 -106 -85 -31 -29 -92 -83 -151 -132 -46 -38 -63 -54
-136 -120 -18 -16 -56 -47 -83 -67 -63 -47 -131 -106 -215 -188 -37 -36 -83
-76 -102 -89 -64 -43 -119 -134 -148 -240 l-26 -96 -3 -5640 -3 -5640 21 -95
c40 -183 138 -284 318 -327 l96 -22 3100 -1 3100 0 114 26 c95 22 125 34 171
67 87 63 132 133 158 247 l22 95 0 2480 c0 2433 1 2481 20 2555 12 47 20 108
20 163 0 52 8 121 19 165 10 43 29 124 41 182 13 58 29 112 36 120 6 8 14 31
18 51 4 21 13 42 21 49 8 7 15 20 15 30 0 9 9 29 20 43 11 14 20 32 20 40 0 8
8 25 18 38 10 13 23 35 30 49 14 30 18 36 111 179 41 63 94 135 117 160 105
113 142 150 184 182 24 19 65 55 91 81 25 27 51 48 58 48 6 0 36 18 65 40 29
22 56 40 60 40 3 0 37 22 74 49 37 27 81 53 97 57 17 4 40 15 53 25 12 9 40
20 62 24 21 4 44 13 51 21 6 8 21 14 33 14 11 0 29 7 39 15 11 7 38 17 60 20
23 4 47 12 54 17 22 18 198 57 288 63 50 4 115 13 146 21 73 18 195 18 268 0
31 -8 101 -17 156 -21 55 -4 118 -13 140 -20 22 -7 56 -16 75 -20 19 -4 44
-13 55 -20 11 -7 39 -16 62 -19 23 -4 49 -14 60 -21 10 -8 26 -15 36 -15 10 0
37 -9 59 -20 23 -11 47 -20 54 -20 6 0 22 -8 35 -18 13 -11 38 -22 54 -26 17
-4 44 -18 62 -32 17 -13 35 -24 39 -24 4 0 22 -11 40 -25 18 -14 37 -25 42
-25 5 0 30 -16 55 -35 25 -19 50 -35 55 -35 4 0 18 -10 29 -22 12 -13 52 -50
89 -83 101 -88 163 -153 269 -278 19 -23 105 -153 105 -160 0 -4 18 -33 40
-64 22 -32 40 -62 40 -66 0 -5 9 -20 20 -34 11 -14 20 -36 20 -49 0 -12 5 -26
11 -30 6 -3 18 -21 26 -38 8 -17 21 -42 28 -56 8 -14 15 -35 15 -46 0 -12 6
-27 14 -33 8 -7 17 -30 21 -52 4 -23 13 -53 21 -67 8 -15 14 -40 14 -57 0 -16
9 -64 20 -105 13 -50 20 -109 20 -175 0 -66 7 -125 20 -175 19 -74 20 -122 20
-2555 l0 -2480 22 -95 c26 -114 71 -184 158 -247 46 -33 76 -45 171 -67 l114
-26 3099 0 3100 0 110 26 c91 22 121 34 167 67 86 64 132 135 158 243 l21 91
0 5644 -1 5644 -22 90 c-25 100 -76 185 -137 226 -34 24 -112 93 -198 177 -25
24 -81 71 -126 104 -79 60 -110 87 -185 158 -20 19 -57 51 -81 70 -42 32 -78
63 -136 116 -12 12 -51 44 -86 70 -35 26 -94 78 -132 114 -107 101 -111 105
-199 171 -45 34 -104 85 -132 113 -27 28 -70 66 -95 85 -25 19 -52 41 -60 50
-8 9 -35 31 -60 50 -25 19 -61 51 -81 71 -19 20 -53 49 -75 65 -44 33 -85 69
-152 133 -25 24 -81 71 -126 104 -45 34 -114 94 -154 134 -40 41 -110 101
-155 136 -45 34 -95 74 -112 89 -16 15 -44 40 -62 55 -17 16 -53 47 -79 69
-59 49 -120 103 -151 132 -13 12 -60 50 -106 85 -45 34 -115 95 -156 136 -41
40 -110 101 -155 134 -79 60 -110 87 -185 158 -20 19 -57 51 -81 70 -49 37
-91 73 -155 135 -23 22 -68 60 -101 84 -32 25 -83 67 -113 95 -92 87 -99 94
-184 157 -45 35 -107 88 -138 118 -68 67 -138 128 -210 182 -30 22 -68 55 -85
73 -17 18 -48 45 -70 61 -44 33 -85 69 -152 133 -25 24 -81 71 -126 104 -45
34 -114 94 -154 134 -40 41 -110 101 -155 136 -45 34 -95 74 -112 89 -16 15
-44 40 -62 55 -17 16 -53 47 -79 69 -59 49 -120 103 -151 132 -13 12 -60 50
-106 85 -45 34 -115 95 -156 136 -41 40 -110 101 -155 134 -81 61 -116 91
-185 158 -20 19 -57 51 -81 70 -50 38 -92 75 -158 139 -25 23 -71 61 -101 84
-31 22 -80 63 -110 91 -92 87 -99 94 -184 157 -45 34 -107 87 -138 118 -70 69
-140 129 -210 182 -30 22 -67 54 -84 72 -17 18 -51 48 -75 67 -58 44 -93 75
-148 128 -25 24 -81 71 -126 104 -45 34 -114 94 -155 135 -40 40 -110 101
-155 135 -44 34 -94 74 -111 89 -16 15 -44 40 -62 55 -17 16 -53 47 -79 69
-59 49 -120 103 -151 132 -13 12 -60 50 -106 84 -45 34 -115 95 -155 135 -40
41 -110 101 -155 135 -45 34 -89 69 -97 78 -8 9 -46 39 -85 67 -60 44 -83 54
-165 72 -103 23 -169 33 -185 28z m125 -2442 c36 -27 90 -74 121 -104 70 -69
107 -101 189 -165 64 -49 105 -85 160 -135 14 -14 48 -43 75 -65 26 -22 60
-51 75 -65 15 -14 51 -45 80 -70 30 -25 63 -54 74 -66 12 -11 50 -42 86 -69
36 -27 88 -72 115 -100 28 -28 88 -80 135 -115 89 -68 114 -90 208 -180 31
-31 86 -78 122 -105 36 -27 74 -58 86 -69 30 -30 83 -75 133 -115 25 -19 62
-51 82 -70 70 -67 104 -97 189 -161 47 -35 117 -96 155 -135 39 -39 108 -100
155 -135 47 -35 101 -80 120 -100 19 -20 55 -51 80 -70 24 -19 52 -42 61 -50
9 -8 40 -35 69 -60 29 -25 72 -63 94 -86 23 -22 68 -60 101 -84 33 -24 79 -62
101 -84 59 -58 99 -93 174 -151 64 -49 105 -85 160 -135 14 -14 48 -43 75 -65
26 -22 60 -51 75 -65 15 -14 51 -45 80 -70 30 -25 63 -54 74 -66 12 -11 50
-42 86 -69 36 -27 88 -72 115 -100 28 -28 88 -80 135 -115 93 -70 123 -97 209
-180 31 -31 85 -78 121 -105 36 -27 74 -58 86 -69 30 -30 83 -75 133 -115 25
-19 62 -51 82 -70 70 -68 104 -97 189 -161 47 -35 117 -95 155 -135 39 -39
108 -99 155 -135 47 -35 100 -80 119 -99 19 -20 47 -45 62 -57 45 -33 118 -95
170 -144 82 -78 112 -104 179 -154 36 -27 81 -65 101 -85 48 -48 91 -86 169
-146 64 -49 105 -85 160 -135 14 -14 48 -43 75 -65 26 -22 60 -51 75 -65 15
-14 51 -45 80 -70 30 -25 63 -54 74 -66 12 -11 50 -42 86 -69 36 -27 88 -72
115 -100 28 -28 88 -80 135 -115 93 -70 123 -97 209 -180 31 -31 85 -78 121
-105 36 -27 74 -58 86 -69 31 -31 84 -76 134 -115 25 -19 50 -42 57 -51 10
-12 12 -1002 13 -4557 l0 -4543 -1670 0 -1670 0 0 1977 0 1978 -22 100 c-35
163 -165 704 -187 780 -23 81 -47 155 -66 205 -7 19 -23 62 -35 95 -69 188
-178 375 -401 686 -235 328 -338 448 -539 629 -40 36 -82 74 -94 86 -11 11
-39 33 -61 49 -22 16 -47 37 -55 46 -23 26 -331 245 -399 284 -34 19 -89 51
-123 72 -152 88 -249 138 -358 182 -25 10 -67 28 -95 39 -27 11 -90 33 -140
47 -49 15 -115 35 -145 45 -55 17 -554 132 -725 167 -76 15 -151 18 -480 21
-445 4 -379 11 -890 -105 -300 -69 -349 -81 -525 -138 -136 -44 -188 -63 -220
-80 -14 -8 -74 -38 -135 -66 -186 -87 -318 -169 -626 -394 -132 -97 -269 -204
-304 -238 -35 -34 -92 -89 -127 -121 -34 -33 -82 -84 -106 -114 -23 -31 -49
-60 -56 -66 -43 -36 -293 -375 -436 -591 -82 -124 -148 -248 -185 -345 -10
-25 -26 -63 -35 -85 -84 -189 -146 -411 -280 -1005 l-40 -174 0 -1983 0 -1983
-1670 0 -1670 0 0 4543 0 4544 49 42 c27 24 63 52 79 64 16 12 44 38 63 58 19
19 72 64 119 99 47 36 117 96 155 135 39 40 108 100 155 135 85 64 119 93 189
161 20 19 57 51 82 70 50 40 103 85 133 115 12 11 50 42 86 69 36 27 90 74
121 105 86 83 116 110 209 180 47 35 108 87 135 115 28 28 79 73 115 100 36
27 74 58 86 69 11 12 44 41 74 66 29 25 65 56 80 70 15 14 49 43 76 65 26 22
66 58 89 80 22 23 78 70 125 105 90 68 133 105 184 157 17 18 54 49 81 70 52
40 104 84 139 118 12 12 41 36 66 55 25 19 61 50 81 70 20 19 60 55 89 80 30
25 63 54 74 66 12 11 59 49 106 84 47 35 117 96 155 135 39 39 108 100 155
135 85 64 119 94 189 161 20 19 57 51 82 70 50 40 103 85 133 115 12 11 50 42
86 69 36 27 91 74 122 105 94 90 119 112 208 180 47 35 108 87 135 115 28 28
79 72 115 100 36 27 81 65 100 85 19 20 64 58 100 85 76 58 112 89 189 165 31
31 94 85 141 120 96 73 129 101 209 181 31 31 85 78 121 104 36 27 74 58 86
69 33 33 85 78 135 116 25 19 62 51 81 70 62 61 101 94 188 160 47 35 117 96
155 135 39 39 108 100 155 135 85 64 119 94 189 161 20 19 57 51 82 70 50 40
103 85 133 115 12 11 50 42 86 69 36 27 91 74 122 105 94 90 119 112 208 180
47 35 103 82 126 105 42 41 113 103 163 139 15 12 43 38 62 58 32 35 35 36 49
19 8 -10 44 -40 80 -67z"/>
</g>
</svg>
