<?xml version="1.0" standalone="no"?>
<!DOCTYPE svg PUBLIC "-//W3C//DTD SVG 20010904//EN"
 "http://www.w3.org/TR/2001/REC-SVG-20010904/DTD/svg10.dtd">
<svg version="1.0" xmlns="http://www.w3.org/2000/svg"
 width="2000.000000pt" height="2000.000000pt" viewBox="0 0 2000.000000 2000.000000"
 preserveAspectRatio="xMidYMid meet">

<g transform="translate(0.000000,2000.000000) scale(0.100000,-0.100000)"
fill="#000000" stroke="none">
<path d="M7480 19270 c-263 -7 -295 -10 -337 -38 -12 -7 -64 -18 -115 -23 -51
-5 -129 -18 -173 -29 -44 -11 -95 -20 -113 -20 -40 0 -123 -19 -137 -31 -5 -5
-23 -9 -40 -9 -16 0 -55 -7 -85 -16 -30 -9 -77 -19 -105 -24 -66 -11 -148 -31
-160 -40 -5 -4 -35 -13 -65 -20 -30 -7 -62 -17 -70 -21 -8 -4 -49 -15 -90 -25
-41 -9 -80 -20 -85 -25 -6 -4 -33 -13 -60 -20 -28 -7 -59 -18 -70 -24 -11 -7
-42 -18 -70 -24 -27 -7 -54 -16 -60 -21 -5 -4 -26 -11 -45 -15 -34 -7 -67 -20
-175 -71 -28 -13 -57 -24 -65 -24 -8 0 -27 -6 -42 -14 -15 -8 -42 -17 -60 -21
-18 -4 -44 -15 -58 -25 -30 -21 -136 -70 -152 -70 -6 0 -36 -12 -67 -27 -31
-15 -94 -44 -141 -66 -88 -41 -98 -46 -165 -82 -23 -12 -51 -27 -63 -34 -95
-49 -157 -83 -182 -101 -30 -22 -94 -58 -232 -134 -24 -12 -85 -52 -137 -87
-51 -35 -110 -73 -130 -85 -68 -39 -371 -253 -407 -288 -20 -19 -70 -58 -112
-87 -43 -29 -84 -60 -92 -69 -8 -10 -57 -50 -108 -89 -51 -39 -120 -97 -153
-129 -125 -117 -159 -149 -239 -222 -46 -41 -106 -99 -134 -129 -28 -29 -98
-101 -155 -160 -57 -58 -116 -125 -132 -148 -16 -23 -38 -48 -48 -55 -10 -7
-42 -42 -71 -78 -29 -36 -61 -72 -70 -80 -9 -8 -27 -31 -40 -50 -13 -19 -39
-50 -57 -68 -18 -18 -51 -59 -73 -92 -22 -33 -52 -72 -66 -87 -32 -34 -84
-109 -84 -120 0 -4 -16 -26 -36 -48 -41 -46 -94 -120 -94 -132 0 -4 -15 -25
-33 -45 -18 -20 -42 -54 -53 -75 -45 -83 -63 -110 -86 -135 -13 -15 -30 -39
-38 -55 -8 -15 -22 -40 -32 -55 -10 -14 -18 -31 -18 -38 0 -6 -20 -40 -45 -74
-25 -35 -45 -70 -45 -77 0 -8 -9 -25 -20 -39 -11 -14 -20 -28 -20 -32 0 -4
-20 -39 -45 -78 -25 -39 -45 -76 -45 -83 0 -6 -9 -27 -20 -45 -11 -18 -20 -38
-20 -45 0 -7 -20 -46 -45 -86 -25 -40 -45 -77 -45 -83 0 -6 -9 -29 -21 -52
-12 -22 -27 -52 -33 -66 -7 -14 -17 -34 -23 -45 -25 -49 -52 -112 -58 -135 -4
-14 -13 -34 -19 -45 -7 -11 -16 -33 -20 -49 -4 -17 -15 -41 -25 -55 -10 -14
-22 -42 -26 -61 -4 -19 -13 -44 -20 -55 -7 -11 -16 -36 -20 -55 -4 -19 -13
-44 -20 -55 -7 -11 -16 -36 -20 -55 -4 -19 -15 -46 -25 -60 -9 -14 -23 -50
-30 -80 -7 -30 -16 -59 -20 -65 -4 -5 -13 -35 -20 -65 -7 -30 -16 -59 -20 -65
-4 -5 -13 -35 -20 -65 -7 -30 -18 -65 -25 -76 -8 -12 -19 -50 -26 -85 -6 -35
-15 -73 -20 -84 -16 -38 -29 -100 -29 -135 0 -20 -4 -40 -9 -45 -5 -6 -15 -39
-21 -75 -7 -36 -18 -78 -25 -95 -23 -50 -35 -107 -35 -165 0 -31 -4 -60 -9
-65 -16 -19 -31 -105 -31 -184 0 -44 -4 -82 -9 -85 -19 -12 -31 -141 -41 -471
-13 -446 -13 -1031 0 -1485 10 -334 21 -464 41 -476 5 -3 9 -39 9 -80 0 -75
15 -161 31 -178 5 -6 9 -37 9 -70 0 -63 12 -120 35 -171 7 -16 18 -59 25 -95
6 -36 16 -69 21 -74 5 -6 9 -26 9 -45 0 -36 13 -98 29 -136 5 -11 14 -49 20
-84 7 -35 18 -73 26 -85 7 -11 18 -41 25 -66 6 -25 15 -54 20 -65 5 -11 14
-45 21 -75 6 -30 15 -59 19 -65 4 -5 13 -35 20 -65 7 -30 21 -66 30 -80 10
-14 21 -41 25 -60 4 -19 13 -44 20 -55 7 -11 16 -36 20 -55 4 -19 13 -44 20
-55 7 -11 16 -36 20 -55 4 -19 16 -47 26 -61 10 -14 21 -38 25 -55 4 -16 13
-38 20 -49 6 -11 15 -31 19 -45 6 -23 33 -86 58 -135 6 -11 16 -31 23 -45 6
-14 21 -44 33 -66 12 -23 21 -46 21 -52 0 -6 20 -43 45 -83 25 -40 45 -79 45
-86 0 -7 9 -27 20 -45 11 -18 20 -39 20 -47 0 -7 20 -42 45 -77 25 -34 45 -69
45 -76 0 -7 9 -24 20 -38 11 -14 20 -31 20 -39 0 -7 20 -42 45 -77 25 -34 45
-68 45 -74 0 -6 24 -45 53 -87 57 -85 98 -151 123 -200 9 -18 27 -44 40 -58
13 -15 47 -61 76 -103 28 -42 62 -88 75 -101 12 -13 23 -28 23 -33 0 -12 51
-85 83 -120 14 -16 41 -49 58 -75 18 -27 47 -61 64 -78 17 -16 46 -52 65 -80
18 -27 48 -63 65 -80 17 -16 38 -41 48 -55 19 -28 96 -113 202 -224 39 -40 97
-103 130 -141 33 -38 73 -80 90 -94 16 -14 62 -57 101 -96 39 -38 108 -104
154 -145 45 -41 94 -86 109 -100 15 -14 50 -43 79 -65 29 -21 52 -42 52 -46 0
-4 23 -21 50 -39 28 -18 60 -45 73 -60 12 -15 56 -50 97 -78 41 -28 96 -71
123 -95 26 -24 67 -54 92 -67 25 -13 45 -26 45 -30 0 -9 246 -180 259 -180 5
0 23 -11 39 -25 31 -26 243 -160 315 -199 72 -39 121 -68 147 -86 31 -22 119
-70 217 -119 10 -4 45 -21 78 -36 33 -16 72 -36 87 -47 14 -10 31 -18 38 -18
7 0 24 -9 39 -19 15 -11 40 -23 57 -27 46 -11 213 -86 254 -114 14 -10 49 -23
78 -30 28 -6 55 -16 58 -21 3 -5 13 -9 22 -9 9 0 40 -11 67 -25 28 -13 55 -25
61 -25 5 0 28 -8 50 -19 21 -10 54 -22 72 -26 18 -4 45 -13 60 -21 15 -8 34
-14 42 -14 9 0 33 -9 53 -19 21 -11 61 -25 90 -31 29 -7 57 -16 62 -20 6 -4
44 -15 85 -25 41 -10 80 -21 85 -25 6 -4 39 -15 75 -24 137 -33 237 -59 285
-73 28 -8 70 -16 95 -19 25 -3 54 -10 65 -14 41 -18 102 -30 156 -30 30 0 59
-4 65 -9 15 -14 148 -41 206 -41 29 0 87 -9 128 -20 51 -13 108 -20 177 -20
75 0 124 -6 180 -22 77 -21 89 -22 778 -22 687 0 701 1 782 22 57 16 111 22
180 22 63 0 127 7 181 20 46 11 101 20 123 20 49 0 191 28 203 41 6 5 33 9 60
9 50 0 111 12 151 30 11 4 43 11 70 14 28 2 73 12 100 20 52 15 125 34 260 67
44 10 87 23 95 27 8 5 40 15 70 22 30 7 60 16 65 21 6 4 43 15 82 24 39 9 88
25 109 36 21 10 45 19 54 19 8 0 27 6 42 14 15 8 41 17 59 21 18 4 47 15 64
25 17 10 45 21 62 24 17 4 48 16 69 27 21 10 45 19 54 19 8 1 33 9 55 20 22
11 46 19 53 20 7 0 30 11 50 25 20 14 42 25 49 25 7 0 28 9 48 20 20 11 40 20
46 20 6 0 36 12 67 26 112 51 147 67 167 77 11 6 28 14 38 19 29 14 102 53
192 103 25 14 65 36 88 49 24 13 62 36 85 50 23 14 46 26 52 26 6 0 50 25 98
56 92 60 129 82 202 122 25 13 61 36 80 50 44 34 131 93 229 155 42 27 83 57
91 66 8 10 44 37 79 61 35 23 71 50 80 59 9 9 31 27 49 39 l32 24 32 -27 c17
-15 44 -42 59 -61 15 -20 44 -48 64 -64 20 -16 49 -45 65 -65 16 -20 45 -49
65 -65 20 -16 48 -44 63 -62 15 -18 58 -62 96 -98 38 -36 85 -83 105 -104 20
-22 52 -54 71 -70 19 -17 48 -47 65 -66 16 -19 46 -48 65 -65 19 -16 48 -46
65 -65 16 -19 46 -48 65 -65 19 -16 48 -46 65 -65 16 -19 46 -48 65 -65 19
-16 48 -46 65 -65 16 -19 46 -48 65 -65 19 -16 48 -46 65 -65 16 -19 46 -48
65 -65 19 -16 48 -45 65 -64 16 -18 93 -95 169 -170 76 -75 155 -154 175 -175
20 -22 49 -51 66 -65 16 -14 45 -44 65 -65 19 -22 51 -54 70 -70 19 -17 48
-47 65 -66 16 -19 46 -48 65 -65 19 -16 48 -46 65 -65 16 -19 46 -48 65 -65
19 -16 48 -46 65 -65 16 -19 46 -48 65 -65 19 -16 48 -46 65 -65 16 -19 46
-48 65 -65 19 -16 48 -46 65 -65 16 -19 46 -48 65 -65 19 -16 48 -45 65 -64
16 -18 93 -95 169 -170 76 -75 155 -154 175 -175 20 -22 52 -54 71 -70 19 -17
48 -47 65 -66 16 -19 46 -48 65 -65 19 -16 48 -46 65 -65 16 -19 46 -48 65
-65 19 -16 48 -46 65 -65 16 -19 46 -48 65 -65 19 -16 48 -46 65 -65 16 -19
46 -48 65 -65 19 -16 48 -46 65 -65 16 -19 46 -48 65 -65 19 -16 48 -45 65
-64 39 -43 273 -277 316 -316 19 -17 48 -46 64 -65 17 -19 46 -49 65 -65 19
-17 49 -46 65 -65 17 -19 46 -49 65 -65 19 -17 49 -46 65 -65 17 -19 46 -49
65 -65 19 -17 49 -46 65 -65 17 -19 46 -49 65 -65 19 -17 49 -46 65 -65 17
-19 46 -49 65 -65 19 -17 49 -46 66 -65 17 -19 68 -69 114 -110 46 -41 92 -84
104 -96 47 -46 173 -122 226 -135 78 -19 642 -19 720 0 107 27 382 242 430
337 8 16 33 56 56 89 30 44 48 87 67 161 25 94 27 114 27 323 0 206 -2 229
-27 329 -24 96 -33 117 -92 202 -43 62 -131 160 -256 287 -104 106 -198 201
-207 210 -48 50 -117 119 -148 147 -19 17 -48 47 -65 66 -16 19 -46 48 -65 65
-19 16 -48 46 -65 65 -16 19 -46 48 -65 65 -19 16 -48 46 -65 65 -16 19 -46
48 -65 65 -19 16 -48 46 -65 65 -16 19 -45 48 -64 65 -26 23 -358 354 -465
465 -61 62 -116 117 -146 144 -19 17 -48 47 -65 66 -16 19 -46 48 -65 65 -19
16 -48 46 -65 65 -16 19 -46 48 -65 65 -19 16 -48 46 -65 65 -16 19 -45 48
-64 65 -46 40 -928 922 -966 966 -17 19 -46 48 -65 64 -19 17 -49 46 -66 65
-27 30 -92 96 -144 146 -8 8 -176 175 -372 372 -197 196 -368 366 -380 377
-12 11 -40 40 -63 64 -22 25 -56 58 -75 75 -19 17 -48 47 -65 66 -16 19 -46
48 -65 65 -19 16 -48 46 -65 65 -16 19 -45 48 -64 65 -52 46 -412 406 -448
448 -17 20 -28 37 -24 37 4 0 33 37 65 83 91 130 135 190 154 212 25 28 102
142 102 152 0 4 15 25 33 45 18 20 42 54 53 75 43 78 63 112 98 160 20 28 36
54 36 59 0 5 9 20 20 34 11 14 20 31 20 38 0 7 20 42 45 76 25 35 45 70 45 77
0 8 9 25 20 39 11 14 20 31 20 37 0 7 20 44 45 83 25 39 45 76 45 83 0 6 9 27
20 45 11 18 20 38 20 45 0 7 20 46 45 86 25 40 45 78 45 85 0 6 9 29 20 51 11
22 20 43 20 49 0 13 49 116 70 146 10 14 21 41 25 60 4 19 13 44 19 55 7 11
18 42 25 69 7 27 19 58 27 70 7 11 14 27 14 34 0 8 8 26 19 40 10 15 24 52 31
82 7 30 16 60 20 65 4 6 11 26 15 45 4 19 15 49 25 66 9 16 23 55 30 85 7 30
16 59 20 64 4 6 13 37 20 70 7 33 16 69 21 80 5 11 15 48 23 83 8 35 19 69 24
75 6 7 16 41 22 77 7 36 16 74 21 85 17 41 29 101 29 146 0 25 4 49 9 55 12
14 31 97 31 141 0 21 6 47 13 58 23 33 37 109 37 192 0 44 4 83 9 89 19 20 31
109 31 226 0 68 4 128 9 134 28 30 31 122 31 859 0 737 -3 829 -31 860 -5 5
-9 65 -9 133 0 117 -12 206 -31 227 -5 5 -9 40 -9 78 0 74 -15 151 -37 182 -7
11 -13 41 -13 68 0 52 -17 136 -31 152 -5 5 -9 26 -9 48 0 44 -19 127 -31 142
-5 5 -9 22 -9 38 0 37 -20 116 -36 142 -6 11 -17 45 -24 75 -7 30 -16 62 -20
70 -5 8 -13 44 -20 80 -6 36 -16 70 -20 75 -5 6 -14 33 -21 60 -7 28 -20 64
-30 80 -9 17 -20 46 -24 65 -4 19 -11 40 -15 45 -3 6 -12 37 -20 70 -7 33 -21
72 -31 87 -11 14 -19 30 -19 35 0 4 -8 24 -19 43 -10 19 -22 51 -26 70 -4 19
-11 40 -15 45 -5 6 -14 33 -21 60 -7 28 -20 61 -29 75 -21 30 -70 133 -70 146
0 13 -33 82 -97 201 -18 34 -33 68 -33 75 0 7 -9 24 -20 38 -11 14 -20 30 -20
37 0 6 -20 44 -45 84 -25 40 -45 80 -45 89 0 8 -9 26 -20 40 -11 14 -20 31
-20 39 0 7 -16 36 -36 64 -42 58 -71 108 -105 180 -7 16 -24 40 -37 55 -14 14
-33 41 -43 59 -11 18 -27 48 -37 66 -32 55 -174 261 -199 286 -13 13 -23 28
-23 33 0 13 -50 85 -89 128 -18 19 -46 56 -62 82 -17 27 -35 48 -40 48 -5 0
-34 38 -65 85 -32 47 -60 85 -64 85 -4 0 -34 34 -66 75 -32 41 -62 75 -65 75
-3 0 -27 27 -53 60 -26 33 -71 84 -99 113 -61 63 -169 178 -213 227 -17 19
-68 69 -114 110 -45 41 -104 95 -130 120 -26 25 -75 70 -110 100 -35 30 -82
73 -104 96 -23 22 -63 55 -91 74 -50 34 -70 51 -151 126 -24 23 -59 49 -77 58
-19 8 -57 38 -86 65 -28 27 -68 57 -88 66 -20 10 -52 33 -71 51 -19 19 -58 48
-86 66 -28 18 -73 50 -101 70 -27 21 -56 38 -64 38 -8 0 -24 8 -35 19 -30 27
-306 201 -320 201 -6 0 -22 9 -36 20 -14 11 -30 20 -35 20 -6 0 -33 16 -60 36
-28 20 -61 40 -74 45 -13 5 -36 18 -51 29 -16 11 -34 20 -42 20 -8 0 -47 20
-87 45 -40 25 -77 45 -83 45 -6 0 -29 9 -52 21 -22 12 -52 27 -66 33 -27 13
-44 22 -105 53 -22 11 -53 23 -70 27 -39 10 -113 44 -147 67 -14 11 -32 19
-40 19 -8 0 -31 9 -52 19 -21 11 -52 23 -69 26 -18 4 -47 16 -65 26 -18 10
-39 19 -45 19 -7 0 -24 6 -39 14 -15 8 -42 17 -60 21 -18 4 -47 15 -64 25 -16
9 -55 23 -85 30 -30 7 -58 16 -64 20 -10 8 -68 25 -205 61 -41 11 -82 23 -90
28 -8 4 -40 13 -70 20 -30 7 -64 17 -75 22 -11 5 -56 18 -100 28 -44 11 -105
27 -135 35 -30 9 -73 16 -96 16 -22 0 -44 4 -50 9 -13 12 -96 31 -136 31 -18
0 -73 11 -123 25 -51 14 -117 25 -152 25 -42 0 -73 6 -95 18 -73 41 -101 42
-931 46 -441 2 -921 0 -1067 -4z m1120 -1906 c47 -8 144 -14 215 -14 97 0 149
-5 205 -20 42 -11 108 -20 150 -20 42 0 80 -4 85 -9 12 -12 153 -41 197 -41
18 0 53 -7 78 -16 25 -9 70 -18 100 -21 30 -3 60 -9 65 -13 6 -4 44 -15 85
-24 41 -10 79 -21 85 -25 5 -5 35 -14 65 -21 30 -7 60 -16 65 -20 6 -4 35 -13
65 -20 30 -7 60 -16 65 -20 6 -4 35 -13 65 -20 30 -7 64 -19 75 -26 11 -6 36
-15 55 -19 19 -4 46 -13 60 -20 81 -39 118 -55 145 -61 17 -4 46 -14 65 -24
108 -52 126 -60 133 -60 5 0 21 -8 35 -19 15 -10 42 -22 60 -26 30 -6 107 -44
242 -117 25 -13 54 -29 65 -35 121 -62 218 -117 258 -145 16 -11 43 -28 61
-37 54 -27 468 -317 515 -361 24 -22 64 -55 89 -72 25 -17 62 -47 82 -67 48
-47 103 -96 165 -146 117 -94 381 -358 435 -434 13 -19 45 -56 70 -81 89 -91
127 -136 175 -207 26 -40 52 -73 56 -73 5 0 32 -35 60 -77 29 -43 63 -89 76
-102 12 -13 23 -28 23 -33 0 -12 78 -130 95 -143 7 -6 22 -27 34 -48 12 -20
31 -54 42 -74 12 -21 36 -59 55 -84 19 -26 34 -53 34 -60 0 -8 9 -25 20 -39
11 -14 20 -28 20 -32 0 -3 20 -39 45 -79 25 -40 45 -80 45 -89 0 -8 9 -26 20
-40 11 -14 20 -31 20 -37 0 -7 16 -38 36 -69 19 -30 40 -70 46 -87 9 -30 38
-97 61 -142 29 -57 37 -73 50 -105 8 -19 18 -51 22 -70 4 -19 16 -47 26 -62
11 -14 19 -29 19 -33 0 -3 8 -25 19 -48 10 -23 22 -58 26 -77 4 -19 11 -39 15
-45 4 -5 13 -34 20 -64 7 -30 21 -69 30 -85 10 -17 21 -47 25 -66 4 -19 11
-41 15 -50 4 -8 13 -44 20 -80 6 -36 16 -69 21 -74 5 -6 9 -24 9 -40 0 -36 15
-98 35 -141 7 -16 18 -59 25 -95 6 -36 16 -69 21 -74 5 -6 9 -39 9 -74 0 -65
16 -150 31 -166 5 -6 9 -52 9 -104 0 -97 13 -173 37 -207 10 -15 13 -69 13
-225 0 -171 4 -217 20 -280 11 -41 20 -104 20 -140 0 -36 -9 -99 -20 -140 -16
-62 -20 -109 -20 -275 0 -151 -3 -205 -13 -220 -24 -35 -37 -111 -37 -212 0
-55 -4 -103 -9 -109 -15 -17 -31 -102 -31 -168 0 -36 -4 -67 -9 -70 -4 -3 -14
-34 -20 -68 -7 -35 -18 -76 -26 -93 -20 -44 -35 -105 -35 -147 0 -20 -4 -39
-9 -42 -4 -3 -14 -34 -20 -68 -7 -35 -16 -70 -20 -78 -5 -9 -12 -31 -16 -50
-4 -19 -15 -49 -25 -66 -9 -16 -23 -55 -29 -85 -7 -30 -16 -63 -21 -74 -5 -11
-14 -40 -21 -65 -6 -24 -17 -53 -25 -64 -8 -11 -14 -27 -14 -34 0 -8 -8 -26
-19 -40 -10 -15 -22 -43 -26 -62 -4 -19 -14 -51 -22 -70 -13 -32 -21 -48 -50
-105 -5 -11 -19 -40 -30 -65 -42 -96 -77 -166 -95 -192 -10 -14 -18 -32 -18
-40 0 -7 -9 -24 -20 -38 -11 -14 -20 -32 -20 -40 0 -9 -20 -49 -45 -89 -25
-40 -45 -76 -45 -79 0 -4 -9 -18 -20 -32 -11 -14 -20 -31 -20 -38 0 -7 -20
-42 -45 -76 -25 -35 -45 -67 -45 -70 0 -4 -38 -63 -85 -131 -47 -68 -85 -127
-85 -133 0 -5 -11 -20 -23 -33 -13 -13 -47 -59 -76 -101 -28 -43 -55 -78 -60
-78 -5 0 -28 -29 -51 -65 -24 -36 -55 -76 -70 -88 -15 -12 -51 -52 -80 -89
-30 -38 -56 -68 -60 -68 -3 0 -24 -24 -45 -52 -48 -64 -359 -377 -430 -433
-27 -22 -59 -49 -71 -60 -64 -62 -161 -142 -246 -206 -54 -40 -98 -76 -98 -81
0 -4 -21 -18 -46 -29 -25 -12 -57 -34 -72 -49 -15 -15 -44 -35 -65 -45 -21
-10 -51 -30 -65 -45 -15 -15 -44 -35 -63 -44 -20 -9 -54 -33 -75 -52 -22 -19
-42 -34 -46 -34 -4 0 -50 -27 -103 -60 -53 -33 -102 -60 -109 -60 -6 0 -16 -4
-21 -9 -18 -18 -262 -145 -375 -194 -47 -21 -69 -31 -97 -46 -10 -5 -40 -19
-68 -32 -27 -12 -66 -30 -85 -39 -19 -10 -48 -20 -65 -24 -16 -4 -48 -15 -70
-26 -68 -32 -109 -48 -145 -55 -19 -4 -44 -13 -55 -21 -11 -7 -42 -18 -70 -25
-27 -6 -54 -15 -60 -19 -5 -4 -35 -13 -65 -20 -30 -7 -62 -17 -70 -21 -17 -9
-131 -42 -230 -66 -36 -8 -69 -19 -75 -24 -5 -5 -20 -9 -35 -9 -14 0 -65 -8
-115 -19 -164 -35 -259 -52 -350 -62 -49 -6 -126 -19 -170 -29 -55 -14 -131
-21 -245 -24 -91 -2 -190 -9 -220 -15 -70 -15 -436 -15 -515 -1 -33 6 -143 15
-245 19 -111 5 -207 15 -240 24 -30 8 -91 18 -135 22 -44 4 -114 15 -157 26
-42 10 -89 19 -105 19 -15 0 -48 7 -73 16 -25 9 -74 19 -110 24 -67 8 -174 34
-200 49 -8 4 -49 16 -90 25 -41 10 -84 22 -95 26 -11 5 -40 14 -65 21 -25 6
-50 15 -55 19 -6 5 -33 14 -60 21 -28 6 -59 17 -70 24 -11 7 -36 16 -55 20
-36 7 -77 23 -145 55 -22 11 -53 22 -70 26 -16 4 -46 14 -65 24 -19 9 -56 26
-83 38 -26 12 -66 30 -90 42 -23 11 -47 20 -52 20 -10 0 -71 30 -170 85 -27
15 -81 43 -120 63 -38 19 -82 43 -97 54 -14 10 -32 18 -40 18 -7 0 -57 29
-110 65 -54 36 -104 65 -112 65 -7 0 -19 7 -26 15 -7 8 -53 40 -104 72 -50 31
-111 73 -136 94 -25 20 -70 52 -100 71 -30 20 -72 52 -94 72 -21 20 -66 55
-100 78 -33 23 -70 51 -82 62 -30 30 -92 85 -149 131 -79 64 -127 107 -160
144 -16 19 -41 44 -54 55 -32 28 -63 59 -141 143 -109 116 -143 155 -193 217
-26 33 -57 66 -68 74 -10 7 -38 41 -61 75 -23 34 -56 76 -74 94 -18 18 -47 54
-65 80 -18 26 -43 59 -56 72 -13 13 -23 28 -23 33 0 13 -78 128 -107 157 -13
13 -23 28 -23 33 0 6 -29 52 -65 104 -36 52 -65 98 -65 104 0 5 -29 54 -65
109 -36 55 -65 105 -65 110 0 5 -20 42 -45 82 -25 40 -45 78 -45 84 0 9 -26
68 -54 120 -45 87 -76 151 -76 160 0 6 -9 28 -20 50 -11 22 -20 45 -20 53 0 7
-11 30 -25 50 -14 20 -25 44 -25 54 0 9 -4 19 -9 22 -5 3 -15 30 -21 58 -7 29
-16 58 -21 63 -4 6 -13 33 -20 60 -7 28 -20 61 -29 75 -10 14 -21 41 -25 60
-4 19 -11 40 -15 45 -3 6 -12 37 -20 70 -7 32 -16 66 -20 75 -4 8 -13 44 -20
79 -6 35 -17 73 -24 85 -8 11 -19 49 -26 84 -7 34 -17 65 -21 68 -5 3 -9 23
-9 45 0 45 -18 129 -31 143 -5 6 -9 39 -9 74 0 70 -16 146 -37 177 -8 12 -13
48 -13 93 0 73 -15 159 -31 176 -5 6 -9 117 -9 249 0 224 -8 316 -31 342 -12
12 -12 138 0 151 23 25 31 117 31 341 0 132 4 243 9 249 16 18 31 103 31 181
0 49 5 86 13 98 21 31 37 107 37 177 0 35 4 68 9 74 13 14 31 98 31 143 0 22
4 42 9 45 4 3 14 34 21 68 7 35 18 72 25 83 7 11 18 47 25 80 6 33 15 67 20
75 4 9 13 43 20 75 8 33 17 65 20 70 4 6 11 26 15 45 4 19 15 46 25 60 9 14
22 47 29 75 7 27 16 54 20 60 5 5 14 34 21 63 6 28 16 55 21 58 5 3 9 13 9 22
0 10 11 33 24 52 13 19 27 51 31 70 4 19 13 46 20 60 7 14 26 54 44 90 17 36
37 76 44 90 28 51 57 115 57 125 0 6 20 44 45 84 25 40 45 77 45 82 0 5 15 33
34 62 19 29 43 69 54 89 40 71 48 84 110 174 34 50 62 98 62 107 0 8 11 25 23
38 13 13 48 60 77 104 30 44 59 85 65 90 7 6 27 32 44 58 18 26 47 62 65 80
18 18 51 60 74 94 23 34 51 68 63 77 12 8 39 38 61 67 22 30 59 74 83 99 23
25 73 78 111 119 82 88 113 119 145 147 13 11 38 36 54 55 33 37 81 80 160
144 57 46 119 100 149 131 12 11 56 44 98 73 42 29 79 59 82 67 3 7 38 35 78
60 40 26 93 63 118 83 25 21 86 63 136 94 51 32 97 64 104 72 7 8 20 15 29 15
9 0 43 20 75 45 32 24 80 54 105 66 53 25 71 35 126 64 23 12 50 27 60 32 24
12 55 29 110 59 108 59 133 72 156 79 30 8 123 51 214 98 17 8 50 20 75 27 25
6 63 20 85 30 90 43 132 60 146 60 8 0 26 6 40 14 14 7 50 19 80 26 30 7 59
16 64 21 6 4 33 13 60 20 28 6 55 15 60 19 6 4 46 15 90 25 44 9 85 21 90 25
6 4 36 14 68 21 32 7 60 16 63 21 3 4 20 8 37 8 18 0 73 9 122 19 50 11 129
28 178 37 48 9 90 21 93 25 3 5 40 9 82 9 44 0 109 9 152 20 57 15 109 20 215
20 77 0 160 5 185 11 122 29 475 31 640 3z"/>
</g>
</svg>
