<?xml version="1.0" standalone="no"?>
<!DOCTYPE svg PUBLIC "-//W3C//DTD SVG 20010904//EN"
 "http://www.w3.org/TR/2001/REC-SVG-20010904/DTD/svg10.dtd">
<svg version="1.0" xmlns="http://www.w3.org/2000/svg"
 width="2000.000000pt" height="2000.000000pt" viewBox="0 0 2000.000000 2000.000000"
 preserveAspectRatio="xMidYMid meet">

<g transform="translate(0.000000,2000.000000) scale(0.100000,-0.100000)"
fill="#000000" stroke="none">
<path d="M7470 19760 c-219 -6 -266 -10 -335 -29 -44 -13 -105 -27 -135 -31
-30 -5 -93 -18 -140 -29 -47 -12 -99 -21 -117 -21 -17 0 -105 -17 -195 -39
-90 -21 -217 -50 -283 -65 -66 -15 -136 -34 -155 -41 -19 -8 -53 -19 -75 -25
-143 -35 -228 -60 -238 -68 -7 -5 -29 -13 -51 -16 -21 -4 -55 -16 -75 -27 -20
-10 -45 -19 -56 -19 -11 0 -40 -9 -64 -20 -24 -11 -50 -20 -59 -20 -15 0 -45
-12 -157 -64 -54 -25 -130 -52 -183 -66 -18 -4 -39 -13 -46 -19 -20 -17 -134
-71 -149 -71 -6 0 -37 -12 -67 -26 -30 -15 -93 -44 -140 -66 -91 -43 -101 -48
-230 -116 -47 -24 -98 -51 -115 -60 -16 -8 -43 -25 -60 -37 -16 -12 -52 -34
-80 -49 -114 -64 -141 -79 -170 -94 -16 -9 -80 -51 -142 -94 -62 -43 -116 -78
-120 -78 -14 0 -396 -268 -449 -315 -29 -25 -85 -68 -125 -96 -41 -28 -81 -59
-89 -68 -8 -9 -58 -50 -110 -91 -52 -40 -120 -97 -150 -126 -57 -53 -138 -129
-257 -237 -37 -34 -92 -88 -123 -120 -30 -32 -99 -104 -153 -159 -54 -55 -116
-124 -138 -154 -22 -30 -43 -54 -48 -54 -4 0 -29 -26 -54 -57 -25 -32 -60 -74
-79 -93 -18 -20 -44 -52 -58 -73 -14 -20 -28 -37 -31 -37 -4 0 -47 -52 -95
-116 -220 -288 -492 -683 -563 -819 -21 -38 -51 -90 -69 -114 -18 -24 -32 -49
-32 -54 0 -6 -29 -59 -65 -118 -36 -60 -65 -114 -65 -121 0 -7 -9 -26 -20 -43
-11 -16 -20 -36 -20 -44 0 -8 -20 -47 -45 -87 -25 -39 -45 -77 -45 -83 0 -7
-10 -31 -22 -54 -26 -50 -37 -72 -56 -112 -8 -16 -23 -47 -33 -67 -11 -20 -19
-45 -19 -55 0 -10 -9 -31 -20 -48 -11 -16 -20 -38 -20 -48 0 -10 -11 -35 -25
-55 -14 -20 -25 -46 -25 -57 0 -11 -9 -37 -20 -58 -11 -20 -20 -45 -20 -55 0
-9 -9 -34 -20 -55 -11 -20 -20 -45 -20 -54 0 -10 -11 -36 -25 -58 -13 -22 -25
-49 -25 -60 -1 -11 -8 -38 -16 -60 -16 -42 -48 -152 -64 -220 -5 -22 -19 -58
-29 -80 -11 -22 -39 -119 -61 -215 -23 -96 -50 -209 -61 -250 -52 -198 -69
-274 -69 -303 0 -18 -9 -66 -20 -107 -11 -41 -20 -102 -20 -135 0 -33 -7 -85
-16 -115 -56 -192 -56 -2228 0 -2420 9 -30 16 -80 16 -110 0 -30 9 -89 20
-130 11 -41 20 -92 20 -112 0 -34 16 -105 69 -308 11 -41 38 -154 61 -250 22
-96 50 -193 61 -215 10 -22 24 -58 29 -80 16 -68 48 -178 64 -220 8 -22 15
-49 16 -60 0 -11 12 -38 25 -60 14 -22 25 -48 25 -58 0 -9 9 -34 20 -54 11
-21 20 -46 20 -55 0 -10 9 -35 20 -55 11 -21 20 -47 20 -58 0 -11 11 -37 25
-57 14 -20 25 -45 25 -55 0 -10 9 -31 20 -48 11 -16 20 -38 20 -48 0 -10 8
-35 19 -55 10 -20 25 -50 33 -67 19 -40 30 -62 56 -112 12 -23 22 -47 22 -54
0 -6 20 -44 45 -83 25 -40 45 -79 45 -87 0 -8 9 -27 20 -44 11 -16 20 -37 20
-46 0 -9 17 -40 38 -70 21 -30 54 -85 72 -124 18 -38 44 -85 58 -103 13 -19
40 -64 59 -100 80 -156 529 -798 631 -903 13 -13 44 -52 68 -86 25 -34 48 -63
52 -65 4 -2 30 -30 57 -63 53 -64 81 -94 197 -217 40 -42 100 -107 133 -144
67 -76 106 -115 224 -224 45 -41 103 -95 129 -120 87 -80 126 -115 177 -155
28 -22 51 -43 53 -47 2 -4 32 -28 68 -53 35 -25 64 -50 64 -55 0 -5 42 -38 94
-74 51 -36 106 -78 122 -94 28 -28 376 -274 479 -339 245 -154 324 -203 328
-203 6 0 75 -41 162 -95 73 -45 102 -61 175 -96 74 -35 157 -77 248 -126 35
-18 68 -33 74 -33 16 0 219 -91 250 -112 15 -11 49 -25 75 -32 64 -18 112 -35
147 -53 45 -22 256 -98 312 -112 16 -5 41 -15 55 -24 13 -8 42 -19 64 -23 22
-3 51 -12 65 -19 14 -7 52 -18 85 -25 33 -7 71 -18 85 -24 14 -7 52 -18 85
-26 33 -7 67 -16 75 -20 24 -13 571 -140 601 -140 15 0 74 -11 131 -25 57 -14
124 -25 150 -25 26 0 84 -9 130 -20 54 -13 118 -20 181 -20 69 0 123 -7 180
-22 80 -21 97 -21 782 -21 688 -1 701 0 782 21 57 16 111 22 180 22 63 0 127
7 181 20 46 11 102 20 125 20 23 0 71 7 107 15 36 8 92 19 125 25 277 52 770
175 930 231 17 6 63 19 103 29 41 11 79 24 87 30 7 6 35 17 61 24 62 17 108
34 162 57 23 11 50 19 60 19 9 0 35 11 57 25 22 13 49 25 60 25 12 0 38 9 60
20 22 11 46 20 55 20 8 0 32 11 52 25 20 14 41 25 46 25 5 0 36 11 68 26 195
84 320 143 427 202 31 18 63 32 69 32 6 0 49 25 95 56 47 30 101 62 121 71 20
8 72 38 116 67 91 59 172 107 198 118 10 4 68 43 130 86 62 43 158 109 213
145 55 37 117 82 137 99 l38 31 84 -84 c47 -46 90 -88 96 -94 6 -5 48 -48 94
-95 45 -47 96 -97 112 -111 16 -14 45 -43 64 -65 19 -21 49 -51 65 -65 17 -14
46 -44 65 -65 19 -22 49 -51 65 -65 17 -14 46 -44 65 -65 19 -22 49 -51 65
-65 17 -14 46 -44 65 -65 19 -22 49 -51 65 -65 17 -14 46 -44 65 -65 19 -22
49 -51 65 -65 17 -14 46 -44 65 -65 19 -22 48 -50 63 -64 15 -14 74 -72 131
-130 56 -58 136 -137 177 -176 41 -39 90 -88 109 -110 20 -21 49 -51 65 -65
17 -14 46 -43 65 -65 19 -21 49 -51 65 -65 17 -14 46 -44 65 -65 19 -22 49
-51 65 -65 17 -14 46 -44 65 -65 19 -22 49 -51 65 -65 17 -14 46 -44 65 -65
19 -22 49 -51 65 -65 17 -14 46 -44 65 -65 19 -22 49 -51 65 -65 17 -14 46
-44 65 -65 19 -22 48 -50 63 -64 15 -14 94 -92 176 -175 81 -82 161 -162 177
-176 16 -14 45 -43 64 -65 19 -21 49 -51 65 -65 17 -14 46 -44 65 -65 19 -22
49 -51 65 -65 17 -14 46 -44 65 -65 19 -22 49 -51 65 -65 17 -14 46 -44 65
-65 19 -22 49 -51 65 -65 17 -14 46 -44 65 -65 19 -22 49 -51 65 -65 17 -14
46 -44 65 -65 19 -22 48 -50 63 -64 15 -14 94 -92 175 -175 82 -82 162 -162
178 -176 16 -14 45 -44 64 -65 19 -22 49 -51 65 -65 17 -14 46 -44 65 -65 19
-22 49 -51 65 -65 17 -14 46 -44 65 -65 19 -22 49 -51 65 -65 17 -14 46 -44
65 -65 19 -22 49 -51 65 -65 17 -14 46 -44 65 -65 19 -22 49 -51 65 -66 17
-14 64 -62 105 -105 41 -43 97 -96 125 -118 27 -21 57 -47 65 -56 8 -10 59
-47 113 -84 86 -58 111 -70 200 -92 99 -26 111 -26 417 -26 305 0 318 1 416
25 90 23 113 34 206 97 58 40 124 89 148 111 24 22 65 58 91 81 26 23 69 73
95 113 26 39 65 97 87 130 22 32 45 81 52 110 7 28 25 97 39 154 24 96 26 120
26 322 l0 220 -39 159 -39 159 -83 119 c-62 89 -125 161 -258 294 -97 96 -192
193 -212 215 -44 48 -111 116 -163 163 -21 20 -51 49 -65 66 -14 16 -43 46
-65 65 -21 19 -51 48 -65 65 -14 16 -43 46 -65 65 -21 19 -51 48 -65 65 -14
16 -43 46 -64 65 -50 45 -401 396 -447 446 -20 22 -49 51 -65 65 -17 14 -46
43 -66 65 -44 48 -111 115 -163 163 -21 20 -51 49 -65 66 -14 16 -43 46 -65
65 -21 19 -51 48 -65 65 -14 16 -43 46 -65 65 -21 19 -51 48 -65 65 -14 16
-43 46 -65 65 -46 43 -917 912 -967 966 -46 50 -114 118 -163 163 -21 20 -51
49 -65 66 -14 16 -43 46 -64 65 -47 43 -658 652 -708 706 -20 22 -49 50 -65
64 -16 14 -45 44 -64 65 -19 22 -49 52 -65 66 -17 14 -46 44 -66 65 -44 48
-112 116 -163 163 -21 20 -107 105 -192 189 l-153 154 52 69 c101 136 258 365
294 429 20 36 51 85 68 110 18 25 51 80 73 122 22 42 51 92 64 110 14 18 40
65 58 103 19 39 51 97 72 131 21 34 38 67 38 75 0 8 9 28 20 44 11 17 20 36
20 44 0 8 20 47 45 87 25 39 45 80 45 90 0 11 9 33 20 49 11 17 20 38 20 47 0
17 47 111 76 153 8 11 14 29 14 40 0 11 8 36 19 55 10 19 21 51 25 70 3 20 23
70 45 111 21 41 41 93 45 114 4 22 14 52 22 67 8 15 14 36 14 46 0 10 11 40
25 66 14 26 25 55 25 64 1 9 8 35 16 57 15 40 42 135 71 255 8 36 19 70 24 76
11 13 99 364 99 393 0 10 20 103 45 205 26 107 45 211 45 244 0 31 9 91 20
132 13 51 20 109 20 180 0 71 7 129 20 180 19 71 20 112 20 835 0 723 -1 764
-20 835 -13 51 -20 109 -20 180 0 71 -7 129 -20 180 -11 41 -20 96 -20 122 0
25 -11 93 -24 150 -13 57 -34 150 -46 208 -58 274 -102 458 -115 483 -8 16
-31 92 -50 169 -19 77 -39 145 -44 152 -5 6 -12 29 -16 51 -4 22 -16 54 -26
70 -10 17 -23 48 -28 70 -34 129 -51 179 -89 256 -23 48 -42 95 -42 105 0 11
-6 29 -14 40 -8 11 -17 38 -21 60 -4 21 -17 55 -29 74 -11 19 -32 58 -45 85
-13 28 -32 67 -42 87 -11 20 -19 45 -19 55 0 10 -9 32 -20 48 -11 17 -32 55
-46 85 -14 30 -36 75 -47 100 -12 25 -41 77 -64 116 -24 39 -43 76 -43 82 0
16 -63 135 -93 174 -14 18 -43 67 -65 108 -43 82 -83 144 -291 450 -129 189
-233 331 -297 405 -14 16 -50 64 -81 107 -30 43 -58 78 -61 78 -4 0 -34 34
-66 75 -32 41 -62 75 -65 75 -4 0 -25 23 -46 52 -22 29 -65 77 -95 108 -30 31
-91 96 -135 144 -101 111 -108 118 -189 193 -37 34 -95 88 -129 120 -35 32
-91 83 -126 113 -34 30 -84 75 -110 100 -26 25 -81 70 -122 100 -40 30 -87 69
-104 86 -16 17 -61 53 -100 80 -38 27 -74 54 -80 61 -5 7 -47 39 -91 70 -267
189 -347 245 -361 250 -9 4 -58 34 -109 67 -167 110 -218 141 -289 176 -38 20
-90 50 -114 68 -24 18 -48 32 -53 32 -5 0 -26 11 -46 25 -20 14 -43 25 -51 25
-8 0 -47 20 -87 45 -39 25 -77 45 -83 45 -7 0 -31 10 -54 22 -49 25 -72 37
-107 54 -14 6 -44 21 -66 33 -23 12 -49 21 -58 21 -14 0 -65 23 -161 72 -28
15 -43 20 -127 49 -18 6 -54 22 -81 35 -26 13 -54 24 -62 24 -9 0 -26 6 -38
14 -12 8 -38 17 -57 21 -19 4 -49 16 -66 26 -17 10 -40 19 -50 19 -11 1 -37 8
-59 16 -50 20 -149 50 -240 74 -38 10 -83 23 -100 29 -92 32 -200 60 -632 162
-45 10 -96 19 -114 19 -17 0 -59 7 -93 16 -33 9 -92 22 -131 29 -38 8 -117 25
-175 40 l-105 26 -810 3 c-445 2 -925 0 -1065 -4z m1130 -2346 c41 -8 136 -14
210 -14 91 0 153 -5 190 -16 30 -8 93 -19 140 -23 47 -4 130 -17 185 -29 55
-11 125 -25 155 -31 113 -20 256 -53 274 -63 11 -6 42 -16 70 -23 28 -7 65
-18 81 -24 56 -19 130 -42 180 -55 28 -7 61 -19 75 -28 14 -9 41 -18 60 -22
34 -6 68 -19 142 -57 20 -11 45 -19 55 -19 18 0 63 -20 206 -91 43 -21 86 -39
94 -39 8 0 77 -32 152 -71 326 -171 377 -199 435 -241 21 -15 43 -28 47 -28
11 0 334 -225 404 -282 28 -22 82 -64 120 -93 39 -29 88 -70 110 -90 75 -70
110 -100 158 -139 26 -21 87 -77 136 -124 48 -48 101 -99 117 -114 40 -36 164
-172 183 -201 9 -13 36 -43 61 -68 60 -59 119 -130 175 -209 25 -36 51 -69 58
-75 23 -17 377 -543 377 -560 0 -4 29 -57 65 -116 36 -59 65 -112 65 -117 0
-13 56 -120 98 -188 18 -28 32 -59 32 -68 0 -9 8 -34 19 -54 10 -20 25 -50 33
-67 8 -16 19 -39 25 -50 26 -51 43 -92 48 -120 4 -16 24 -66 46 -110 21 -44
43 -98 48 -120 29 -115 51 -186 65 -207 8 -13 19 -41 25 -63 6 -22 28 -112 50
-200 22 -88 49 -191 61 -230 11 -38 20 -90 20 -115 0 -25 9 -79 20 -120 11
-41 20 -107 20 -147 0 -42 10 -115 25 -175 22 -89 25 -126 25 -273 0 -136 4
-185 20 -245 11 -41 20 -104 20 -140 0 -36 -9 -99 -20 -140 -16 -60 -20 -109
-20 -240 0 -141 -4 -180 -25 -268 -15 -64 -25 -133 -25 -180 0 -42 -7 -102
-16 -132 -8 -30 -19 -93 -23 -140 -5 -47 -17 -105 -26 -130 -9 -25 -27 -92
-41 -150 -14 -58 -32 -132 -40 -165 -8 -33 -20 -78 -25 -100 -6 -22 -17 -50
-25 -63 -14 -21 -34 -86 -65 -207 -5 -22 -27 -76 -49 -120 -21 -44 -41 -93
-45 -110 -5 -28 -22 -69 -48 -120 -16 -31 -33 -66 -55 -115 -22 -51 -69 -145
-119 -238 -18 -35 -33 -68 -33 -74 0 -5 -29 -58 -65 -117 -36 -59 -65 -112
-65 -116 0 -16 -357 -548 -371 -553 -5 -2 -34 -39 -65 -83 -30 -43 -59 -79
-63 -79 -5 0 -35 -34 -67 -75 -32 -41 -62 -75 -65 -75 -3 0 -28 -28 -55 -62
-57 -73 -347 -365 -419 -423 -28 -22 -66 -54 -85 -71 -114 -103 -143 -128
-225 -189 -101 -76 -469 -332 -558 -389 -32 -21 -86 -52 -120 -70 -34 -18
-100 -54 -147 -79 -80 -44 -164 -86 -255 -127 -39 -17 -157 -73 -265 -124 -30
-14 -63 -26 -73 -26 -10 0 -35 -8 -55 -19 -74 -38 -108 -51 -142 -57 -19 -4
-46 -13 -60 -22 -14 -9 -47 -21 -75 -28 -49 -13 -121 -35 -180 -55 -151 -53
-539 -139 -740 -164 -60 -8 -126 -20 -145 -26 -19 -7 -120 -15 -225 -20 -104
-4 -215 -13 -245 -19 -70 -14 -436 -14 -515 0 -33 6 -143 15 -245 19 -102 5
-201 13 -220 20 -19 6 -78 16 -130 22 -90 10 -183 27 -367 70 -45 10 -95 19
-110 19 -15 1 -46 8 -68 16 -36 14 -145 45 -260 75 -22 5 -58 19 -81 29 -22
11 -49 20 -60 20 -11 0 -35 8 -54 18 -19 11 -51 22 -70 25 -34 7 -68 21 -142
58 -20 11 -45 19 -55 19 -10 0 -43 12 -73 26 -30 14 -75 35 -100 46 -25 11
-62 29 -82 39 -20 11 -45 19 -55 19 -11 0 -23 4 -28 9 -11 9 -117 67 -252 137
-45 23 -92 49 -105 58 -12 9 -29 16 -37 16 -7 0 -57 29 -110 65 -53 36 -99 65
-103 65 -15 0 -365 243 -408 283 -14 13 -52 43 -85 67 -66 48 -164 128 -180
147 -5 7 -28 26 -50 43 -67 53 -146 123 -174 155 -14 16 -39 41 -55 55 -16 14
-45 43 -65 64 -20 22 -58 62 -86 90 -64 66 -154 168 -201 229 -20 26 -40 47
-44 47 -5 0 -30 30 -56 67 -26 38 -61 82 -78 99 -34 33 -353 495 -366 528 -4
12 -35 64 -69 116 -33 52 -61 98 -61 103 0 5 -20 42 -45 81 -25 40 -45 78 -45
85 0 7 -8 29 -19 49 -46 93 -55 110 -82 160 -16 29 -29 60 -29 70 0 9 -9 31
-20 47 -11 17 -20 39 -20 50 0 11 -11 37 -25 57 -14 20 -25 43 -25 50 0 8 -6
23 -14 34 -8 11 -17 38 -21 60 -4 21 -13 48 -20 59 -7 11 -15 36 -19 55 -4 19
-17 58 -30 85 -30 62 -47 117 -85 270 -16 66 -36 134 -45 151 -9 16 -20 61
-26 100 -5 38 -17 94 -25 124 -8 30 -15 74 -15 97 0 23 -11 88 -25 145 -14 57
-25 121 -25 143 0 22 -9 74 -20 115 -17 63 -20 108 -20 290 0 187 -3 227 -22
308 l-22 92 22 93 c19 80 22 120 22 307 0 182 3 227 20 290 11 41 20 95 20
120 0 25 11 91 25 148 14 57 25 121 25 143 0 22 9 77 19 122 11 45 25 109 31
142 7 33 16 65 22 72 5 6 17 44 27 85 11 40 28 107 40 148 12 41 25 89 30 107
5 17 18 47 29 65 11 18 23 51 27 72 3 21 12 48 20 60 7 12 16 39 20 60 4 22
13 49 21 60 8 11 14 26 14 34 0 7 11 30 25 50 14 20 25 45 25 56 0 23 24 77
115 256 48 95 55 110 55 121 0 7 20 45 45 85 25 39 45 75 45 79 0 16 160 275
303 490 65 96 191 265 198 265 4 0 33 36 64 80 31 44 60 80 64 80 5 0 28 26
52 58 23 31 59 73 78 93 20 20 72 76 116 124 85 93 106 115 152 155 15 14 40
39 54 55 28 32 107 102 174 155 22 17 45 36 50 43 17 20 116 101 192 156 39
28 73 55 75 60 5 14 392 281 406 281 4 0 49 29 101 65 52 36 102 65 111 65 8
0 26 7 38 16 13 9 60 35 105 58 45 24 103 55 130 69 113 63 141 77 154 77 8 0
31 9 51 19 105 54 210 101 237 106 17 3 50 15 75 27 116 54 188 80 278 103 29
7 58 18 65 23 7 5 32 15 57 21 66 16 218 58 270 74 62 20 230 57 257 57 12 0
68 11 125 25 57 14 126 25 153 25 28 0 84 9 125 20 57 15 109 20 215 20 77 0
160 5 185 11 122 29 491 31 640 3z"/>
</g>
</svg>
