<svg xmlns="http://www.w3.org/2000/svg" width="2000" height="2000" viewBox="0 0 2000 2000" version="1.1"><path d="" stroke="none" fill="#080404" fill-rule="evenodd"/><path d="M 798 35.886 C 798 36.374, 796.012 37.071, 793.582 37.435 C 791.152 37.800, 788.622 38.751, 787.959 39.549 C 787.297 40.347, 786.023 41.010, 785.128 41.022 C 784.232 41.034, 782.375 41.924, 781 43 C 779.625 44.076, 778.100 44.966, 777.611 44.978 C 776.036 45.017, 763.275 55.958, 759.745 60.295 C 754.187 67.125, 749 74.878, 749 76.355 C 749 77.111, 748.100 78.874, 747 80.273 C 745.900 81.671, 745 83.984, 745 85.411 C 745 86.839, 744.100 89.686, 743 91.739 C 741.004 95.463, 741 97.381, 741 1000 C 741 1902.619, 741.004 1904.537, 743 1908.261 C 744.100 1910.314, 745 1913.161, 745 1914.589 C 745 1916.016, 745.900 1918.329, 747 1919.727 C 748.100 1921.126, 749 1922.870, 749 1923.603 C 749 1926.055, 757.424 1937.411, 764.344 1944.288 C 768.108 1948.029, 773.621 1952.462, 776.594 1954.140 C 779.567 1955.818, 782.252 1957.598, 782.559 1958.095 C 782.866 1958.593, 783.936 1959, 784.937 1959 C 785.937 1959, 787.297 1959.653, 787.959 1960.451 C 788.622 1961.249, 791.152 1962.200, 793.582 1962.565 C 796.012 1962.929, 798 1963.626, 798 1964.114 C 798 1964.601, 807.225 1965, 818.500 1965 C 831.500 1965, 839 1964.634, 839 1964 C 839 1963.450, 840.013 1962.994, 841.250 1962.987 C 842.487 1962.980, 846.200 1961.573, 849.500 1959.859 C 852.800 1958.145, 856.850 1956.043, 858.500 1955.188 C 860.150 1954.333, 861.950 1953.115, 862.500 1952.481 C 863.050 1951.848, 865.712 1949.568, 868.416 1947.415 C 872.550 1944.123, 875.699 1940.669, 883.985 1930.336 C 884.499 1929.695, 885.220 1927.971, 885.588 1926.505 C 885.956 1925.038, 886.874 1923.602, 887.629 1923.312 C 888.383 1923.023, 889 1922.096, 889 1921.253 C 889 1920.409, 889.841 1917.870, 890.868 1915.610 C 891.896 1913.349, 893.696 1906.550, 894.870 1900.500 L 897.002 1889.500 896.994 999.500 C 896.986 114.005, 896.976 109.458, 894.993 101.187 C 893.897 96.614, 893 91.775, 893 90.433 C 893 89.091, 892.100 86.314, 891 84.261 C 889.900 82.209, 889 79.784, 889 78.872 C 889 77.960, 888.383 76.977, 887.629 76.688 C 886.874 76.398, 885.956 74.962, 885.588 73.495 C 885.220 72.029, 884.499 70.305, 883.985 69.664 C 875.699 59.331, 872.550 55.877, 868.416 52.585 C 865.712 50.432, 863.050 48.152, 862.500 47.519 C 861.950 46.885, 860.150 45.667, 858.500 44.812 C 856.850 43.957, 852.800 41.855, 849.500 40.141 C 846.200 38.427, 842.487 37.020, 841.250 37.013 C 840.013 37.006, 839 36.550, 839 36 C 839 35.366, 831.500 35, 818.500 35 C 807.225 35, 798 35.399, 798 35.886 M 444 339.546 C 431.572 341.388, 416.335 347.604, 411 353.006 C 410.725 353.285, 408.475 355.039, 406 356.905 C 400.148 361.317, 390.112 373.921, 388.561 378.807 C 388.210 379.914, 387.265 381.365, 386.461 382.032 C 385.658 382.699, 385 383.984, 385 384.887 C 385 385.791, 384.100 388.209, 383 390.261 C 381.900 392.314, 380.995 395.232, 380.988 396.746 C 380.982 398.261, 380.312 401.975, 379.500 405 C 378.206 409.820, 378.024 483.363, 378.024 1000 C 378.024 1516.637, 378.206 1590.180, 379.500 1595 C 380.312 1598.025, 380.982 1601.739, 380.988 1603.254 C 380.995 1604.768, 381.900 1607.686, 383 1609.739 C 384.100 1611.791, 385 1614.209, 385 1615.113 C 385 1616.016, 385.658 1617.301, 386.461 1617.968 C 387.265 1618.635, 388.210 1620.086, 388.561 1621.193 C 390.112 1626.079, 400.148 1638.683, 406 1643.095 C 408.475 1644.961, 410.725 1646.715, 411 1646.994 C 411.275 1647.272, 412.850 1648.429, 414.500 1649.564 C 427.447 1658.473, 447.373 1662.902, 465.500 1660.899 C 474.318 1659.925, 483.440 1657.500, 488 1654.917 C 488.825 1654.450, 491.975 1652.765, 495 1651.173 C 504.904 1645.962, 520.405 1630.749, 522.433 1624.250 C 522.819 1623.012, 523.519 1622, 523.988 1622 C 524.457 1622, 525.131 1620.681, 525.485 1619.069 C 525.839 1617.457, 526.775 1615.602, 527.564 1614.947 C 528.354 1614.291, 529 1612.566, 529 1611.113 C 529 1609.659, 530.013 1606.677, 531.250 1604.485 L 533.500 1600.500 533.500 1000 L 533.500 399.500 531.250 395.515 C 530.013 393.323, 529 390.341, 529 388.887 C 529 387.434, 528.354 385.709, 527.564 385.053 C 526.775 384.398, 525.839 382.543, 525.485 380.931 C 525.131 379.319, 524.457 378, 523.988 378 C 523.519 378, 522.819 376.988, 522.433 375.750 C 520.434 369.345, 504.852 353.979, 495.541 349.230 C 492.769 347.815, 489.909 346.206, 489.186 345.654 C 486.285 343.435, 476.965 340.780, 467.500 339.474 C 455.894 337.874, 455.260 337.876, 444 339.546 M 1176 474.667 C 1168.268 476.017, 1154.701 479.146, 1153.220 479.921 C 1152.274 480.417, 1148.800 482.088, 1145.500 483.635 C 1140.136 486.149, 1134.534 489.668, 1131.389 492.500 C 1130.779 493.050, 1128.925 494.688, 1127.271 496.140 C 1122.643 500.203, 1113 512.521, 1113 514.370 C 1113 515.277, 1112.100 516.790, 1111 517.732 C 1109.900 518.674, 1108.997 520.357, 1108.993 521.472 C 1108.990 522.588, 1108.093 524.850, 1107 526.500 C 1105.907 528.150, 1105.010 530.785, 1105.007 532.356 C 1105.003 533.926, 1104.213 537.976, 1103.250 541.356 C 1101.595 547.167, 1101.500 572.055, 1101.500 1000 C 1101.500 1427.945, 1101.595 1452.833, 1103.250 1458.644 C 1104.213 1462.024, 1105.003 1466.074, 1105.007 1467.644 C 1105.010 1469.215, 1105.907 1471.850, 1107 1473.500 C 1108.093 1475.150, 1108.990 1477.412, 1108.993 1478.528 C 1108.997 1479.643, 1109.900 1481.326, 1111 1482.268 C 1112.100 1483.210, 1113 1484.723, 1113 1485.630 C 1113 1487.479, 1122.643 1499.797, 1127.271 1503.860 C 1128.925 1505.312, 1130.779 1506.950, 1131.389 1507.500 C 1134.534 1510.332, 1140.136 1513.851, 1145.500 1516.365 C 1148.800 1517.912, 1152.274 1519.583, 1153.220 1520.079 C 1156.480 1521.786, 1174.512 1525.277, 1180 1525.263 C 1186.229 1525.248, 1200.987 1522.524, 1205.500 1520.556 C 1227.627 1510.910, 1241.564 1498.561, 1249.015 1482.002 C 1249.633 1480.628, 1250.724 1478.828, 1251.438 1478.002 C 1252.153 1477.176, 1252.983 1474.553, 1253.284 1472.172 C 1253.584 1469.792, 1254.544 1467.057, 1255.415 1466.094 C 1256.857 1464.501, 1257 1422.382, 1257 1000 C 1257 577.618, 1256.857 535.499, 1255.415 533.906 C 1254.544 532.943, 1253.584 530.208, 1253.284 527.828 C 1252.983 525.447, 1252.153 522.824, 1251.438 521.998 C 1250.724 521.172, 1249.633 519.372, 1249.015 517.998 C 1244.451 507.855, 1238.755 501.010, 1227 491.543 C 1221.266 486.924, 1216.475 484.228, 1205.500 479.444 C 1200.001 477.047, 1180.479 473.886, 1176 474.667 M 84.500 558.080 C 78.960 558.438, 74.347 559.300, 72.500 560.324 C 70.850 561.239, 68.600 562.020, 67.500 562.060 C 66.400 562.100, 63.250 563.442, 60.500 565.042 C 57.750 566.641, 54.150 568.577, 52.500 569.342 C 50.850 570.107, 45.675 574.592, 41 579.307 C 30.325 590.075, 29 591.642, 29 593.510 C 29 594.340, 28.100 595.790, 27 596.732 C 25.900 597.674, 25 599.184, 25 600.087 C 25 600.991, 23.988 603.017, 22.750 604.591 L 20.500 607.451 20.500 1000 L 20.500 1392.549 22.750 1395.409 C 23.987 1396.983, 25 1399.009, 25 1399.913 C 25 1400.816, 25.900 1402.326, 27 1403.268 C 28.100 1404.210, 29 1405.660, 29 1406.490 C 29 1408.358, 30.325 1409.925, 41 1420.693 C 45.675 1425.408, 50.850 1429.893, 52.500 1430.658 C 54.150 1431.423, 57.750 1433.359, 60.500 1434.958 C 63.250 1436.558, 66.312 1437.897, 67.305 1437.934 C 68.298 1437.970, 71.117 1438.915, 73.571 1440.033 C 77.478 1441.812, 80.064 1442.064, 94.356 1442.056 C 108.533 1442.047, 111.258 1441.783, 115.089 1440.045 C 117.515 1438.944, 120.452 1438.034, 121.615 1438.022 C 122.778 1438.010, 124.874 1437.100, 126.273 1436 C 127.671 1434.900, 129.293 1434, 129.876 1434 C 133.265 1434, 152.081 1418.264, 156 1412.153 C 156.825 1410.866, 158.512 1408.418, 159.750 1406.712 C 160.987 1405.007, 162 1403.079, 162 1402.428 C 162 1401.777, 162.646 1400.709, 163.436 1400.053 C 164.225 1399.398, 165.177 1397.430, 165.551 1395.681 C 165.925 1393.931, 166.721 1391.893, 167.321 1391.150 C 167.920 1390.408, 169.419 1385.008, 170.651 1379.150 L 172.891 1368.500 172.891 1000 L 172.891 631.500 170.651 620.850 C 169.419 614.992, 167.920 609.592, 167.321 608.850 C 166.721 608.107, 165.925 606.069, 165.551 604.319 C 165.177 602.570, 164.225 600.602, 163.436 599.947 C 162.646 599.291, 162 598.223, 162 597.572 C 162 596.921, 160.987 594.993, 159.750 593.288 C 158.512 591.582, 156.825 589.134, 156 587.847 C 152.081 581.736, 133.265 566, 129.876 566 C 129.293 566, 127.671 565.100, 126.273 564 C 124.874 562.900, 122.877 562, 121.833 562 C 120.790 562, 118.263 561.240, 116.218 560.310 C 111.758 558.283, 97.212 557.261, 84.500 558.080 M 1532 558.049 C 1526.888 558.378, 1522.224 559.275, 1520.300 560.299 C 1518.539 561.234, 1516.343 562, 1515.418 562 C 1514.494 562, 1510.093 563.913, 1505.638 566.250 C 1499.479 569.482, 1495.187 572.831, 1487.727 580.230 C 1482.330 585.581, 1477.252 591.431, 1476.443 593.230 C 1474.868 596.727, 1473.637 598.901, 1470.790 603.210 C 1469.806 604.700, 1468.997 607.175, 1468.993 608.710 C 1468.990 610.244, 1468.093 612.850, 1467 614.500 C 1465.026 617.480, 1465.013 620.019, 1465.013 1000 C 1465.013 1379.981, 1465.026 1382.520, 1467 1385.500 C 1468.093 1387.150, 1468.990 1389.756, 1468.993 1391.290 C 1468.997 1392.825, 1469.806 1395.300, 1470.790 1396.790 C 1473.637 1401.099, 1474.868 1403.273, 1476.443 1406.770 C 1477.252 1408.569, 1482.330 1414.419, 1487.727 1419.770 C 1495.187 1427.169, 1499.479 1430.518, 1505.638 1433.750 C 1510.093 1436.088, 1514.414 1438, 1515.242 1438 C 1516.069 1438, 1518.844 1438.928, 1521.408 1440.062 C 1525.483 1441.865, 1528.070 1442.123, 1541.975 1442.114 C 1555.872 1442.106, 1558.450 1441.845, 1562.386 1440.052 C 1564.863 1438.923, 1568.013 1438, 1569.386 1438 C 1570.759 1438, 1572.183 1437.513, 1572.551 1436.917 C 1572.919 1436.322, 1575.083 1434.956, 1577.360 1433.883 C 1582.247 1431.580, 1585.029 1429.962, 1587.037 1428.257 C 1587.842 1427.573, 1590.465 1425.428, 1592.867 1423.489 C 1595.268 1421.550, 1599.427 1417.159, 1602.109 1413.732 C 1604.791 1410.304, 1607.383 1407.015, 1607.870 1406.423 C 1608.357 1405.831, 1609.089 1404.256, 1609.496 1402.923 C 1609.903 1401.590, 1610.801 1399.825, 1611.492 1399 C 1612.182 1398.175, 1613.287 1395.819, 1613.947 1393.764 C 1614.606 1391.709, 1615.563 1389.770, 1616.073 1389.455 C 1616.583 1389.140, 1617 1387.511, 1617 1385.835 C 1617 1384.160, 1617.787 1380.024, 1618.750 1376.644 C 1620.402 1370.842, 1620.500 1349.850, 1620.500 1000 C 1620.500 650.150, 1620.402 629.158, 1618.750 623.356 C 1617.787 619.976, 1617 615.840, 1617 614.165 C 1617 612.489, 1616.583 610.860, 1616.073 610.545 C 1615.563 610.230, 1614.606 608.291, 1613.947 606.236 C 1613.287 604.181, 1612.182 601.825, 1611.492 601 C 1610.801 600.175, 1609.903 598.410, 1609.496 597.077 C 1609.089 595.744, 1608.357 594.169, 1607.870 593.577 C 1607.383 592.985, 1604.791 589.696, 1602.109 586.268 C 1599.427 582.841, 1595.268 578.450, 1592.867 576.511 C 1590.465 574.572, 1587.842 572.427, 1587.037 571.743 C 1585.029 570.038, 1582.247 568.420, 1577.360 566.117 C 1575.083 565.044, 1572.919 563.678, 1572.551 563.083 C 1572.183 562.487, 1570.759 562, 1569.386 562 C 1568.013 562, 1565.002 561.151, 1562.695 560.114 C 1557.957 557.983, 1545.745 557.162, 1532 558.049 M 1894.500 799.893 C 1891.200 800.254, 1887.517 801.100, 1886.316 801.774 C 1885.114 802.449, 1883.124 803, 1881.892 803 C 1878.593 803, 1863.266 810.796, 1857.500 815.406 C 1852.372 819.507, 1846.046 825.878, 1842.500 830.513 C 1841.400 831.951, 1839.713 833.998, 1838.750 835.064 C 1837.787 836.129, 1837 837.614, 1837 838.365 C 1837 839.116, 1836.159 840.803, 1835.130 842.115 C 1834.102 843.427, 1832.948 845.931, 1832.566 847.681 C 1832.184 849.430, 1831.225 851.398, 1830.436 852.053 C 1829.646 852.709, 1829 854.683, 1829 856.441 C 1829 858.199, 1828.213 862.081, 1827.250 865.068 C 1825.620 870.127, 1825.500 879.402, 1825.500 1000 C 1825.500 1120.598, 1825.620 1129.873, 1827.250 1134.932 C 1828.213 1137.919, 1829 1141.801, 1829 1143.559 C 1829 1145.317, 1829.646 1147.291, 1830.436 1147.947 C 1831.225 1148.602, 1832.184 1150.570, 1832.566 1152.319 C 1832.948 1154.069, 1834.102 1156.573, 1835.130 1157.885 C 1836.159 1159.197, 1837 1160.884, 1837 1161.635 C 1837 1162.386, 1837.787 1163.871, 1838.750 1164.936 C 1839.713 1166.002, 1841.400 1168.049, 1842.500 1169.487 C 1846.046 1174.122, 1852.372 1180.493, 1857.500 1184.594 C 1863.253 1189.194, 1878.590 1197, 1881.876 1197 C 1883.099 1197, 1885.522 1197.736, 1887.261 1198.635 C 1891.589 1200.873, 1914.843 1200.990, 1920 1198.800 C 1921.925 1197.983, 1925.157 1197.004, 1927.182 1196.624 C 1932 1195.722, 1945.323 1188.742, 1950.915 1184.190 C 1962.301 1174.921, 1967.873 1168.005, 1973.329 1156.372 C 1974.136 1154.652, 1975.292 1152.938, 1975.898 1152.563 C 1976.504 1152.188, 1977 1150.439, 1977 1148.676 C 1977 1146.913, 1977.900 1143.791, 1979 1141.739 C 1980.972 1138.059, 1981 1136.097, 1981 1000 C 1981 863.903, 1980.972 861.941, 1979 858.261 C 1977.900 856.209, 1977 853.087, 1977 851.324 C 1977 849.561, 1976.504 847.812, 1975.898 847.437 C 1975.292 847.062, 1974.136 845.348, 1973.329 843.628 C 1967.873 831.995, 1962.301 825.079, 1950.915 815.810 C 1945.323 811.258, 1932 804.278, 1927.182 803.376 C 1925.157 802.996, 1922.150 802.134, 1920.500 801.460 C 1916.691 799.903, 1902.326 799.038, 1894.500 799.893" stroke="none" fill="#040404" fill-rule="evenodd"/></svg>