<svg xmlns="http://www.w3.org/2000/svg" width="2000" height="2000" viewBox="0 0 2000 2000" version="1.1"><path d="" stroke="none" fill="#080404" fill-rule="evenodd"/><path d="M 789.667 15.062 C 781.487 15.788, 780.340 16.173, 774.167 20.275 C 770.500 22.711, 764.800 26.405, 761.500 28.485 C 755.072 32.536, 739.830 47.610, 734.689 55 C 729.927 61.845, 725.966 69.897, 724.359 76 C 723.562 79.025, 722.368 83.300, 721.705 85.500 C 719.947 91.336, 719.947 1908.664, 721.705 1914.500 C 722.368 1916.700, 723.562 1920.975, 724.359 1924 C 725.966 1930.103, 729.927 1938.155, 734.689 1945 C 739.830 1952.390, 755.072 1967.464, 761.500 1971.515 C 764.800 1973.595, 770.467 1977.267, 774.094 1979.677 C 780.396 1983.863, 781.150 1984.099, 791.094 1984.995 C 804.816 1986.232, 833.096 1986.218, 845 1984.968 C 853.815 1984.043, 854.969 1983.655, 861 1979.589 C 864.575 1977.179, 868.653 1974.948, 870.062 1974.631 C 872.398 1974.107, 878.849 1969.094, 888 1960.693 C 897.810 1951.686, 911.967 1929.075, 913.508 1919.951 C 913.918 1917.527, 914.983 1914.429, 915.876 1913.066 C 917.372 1910.784, 917.500 1838.526, 917.500 1000 C 917.500 161.474, 917.372 89.216, 915.876 86.934 C 914.983 85.571, 913.918 82.473, 913.508 80.049 C 911.967 70.925, 897.810 48.314, 888 39.307 C 878.849 30.906, 872.398 25.893, 870.062 25.369 C 868.653 25.052, 864.575 22.821, 861 20.411 C 854.969 16.345, 853.815 15.957, 845 15.032 C 834.106 13.888, 802.707 13.906, 789.667 15.062 M 448 317.116 C 446.075 317.617, 440.271 318.465, 435.103 319.002 C 428.923 319.643, 424.538 320.665, 422.295 321.988 C 420.420 323.095, 418.269 324, 417.516 324 C 413.607 324, 395.736 335.303, 387.651 342.889 C 378.546 351.431, 365 370.308, 365 374.453 C 365 375.343, 364.360 377.067, 363.578 378.285 C 362.796 379.503, 361.830 382.750, 361.431 385.500 C 361.033 388.250, 359.985 391.605, 359.103 392.956 C 357.637 395.203, 357.500 446.971, 357.500 1000 C 357.500 1553.029, 357.637 1604.797, 359.103 1607.044 C 359.985 1608.395, 361.033 1611.750, 361.431 1614.500 C 361.830 1617.250, 362.796 1620.497, 363.578 1621.715 C 364.360 1622.933, 365 1624.657, 365 1625.547 C 365 1629.692, 378.546 1648.569, 387.651 1657.111 C 395.736 1664.697, 413.607 1676, 417.516 1676 C 418.269 1676, 420.427 1676.909, 422.310 1678.021 C 424.522 1679.326, 428.880 1680.367, 434.617 1680.963 C 439.503 1681.470, 446.520 1682.449, 450.212 1683.139 C 455.567 1684.140, 458.196 1684.143, 463.212 1683.154 C 466.670 1682.473, 473.377 1681.518, 478.115 1681.032 C 483.464 1680.483, 488.198 1679.362, 490.601 1678.074 C 492.729 1676.933, 495.328 1676, 496.377 1676 C 500.431 1676, 524.785 1658.746, 529.733 1652.369 C 531.255 1650.408, 534.103 1646.820, 536.061 1644.398 C 540.957 1638.343, 549 1624.637, 549 1622.350 C 549 1621.316, 549.970 1618.677, 551.155 1616.485 C 553.002 1613.069, 553.422 1610.073, 554.095 1595.500 C 555.120 1573.292, 555.120 426.708, 554.095 404.500 C 553.422 389.927, 553.002 386.931, 551.155 383.515 C 549.970 381.323, 549 378.684, 549 377.650 C 549 375.363, 540.957 361.657, 536.061 355.602 C 534.103 353.180, 531.255 349.592, 529.733 347.631 C 524.785 341.254, 500.431 324, 496.377 324 C 495.328 324, 492.729 323.067, 490.601 321.926 C 488.148 320.612, 483.575 319.548, 478.115 319.023 C 473.377 318.568, 467.700 317.712, 465.500 317.121 C 460.756 315.848, 452.880 315.846, 448 317.116 M 1163 454.627 C 1159.975 455.428, 1154.800 456.675, 1151.500 457.398 C 1148.200 458.121, 1144.150 459.449, 1142.500 460.350 C 1140.850 461.251, 1138.599 461.990, 1137.498 461.994 C 1136.396 461.997, 1131.361 464.705, 1126.309 468.011 C 1111.502 477.700, 1089.175 503.170, 1089.038 510.527 C 1089.017 511.643, 1088.238 513.643, 1087.307 514.973 C 1086.375 516.302, 1085.052 520.115, 1084.367 523.445 C 1083.681 526.775, 1082.531 531.525, 1081.810 534 C 1079.867 540.674, 1079.867 1459.326, 1081.810 1466 C 1082.531 1468.475, 1083.681 1473.225, 1084.367 1476.555 C 1085.052 1479.885, 1086.375 1483.698, 1087.307 1485.027 C 1088.238 1486.357, 1089.017 1488.357, 1089.038 1489.473 C 1089.175 1496.830, 1111.502 1522.300, 1126.309 1531.989 C 1131.361 1535.295, 1136.396 1538.003, 1137.498 1538.006 C 1138.599 1538.010, 1140.850 1538.749, 1142.500 1539.650 C 1144.150 1540.551, 1148.200 1541.876, 1151.500 1542.595 C 1154.800 1543.314, 1160.200 1544.592, 1163.500 1545.435 C 1171.921 1547.587, 1187.619 1547.431, 1197.500 1545.096 C 1201.900 1544.056, 1207.435 1542.891, 1209.800 1542.507 C 1215.609 1541.562, 1232.919 1532.638, 1241.508 1526.160 C 1251.759 1518.428, 1262.109 1506.089, 1270.311 1491.822 C 1271.790 1489.249, 1273 1486.317, 1273 1485.307 C 1273 1484.297, 1274.013 1481.677, 1275.250 1479.485 L 1277.500 1475.500 1277.500 1000 L 1277.500 524.500 1275.250 520.515 C 1274.013 518.323, 1273 515.703, 1273 514.693 C 1273 513.683, 1271.790 510.751, 1270.311 508.178 C 1262.109 493.911, 1251.759 481.572, 1241.508 473.840 C 1232.919 467.362, 1215.609 458.438, 1209.800 457.493 C 1207.435 457.109, 1201.900 455.944, 1197.500 454.904 C 1187.834 452.620, 1171.083 452.486, 1163 454.627 M 81.500 537.076 C 69.621 537.647, 61.646 539.146, 60.483 541.027 C 60.153 541.562, 58.896 542.002, 57.691 542.004 C 56.486 542.007, 50.959 544.507, 45.410 547.560 C 37.195 552.079, 33.318 555.089, 24.549 563.752 C 13.813 574.358, 5 585.865, 5 589.275 C 5 590.262, 4.372 592.067, 3.605 593.285 C 2.838 594.503, 1.713 598.462, 1.105 602.082 C -0.466 611.437, -0.466 1388.563, 1.105 1397.918 C 1.713 1401.538, 2.838 1405.497, 3.605 1406.715 C 4.372 1407.933, 5 1409.738, 5 1410.725 C 5 1414.135, 13.813 1425.642, 24.549 1436.248 C 33.318 1444.911, 37.195 1447.921, 45.410 1452.440 C 50.959 1455.493, 56.303 1457.993, 57.285 1457.996 C 58.267 1457.998, 60.067 1458.630, 61.285 1459.401 C 65.609 1462.135, 74.498 1463.078, 95.481 1463.029 C 115.778 1462.981, 122.697 1462.321, 125.278 1460.188 C 125.950 1459.633, 128.287 1458.845, 130.470 1458.437 C 140.036 1456.649, 163.737 1440.231, 170 1431.055 C 171.925 1428.234, 174.491 1424.666, 175.701 1423.127 C 180.415 1417.132, 188.788 1401.294, 189.503 1397.022 C 189.916 1394.559, 190.983 1391.429, 191.876 1390.066 C 193.367 1387.790, 193.500 1355.948, 193.500 1000 C 193.500 644.052, 193.367 612.210, 191.876 609.934 C 190.983 608.571, 189.916 605.441, 189.503 602.978 C 188.788 598.706, 180.415 582.868, 175.701 576.873 C 174.491 575.334, 171.925 571.766, 170 568.945 C 163.777 559.826, 140.050 543.358, 130.574 541.580 C 128.447 541.181, 125.630 540.149, 124.313 539.286 C 122.688 538.221, 118.801 537.594, 112.210 537.335 C 106.869 537.125, 100.475 536.851, 98 536.727 C 95.525 536.602, 88.100 536.759, 81.500 537.076 M 1527.961 537.038 C 1517.915 537.502, 1514.521 538.053, 1510.895 539.809 C 1508.405 541.014, 1505.804 542, 1505.114 542 C 1502.920 542, 1482.622 552.990, 1479.627 555.800 C 1478.044 557.285, 1472.643 563.041, 1467.625 568.592 C 1457.533 579.754, 1450.394 590.866, 1448.409 598.500 C 1447.694 601.250, 1446.410 605.961, 1445.555 608.968 C 1444.161 613.871, 1444 654.256, 1444 1000 C 1444 1345.744, 1444.161 1386.129, 1445.555 1391.032 C 1446.410 1394.039, 1447.694 1398.750, 1448.409 1401.500 C 1450.394 1409.134, 1457.533 1420.246, 1467.625 1431.408 C 1472.643 1436.959, 1478.044 1442.715, 1479.627 1444.200 C 1482.622 1447.010, 1502.920 1458, 1505.114 1458 C 1505.804 1458, 1508.374 1458.971, 1510.826 1460.158 C 1514.415 1461.895, 1517.837 1462.431, 1528.392 1462.908 C 1547.453 1463.769, 1567.754 1462.733, 1571.645 1460.700 C 1573.375 1459.797, 1576.604 1458.767, 1578.822 1458.412 C 1585.303 1457.376, 1607.174 1442.476, 1614.299 1434.243 C 1627.887 1418.541, 1636.057 1404.703, 1637.836 1394.374 C 1638.393 1391.143, 1639.445 1386.475, 1640.174 1384 C 1641.265 1380.297, 1641.500 1312.279, 1641.500 1000 C 1641.500 687.721, 1641.265 619.703, 1640.174 616 C 1639.445 613.525, 1638.393 608.857, 1637.836 605.626 C 1636.057 595.297, 1627.887 581.459, 1614.299 565.757 C 1607.174 557.524, 1585.303 542.624, 1578.822 541.588 C 1576.604 541.233, 1573.418 540.233, 1571.741 539.366 C 1568.942 537.918, 1564.583 537.459, 1546.500 536.707 C 1543.200 536.570, 1534.857 536.718, 1527.961 537.038 M 1890 778.956 C 1884.775 779.352, 1878.025 780.482, 1875 781.468 C 1867.151 784.026, 1850.494 792.578, 1843.755 797.509 C 1838.187 801.584, 1826.213 813.863, 1820.848 821 C 1815.889 827.596, 1809.193 841.652, 1808.164 847.626 C 1807.607 850.857, 1806.555 855.525, 1805.826 858 C 1803.869 864.641, 1803.869 1135.359, 1805.826 1142 C 1806.555 1144.475, 1807.607 1149.143, 1808.164 1152.374 C 1809.193 1158.348, 1815.889 1172.404, 1820.848 1179 C 1826.213 1186.137, 1838.187 1198.416, 1843.755 1202.491 C 1850.545 1207.460, 1867.227 1216.010, 1875 1218.505 C 1886.684 1222.256, 1922.332 1222.393, 1931.129 1218.721 C 1932.983 1217.947, 1936.198 1216.996, 1938.272 1216.607 C 1942.475 1215.820, 1951.413 1211.374, 1960.500 1205.551 C 1970.094 1199.401, 1984.726 1183.057, 1992.699 1169.583 C 1999.864 1157.475, 1999.434 1168.311, 1999.434 1000 C 1999.434 831.689, 1999.864 842.525, 1992.699 830.417 C 1987.687 821.946, 1982.729 815.543, 1974 806.270 C 1964.200 795.859, 1948.155 785.655, 1937.500 783.058 C 1935.300 782.522, 1931.250 781.449, 1928.500 780.674 C 1922.191 778.897, 1902.421 778.014, 1890 778.956" stroke="none" fill="#040404" fill-rule="evenodd"/></svg>