<svg xmlns="http://www.w3.org/2000/svg" width="2000" height="2000" viewBox="0 0 2000 2000" version="1.1"><path d="" stroke="none" fill="#080404" fill-rule="evenodd"/><path d="M 212 46 C 212 46.550, 210.442 47, 208.537 47 C 206.632 47, 202.791 47.900, 200 49 C 197.209 50.100, 193.939 51, 192.732 51 C 191.526 51, 188.055 51.957, 185.019 53.126 C 181.984 54.296, 177.700 55.907, 175.500 56.707 C 166.939 59.819, 151.125 67.468, 145 71.460 C 143.075 72.714, 138.800 75.467, 135.500 77.578 C 128.276 82.197, 113.392 94.074, 106.500 100.717 C 90.812 115.838, 73.763 138.861, 65.489 156.097 C 63.534 160.168, 61.546 164.207, 61.071 165.071 C 60.596 165.934, 59.015 169.759, 57.559 173.571 C 56.102 177.382, 54.031 182.759, 52.955 185.519 C 51.880 188.280, 51 191.446, 51 192.554 C 51 193.662, 50.100 197.130, 49 200.260 C 47.900 203.389, 47 207.311, 47 208.975 C 47 210.639, 46.550 212, 46 212 C 45.334 212, 45 407.167, 45 795.500 C 45 1183.833, 45.334 1379, 46 1379 C 46.550 1379, 47 1380.361, 47 1382.025 C 47 1383.689, 47.900 1387.611, 49 1390.740 C 50.100 1393.870, 51 1397.477, 51 1398.755 C 51 1400.034, 51.900 1402.844, 53 1405 C 54.100 1407.156, 55 1409.465, 55 1410.132 C 55 1411.549, 59.182 1422.201, 61.433 1426.518 C 62.288 1428.158, 62.990 1430.007, 62.994 1430.628 C 62.997 1431.248, 63.631 1432.279, 64.402 1432.919 C 65.173 1433.558, 66.093 1435.234, 66.446 1436.641 C 66.799 1438.049, 67.923 1440.393, 68.943 1441.850 C 69.963 1443.308, 73.385 1448.550, 76.547 1453.500 C 79.709 1458.450, 82.570 1462.725, 82.904 1463 C 83.238 1463.275, 85.360 1465.975, 87.619 1469 C 98.991 1484.228, 125.952 1508.485, 140.500 1516.578 C 141.600 1517.190, 144.075 1518.635, 146 1519.791 C 149.102 1521.652, 160.667 1527.419, 172.610 1533.059 C 174.870 1534.127, 177.582 1535, 178.637 1535 C 179.692 1535, 181.532 1535.684, 182.726 1536.521 C 183.920 1537.357, 186.833 1538.439, 189.198 1538.925 C 191.564 1539.411, 194.850 1540.271, 196.500 1540.836 C 203.710 1543.306, 219.630 1545.928, 233.500 1546.930 C 243.046 1547.620, 292.017 1548.012, 368.191 1548.007 C 434.021 1548.003, 488.099 1548.351, 488.364 1548.781 C 489.078 1549.936, 487.114 1571.279, 485.446 1580.500 C 484.650 1584.900, 483.991 1591.875, 483.982 1596 C 483.973 1600.125, 483.276 1606.650, 482.434 1610.500 C 481.592 1614.350, 480.502 1623.350, 480.012 1630.500 C 479.522 1637.650, 478.664 1645.300, 478.104 1647.500 C 477.544 1649.700, 476.803 1656.450, 476.457 1662.500 C 476.111 1668.550, 475.232 1676.650, 474.505 1680.500 C 473.777 1684.350, 472.866 1692.450, 472.482 1698.500 C 472.097 1704.550, 471.164 1712.425, 470.408 1716 C 469.653 1719.575, 469.022 1725.650, 469.007 1729.500 C 468.992 1733.350, 468.084 1741.617, 466.990 1747.871 C 465.895 1754.125, 465 1762.308, 465 1766.056 C 465 1769.803, 464.358 1775.936, 463.573 1779.685 C 462.788 1783.433, 461.865 1791, 461.522 1796.500 C 461.179 1802, 460.278 1810.100, 459.518 1814.500 C 458.759 1818.900, 457.872 1827.260, 457.548 1833.078 C 457.224 1838.896, 456.509 1845.196, 455.958 1847.078 C 454.794 1851.057, 452.662 1876.291, 452.628 1886.500 C 452.596 1895.865, 454.425 1907.341, 456.398 1910.158 C 457.279 1911.416, 458 1913.263, 458 1914.263 C 458 1915.263, 458.823 1917.300, 459.828 1918.790 C 460.834 1920.281, 463.373 1924.101, 465.470 1927.280 C 467.568 1930.458, 471.701 1935.268, 474.654 1937.967 C 479.973 1942.828, 488.451 1949.003, 489.800 1948.997 C 490.968 1948.993, 499.476 1953.447, 499.833 1954.250 C 500.269 1955.230, 544.731 1955.230, 545.167 1954.250 C 545.350 1953.837, 548.200 1952.177, 551.500 1950.560 C 562.403 1945.219, 569.526 1939.468, 603.546 1908.541 C 609.621 1903.019, 623.121 1890.818, 633.546 1881.428 C 643.971 1872.039, 657.194 1860.114, 662.931 1854.928 C 668.668 1849.743, 678.118 1841.273, 683.931 1836.106 C 692.463 1828.521, 707.488 1814.956, 713.408 1809.492 C 714.008 1808.937, 720.800 1802.875, 728.500 1796.021 C 736.200 1789.167, 744.750 1781.474, 747.500 1778.925 C 750.250 1776.375, 755.233 1771.862, 758.573 1768.895 C 770.917 1757.929, 782.664 1747.363, 788.500 1741.976 C 791.800 1738.931, 798.550 1732.873, 803.500 1728.515 C 808.450 1724.157, 815.200 1718.091, 818.500 1715.036 C 821.800 1711.980, 828.277 1706.110, 832.894 1701.990 C 837.511 1697.871, 841.789 1694.050, 842.402 1693.500 C 843.014 1692.950, 847.787 1688.675, 853.008 1684 C 858.228 1679.325, 862.950 1675.007, 863.500 1674.405 C 864.050 1673.803, 870.800 1667.749, 878.500 1660.951 C 886.200 1654.153, 892.989 1648.121, 893.586 1647.546 C 895.381 1645.817, 910.776 1631.929, 922.500 1621.462 C 928.550 1616.061, 933.725 1611.376, 934 1611.052 C 934.275 1610.727, 940.800 1604.865, 948.500 1598.025 C 956.200 1591.185, 967.450 1581.065, 973.500 1575.536 C 992.914 1557.795, 1001.447 1550.336, 1003.684 1549.154 C 1005.324 1548.288, 1098.872 1548.002, 1378.684 1548.007 C 1636.706 1548.012, 1756.119 1547.681, 1766.500 1546.930 C 1780.370 1545.928, 1796.290 1543.306, 1803.500 1540.836 C 1805.150 1540.271, 1808.436 1539.411, 1810.802 1538.925 C 1813.167 1538.439, 1816.080 1537.357, 1817.274 1536.521 C 1818.468 1535.684, 1820.308 1535, 1821.363 1535 C 1822.418 1535, 1825.130 1534.127, 1827.390 1533.059 C 1839.333 1527.419, 1850.898 1521.652, 1854 1519.791 C 1855.925 1518.635, 1858.400 1517.190, 1859.500 1516.578 C 1867.955 1511.874, 1888.677 1495.169, 1898.178 1485.397 C 1907.041 1476.282, 1917.772 1462.842, 1923.418 1453.785 C 1925.574 1450.328, 1928.836 1445.203, 1930.668 1442.396 C 1932.501 1439.590, 1934 1436.607, 1934 1435.769 C 1934 1434.931, 1934.675 1433.685, 1935.500 1433 C 1936.325 1432.315, 1937.003 1431.248, 1937.006 1430.628 C 1937.010 1430.007, 1937.712 1428.158, 1938.567 1426.518 C 1940.818 1422.201, 1945 1411.549, 1945 1410.132 C 1945 1409.465, 1945.900 1407.156, 1947 1405 C 1948.100 1402.844, 1949 1400.034, 1949 1398.755 C 1949 1397.477, 1949.900 1393.870, 1951 1390.740 C 1952.100 1387.611, 1953 1383.689, 1953 1382.025 C 1953 1380.361, 1953.450 1379, 1954 1379 C 1954.666 1379, 1955 1183.833, 1955 795.500 C 1955 407.167, 1954.666 212, 1954 212 C 1953.450 212, 1953 210.430, 1953 208.511 C 1953 206.592, 1952.100 202.654, 1951.001 199.761 C 1949.901 196.867, 1949.001 193.609, 1949.001 192.519 C 1949 191.430, 1948.043 188.055, 1946.874 185.019 C 1945.704 181.984, 1944.093 177.700, 1943.293 175.500 C 1940.554 167.965, 1930.488 147.229, 1928.487 144.998 C 1927.746 144.172, 1926.658 142.372, 1926.071 140.998 C 1923.527 135.050, 1906.923 114.084, 1896.505 103.667 C 1887.918 95.079, 1873.242 83.075, 1864.500 77.487 C 1861.200 75.377, 1856.925 72.645, 1855 71.415 C 1851.105 68.926, 1838.918 62.718, 1832 59.699 C 1829.525 58.618, 1826.226 57.119, 1824.669 56.367 C 1823.112 55.615, 1821.087 54.985, 1820.169 54.966 C 1819.251 54.947, 1816.700 54.063, 1814.500 53 C 1812.300 51.937, 1809.279 51.053, 1807.787 51.034 C 1806.295 51.015, 1802.791 50.100, 1800 49 C 1797.209 47.900, 1793.368 47, 1791.463 47 C 1789.558 47, 1788 46.550, 1788 46 C 1788 45.334, 1524.667 45, 1000 45 C 475.333 45, 212 45.334, 212 46" stroke="none" fill="#040404" fill-rule="evenodd"/></svg>