<svg xmlns="http://www.w3.org/2000/svg" width="2000" height="2000" viewBox="0 0 2000 2000" version="1.1"><path d="" stroke="none" fill="#080404" fill-rule="evenodd"/><path d="M 617 295 C 617 295.550, 614.413 296.011, 611.250 296.024 C 608.087 296.036, 602.155 296.936, 598.068 298.024 C 593.980 299.111, 589.353 300, 587.786 300 C 586.218 300, 583.480 300.608, 581.701 301.351 C 579.922 302.095, 576.230 303.038, 573.497 303.448 C 570.763 303.858, 567.395 304.762, 566.013 305.458 C 564.631 306.153, 561.531 307.024, 559.125 307.393 C 556.718 307.762, 553.793 308.599, 552.625 309.254 C 551.456 309.909, 548.700 310.967, 546.500 311.606 C 540.972 313.211, 536.228 314.948, 531.390 317.139 C 529.130 318.162, 526.744 319, 526.089 319 C 525.433 319, 523.232 319.846, 521.198 320.879 C 519.164 321.913, 515.925 323.427, 514 324.244 C 508.776 326.460, 484.092 338.872, 479.500 341.592 C 477.300 342.894, 474.375 344.521, 473 345.207 C 471.625 345.893, 468.367 347.927, 465.760 349.727 C 463.153 351.527, 460.719 353, 460.351 353 C 459.983 353, 457.298 354.800, 454.384 357 C 451.470 359.200, 448.758 361, 448.357 361 C 447.957 361, 445.494 362.800, 442.885 365 C 440.276 367.200, 437.811 369, 437.408 369 C 436.690 369, 422.470 380.284, 420.500 382.417 C 419.950 383.013, 415.675 386.721, 411 390.659 C 401.557 398.611, 381.872 418.507, 375.044 427 C 372.612 430.025, 369.870 433.175, 368.952 434 C 367.504 435.300, 363.298 440.609, 357.215 448.813 C 356.272 450.085, 354.712 451.872, 353.750 452.785 C 352.788 453.698, 352 454.950, 352 455.567 C 352 456.185, 351.100 457.505, 350 458.500 C 348.900 459.495, 348 460.845, 348 461.500 C 348 462.155, 347.100 463.505, 346 464.500 C 344.900 465.495, 344 466.915, 344 467.655 C 344 468.395, 343.556 469, 343.013 469 C 342.471 469, 341.369 470.575, 340.564 472.500 C 339.760 474.425, 338.728 476, 338.270 476 C 337.813 476, 336.881 477.238, 336.199 478.750 C 334.185 483.219, 331.752 487.391, 330.329 488.813 C 329.598 489.545, 329 490.717, 329 491.418 C 329 492.120, 328.100 493.732, 327 495 C 325.900 496.268, 325 497.857, 325 498.531 C 325 499.204, 324.354 500.291, 323.564 500.947 C 322.775 501.602, 321.846 503.426, 321.500 505 C 321.154 506.574, 320.254 508.374, 319.500 509 C 318.746 509.626, 317.846 511.426, 317.500 513 C 317.154 514.574, 316.225 516.398, 315.436 517.053 C 314.646 517.709, 314 519.029, 314 519.988 C 314 520.946, 313.100 522.874, 312 524.273 C 310.900 525.671, 310 527.696, 310 528.773 C 310 529.849, 309.100 531.874, 308 533.273 C 306.900 534.671, 306 536.927, 306 538.285 C 306 539.644, 305.337 541.305, 304.526 541.978 C 303.716 542.651, 302.759 544.843, 302.400 546.850 C 302.041 548.858, 301.167 551.175, 300.458 552 C 299.749 552.825, 298.842 555.300, 298.443 557.500 C 298.043 559.700, 297.105 562.388, 296.358 563.473 C 295.611 564.557, 295 566.589, 295 567.987 C 295 569.386, 294.100 572.209, 293 574.261 C 291.900 576.314, 291 579.464, 291 581.261 C 291 583.059, 290.100 586.209, 289 588.261 C 287.900 590.314, 287 593.817, 287 596.046 C 287 598.275, 286.276 601.500, 285.390 603.212 C 284.505 604.924, 283.568 609.064, 283.308 612.412 C 283.048 615.760, 282.190 620.213, 281.403 622.308 C 280.615 624.402, 279.705 630.252, 279.381 635.308 C 279.057 640.363, 278.164 646.719, 277.396 649.432 C 275.376 656.567, 275.385 728.115, 277.406 737.188 C 278.180 740.660, 279.122 747.771, 279.500 752.991 C 279.878 758.211, 280.654 763.354, 281.224 764.419 C 281.794 765.484, 282.627 769.625, 283.075 773.621 C 283.524 777.617, 284.590 782.240, 285.445 783.894 C 286.300 785.548, 287 788.725, 287 790.954 C 287 793.183, 287.900 796.686, 289 798.739 C 290.100 800.791, 291 804.064, 291 806.013 C 291 807.961, 291.638 810.466, 292.417 811.579 C 293.197 812.692, 294.147 815.379, 294.530 817.551 C 294.912 819.723, 295.816 822.447, 296.540 823.604 C 297.263 824.761, 298.169 827.461, 298.554 829.604 C 298.939 831.747, 299.814 834.175, 300.500 835 C 301.186 835.825, 302.041 838.142, 302.400 840.150 C 302.759 842.157, 303.716 844.349, 304.526 845.022 C 305.337 845.695, 306 847.356, 306 848.715 C 306 850.073, 306.900 852.329, 308 853.727 C 309.100 855.126, 310 857.151, 310 858.227 C 310 859.304, 310.900 861.329, 312 862.727 C 313.100 864.126, 314 866.054, 314 867.012 C 314 867.971, 314.646 869.291, 315.436 869.947 C 316.225 870.602, 317.154 872.426, 317.500 874 C 317.846 875.574, 318.746 877.374, 319.500 878 C 320.254 878.626, 321.154 880.426, 321.500 882 C 321.846 883.574, 322.775 885.398, 323.564 886.053 C 324.354 886.709, 325 887.804, 325 888.488 C 325 889.171, 325.900 890.874, 327 892.273 C 328.100 893.671, 329 895.384, 329 896.079 C 329 896.774, 329.748 898.169, 330.661 899.178 C 332.336 901.028, 333.840 903.416, 336.210 907.986 C 336.920 909.354, 338.288 911.266, 339.250 912.236 C 340.213 913.206, 341 914.627, 341 915.393 C 341 916.159, 341.675 917.045, 342.500 917.362 C 343.325 917.678, 344 918.557, 344 919.316 C 344 920.074, 344.788 921.650, 345.750 922.818 C 346.713 923.987, 349.300 927.431, 351.500 930.472 C 357.274 938.453, 370.915 955.903, 375 960.533 C 384.955 971.817, 415.167 1000.615, 425.322 1008.500 C 436.355 1017.067, 439.466 1021, 435.211 1021 C 434.228 1021, 431.658 1021.900, 429.500 1023 C 427.342 1024.100, 425.139 1025, 424.604 1025 C 424.069 1025, 421.577 1025.928, 419.066 1027.063 C 409.979 1031.168, 406.437 1032.757, 403 1034.270 C 395.457 1037.591, 364.070 1053.290, 356.500 1057.529 C 352.100 1059.992, 347.375 1062.558, 346 1063.231 C 344.625 1063.904, 341.475 1065.825, 339 1067.500 C 336.525 1069.175, 333.375 1071.116, 332 1071.813 C 326.883 1074.405, 315.686 1081.626, 303 1090.516 C 299.975 1092.635, 294.350 1096.542, 290.500 1099.198 C 283.131 1104.281, 251.298 1129.096, 246.964 1133.136 C 245.569 1134.436, 240.169 1139.279, 234.964 1143.899 C 218.242 1158.739, 193.923 1183.093, 182 1196.940 C 178.975 1200.453, 175.698 1204.169, 174.718 1205.196 C 173.737 1206.224, 169.272 1211.663, 164.795 1217.282 C 160.318 1222.902, 155.945 1228.270, 155.078 1229.211 C 154.210 1230.152, 152.733 1231.952, 151.795 1233.211 C 150.858 1234.470, 147.370 1238.981, 144.045 1243.235 C 140.720 1247.489, 138 1251.357, 138 1251.830 C 138 1252.303, 137.100 1253.505, 136 1254.500 C 134.900 1255.495, 134 1256.893, 134 1257.605 C 134 1258.318, 133.438 1259.260, 132.750 1259.700 C 131.194 1260.696, 127 1266.607, 127 1267.805 C 127 1268.292, 126.100 1269.505, 125 1270.500 C 123.900 1271.495, 123 1272.845, 123 1273.500 C 123 1274.155, 122.100 1275.505, 121 1276.500 C 119.900 1277.495, 119 1278.845, 119 1279.500 C 119 1280.155, 118.100 1281.505, 117 1282.500 C 115.900 1283.495, 115 1284.883, 115 1285.584 C 115 1286.284, 114.402 1287.455, 113.671 1288.187 C 112.424 1289.433, 110.846 1292.081, 107.820 1298 C 107.117 1299.375, 105.970 1300.860, 105.271 1301.300 C 104.572 1301.740, 104 1302.691, 104 1303.415 C 104 1304.138, 103.100 1305.874, 102 1307.273 C 100.900 1308.671, 100 1310.462, 100 1311.253 C 100 1312.043, 99.100 1313.505, 98 1314.500 C 96.900 1315.495, 96 1317.114, 96 1318.096 C 96 1319.078, 95.504 1320.188, 94.898 1320.563 C 94.292 1320.938, 93.136 1322.652, 92.329 1324.372 C 89.902 1329.548, 87.950 1333.414, 86.963 1335 C 86.450 1335.825, 85.394 1337.908, 84.617 1339.628 C 83.840 1341.348, 82.708 1343.062, 82.102 1343.437 C 81.496 1343.812, 81 1345.148, 81 1346.406 C 81 1347.664, 80.100 1349.732, 79 1351 C 77.900 1352.268, 77 1354.068, 77 1355 C 77 1355.932, 76.100 1357.732, 75 1359 C 73.900 1360.268, 73 1362.307, 73 1363.531 C 73 1364.754, 72.354 1366.291, 71.564 1366.947 C 70.775 1367.602, 69.825 1369.570, 69.453 1371.319 C 69.081 1373.069, 68.203 1375.175, 67.500 1376 C 66.797 1376.825, 65.919 1378.931, 65.547 1380.681 C 65.175 1382.430, 64.225 1384.398, 63.436 1385.053 C 62.646 1385.709, 61.997 1387.202, 61.993 1388.372 C 61.990 1389.543, 61.093 1391.850, 60 1393.500 C 58.907 1395.150, 58.007 1397.400, 58 1398.500 C 57.993 1399.600, 57.093 1401.850, 56 1403.500 C 54.907 1405.150, 54.007 1407.625, 54 1409 C 53.993 1410.375, 53.093 1412.850, 52 1414.500 C 50.907 1416.150, 50.010 1418.637, 50.007 1420.027 C 50.003 1421.418, 49.339 1423.498, 48.532 1424.651 C 47.725 1425.803, 46.769 1428.595, 46.407 1430.854 C 46.046 1433.114, 45.132 1435.476, 44.375 1436.104 C 43.619 1436.731, 43 1438.659, 43 1440.387 C 43 1442.116, 42.100 1445.209, 41 1447.261 C 39.900 1449.314, 39 1452.346, 39 1454 C 39 1455.654, 38.100 1458.686, 37 1460.739 C 35.900 1462.791, 34.985 1466.052, 34.966 1467.985 C 34.947 1469.918, 34.063 1473.300, 33 1475.500 C 31.937 1477.700, 31.053 1481.210, 31.034 1483.300 C 31.015 1485.389, 30.354 1488.348, 29.565 1489.874 C 28.776 1491.400, 27.701 1495.540, 27.177 1499.074 C 26.652 1502.608, 25.753 1506.850, 25.178 1508.500 C 22.999 1514.749, 22 1529.487, 22 1555.359 C 22 1581.957, 22.949 1593.763, 25.548 1599.500 C 26.295 1601.150, 27.165 1604.142, 27.480 1606.150 C 27.795 1608.157, 28.716 1610.349, 29.526 1611.022 C 30.337 1611.695, 31 1613.246, 31 1614.469 C 31 1615.693, 31.900 1617.732, 33 1619 C 34.100 1620.268, 35 1622.292, 35 1623.498 C 35 1624.704, 35.900 1626.505, 37 1627.500 C 38.100 1628.495, 39 1630.154, 39 1631.186 C 39 1632.218, 39.658 1633.315, 40.462 1633.624 C 41.266 1633.932, 42.229 1635.147, 42.603 1636.323 C 43.292 1638.495, 46.636 1643.647, 48.552 1645.489 C 49.131 1646.045, 50.827 1648.337, 52.321 1650.582 C 57.030 1657.654, 76.471 1675.505, 86.768 1682.211 C 100.749 1691.315, 99.707 1690.744, 116.500 1698.489 C 118.150 1699.250, 121.075 1700.180, 123 1700.557 C 124.925 1700.933, 127.715 1701.862, 129.200 1702.620 C 130.686 1703.379, 133.273 1704, 134.950 1704 C 136.628 1704, 138 1704.450, 138 1705 C 138 1705.665, 316 1706, 670 1706 C 984.289 1706, 1202 1705.632, 1202 1705.101 C 1202 1704.606, 1203.912 1703.986, 1206.250 1703.724 C 1210.501 1703.246, 1216.978 1701.184, 1224.500 1697.914 C 1235.035 1693.335, 1239.938 1690.909, 1240.502 1689.997 C 1240.841 1689.449, 1241.707 1689, 1242.427 1689 C 1244.865 1689, 1260.960 1677.577, 1269.854 1669.533 C 1275.533 1664.398, 1284.499 1654.821, 1288.287 1649.847 C 1295.825 1639.947, 1297.960 1636.617, 1301.449 1629.318 C 1302.285 1627.568, 1303.392 1625.876, 1303.908 1625.557 C 1304.424 1625.238, 1305.135 1623.663, 1305.487 1622.058 C 1305.840 1620.452, 1306.775 1618.602, 1307.564 1617.947 C 1308.354 1617.291, 1309.003 1615.798, 1309.007 1614.628 C 1309.010 1613.457, 1309.907 1611.150, 1311 1609.500 C 1312.093 1607.850, 1312.993 1605.150, 1313 1603.500 C 1313.007 1601.850, 1313.907 1599.150, 1315 1597.500 C 1316.286 1595.558, 1316.989 1592.807, 1316.993 1589.700 C 1316.997 1587.027, 1317.775 1583.483, 1318.750 1581.700 C 1320.273 1578.915, 1320.500 1575.519, 1320.500 1555.500 C 1320.500 1537.538, 1320.191 1531.955, 1319.089 1530.014 C 1318.312 1528.647, 1317.341 1523.922, 1316.930 1519.514 C 1316.519 1515.106, 1315.469 1510.150, 1314.598 1508.500 C 1313.726 1506.850, 1313.010 1503.412, 1313.006 1500.859 C 1313.003 1498.307, 1312.110 1494.257, 1311.022 1491.859 C 1309.934 1489.462, 1309.034 1485.688, 1309.022 1483.473 C 1309.010 1481.257, 1308.305 1478.452, 1307.455 1477.239 C 1306.605 1476.026, 1305.634 1472.663, 1305.298 1469.766 C 1304.961 1466.870, 1304.134 1463.600, 1303.461 1462.500 C 1302.787 1461.400, 1301.948 1458.556, 1301.595 1456.180 C 1301.242 1453.803, 1300.247 1450.780, 1299.383 1449.462 C 1298.519 1448.143, 1297.967 1446.602, 1298.156 1446.038 C 1298.390 1445.340, 1389.761 1444.928, 1583.500 1444.752 C 1816.726 1444.539, 1869.136 1444.251, 1872 1443.171 C 1873.925 1442.444, 1877.975 1441.262, 1881 1440.544 C 1888.860 1438.678, 1892.316 1437.341, 1902.765 1432.125 C 1916.584 1425.226, 1916.968 1424.994, 1925.552 1418.338 C 1936.621 1409.755, 1941.713 1404.755, 1948.805 1395.500 C 1952.178 1391.100, 1955.514 1386.819, 1956.218 1385.986 C 1956.923 1385.154, 1958.059 1383.354, 1958.743 1381.986 C 1960.135 1379.200, 1961.575 1376.779, 1964.210 1372.790 C 1965.194 1371.300, 1966 1369.223, 1966 1368.175 C 1966 1367.127, 1966.900 1365.126, 1968 1363.727 C 1969.100 1362.329, 1970 1359.941, 1970 1358.421 C 1970 1356.901, 1970.689 1354.896, 1971.531 1353.966 C 1972.373 1353.036, 1973.336 1349.850, 1973.671 1346.887 C 1974.006 1343.924, 1974.980 1340.150, 1975.837 1338.500 C 1978.144 1334.055, 1978.157 1291.893, 1975.853 1287.500 C 1974.987 1285.850, 1974.009 1281.475, 1973.680 1277.778 C 1973.350 1274.081, 1972.387 1269.716, 1971.540 1268.078 C 1970.693 1266.440, 1969.985 1263.164, 1969.966 1260.800 C 1969.947 1258.435, 1969.063 1254.700, 1968 1252.500 C 1966.937 1250.300, 1966.053 1247.020, 1966.034 1245.210 C 1966.015 1243.401, 1965.100 1240.156, 1964 1238 C 1962.900 1235.844, 1962 1232.582, 1962 1230.751 C 1962 1228.921, 1961.100 1225.658, 1960 1223.500 C 1958.900 1221.342, 1958 1218.647, 1958 1217.511 C 1958 1216.375, 1957.389 1214.557, 1956.642 1213.473 C 1955.895 1212.388, 1954.957 1209.700, 1954.557 1207.500 C 1954.158 1205.300, 1953.255 1202.825, 1952.551 1202 C 1951.847 1201.175, 1951.004 1198.757, 1950.678 1196.626 C 1950.352 1194.495, 1949.391 1191.985, 1948.543 1191.047 C 1947.694 1190.110, 1947 1188.324, 1947 1187.079 C 1947 1185.834, 1946.100 1183.671, 1945 1182.273 C 1943.900 1180.874, 1942.997 1178.778, 1942.993 1177.615 C 1942.990 1176.452, 1942.093 1174.150, 1941 1172.500 C 1939.907 1170.850, 1939.010 1168.543, 1939.007 1167.372 C 1939.003 1166.202, 1938.354 1164.709, 1937.564 1164.053 C 1936.775 1163.398, 1935.846 1161.574, 1935.500 1160 C 1935.154 1158.426, 1934.225 1156.602, 1933.436 1155.947 C 1932.646 1155.291, 1932 1154.112, 1932 1153.326 C 1932 1152.101, 1929.926 1147.565, 1926.822 1142 C 1926.362 1141.175, 1925.491 1139.375, 1924.886 1138 C 1924.281 1136.625, 1923.375 1134.825, 1922.873 1134 C 1922.371 1133.175, 1921.263 1131.150, 1920.411 1129.500 C 1919.559 1127.850, 1917.787 1124.700, 1916.472 1122.500 C 1915.157 1120.300, 1913.385 1117.150, 1912.533 1115.500 C 1911.682 1113.850, 1909.887 1110.700, 1908.544 1108.500 C 1907.202 1106.300, 1905.677 1103.582, 1905.156 1102.459 C 1904.635 1101.336, 1903.486 1099.819, 1902.604 1099.086 C 1901.722 1098.354, 1901 1097.378, 1901 1096.916 C 1901 1096.455, 1898.525 1092.442, 1895.500 1088 C 1892.475 1083.558, 1890 1079.668, 1890 1079.356 C 1890 1079.044, 1888.987 1077.549, 1887.750 1076.033 C 1886.513 1074.518, 1884.825 1072.255, 1884 1071.004 C 1883.175 1069.754, 1880.587 1066.347, 1878.250 1063.433 C 1875.912 1060.519, 1874 1057.655, 1874 1057.067 C 1874 1056.480, 1873.562 1056, 1873.026 1056 C 1872.490 1056, 1871.397 1054.763, 1870.597 1053.250 C 1869.797 1051.737, 1867.873 1049.128, 1866.321 1047.452 C 1864.770 1045.776, 1862.209 1042.851, 1860.631 1040.952 C 1843.226 1020.009, 1826.102 1002.153, 1807.995 986.064 C 1802.773 981.424, 1798.275 977.353, 1798 977.019 C 1797.188 976.031, 1768.899 953.783, 1764 950.279 C 1754.357 943.382, 1736.990 931.944, 1725 924.596 C 1718.948 920.886, 1717.617 920.118, 1713 917.673 C 1710.525 916.363, 1705.800 913.807, 1702.500 911.995 C 1694.567 907.637, 1688.787 904.754, 1681.500 901.519 C 1672.424 897.490, 1667 894.587, 1667 893.759 C 1667 893.350, 1668.462 891.799, 1670.250 890.311 C 1682.497 880.121, 1718 840.557, 1718 837.099 C 1718 836.549, 1718.563 835.740, 1719.250 835.300 C 1720.806 834.304, 1725 828.393, 1725 827.195 C 1725 826.708, 1725.900 825.495, 1727 824.500 C 1728.100 823.505, 1729 822.080, 1729 821.335 C 1729 820.590, 1729.900 819.210, 1731 818.268 C 1732.100 817.326, 1733 815.825, 1733 814.933 C 1733 814.040, 1733.900 812.495, 1735 811.500 C 1736.100 810.505, 1737 809.043, 1737 808.253 C 1737 807.462, 1737.900 805.671, 1739 804.273 C 1740.100 802.874, 1741 801.171, 1741 800.488 C 1741 799.804, 1741.646 798.709, 1742.436 798.053 C 1743.225 797.398, 1744.154 795.574, 1744.500 794 C 1744.846 792.426, 1745.775 790.602, 1746.564 789.947 C 1747.354 789.291, 1748 787.971, 1748 787.012 C 1748 786.054, 1748.900 784.126, 1750 782.727 C 1751.100 781.329, 1752 779.304, 1752 778.227 C 1752 777.151, 1752.900 775.126, 1754 773.727 C 1755.100 772.329, 1756.003 770.131, 1756.007 768.842 C 1756.010 767.554, 1756.907 765.150, 1758 763.500 C 1759.093 761.850, 1759.990 759.588, 1759.993 758.473 C 1759.997 757.357, 1760.638 755.534, 1761.417 754.421 C 1762.197 753.308, 1763.147 750.621, 1763.530 748.449 C 1763.912 746.277, 1764.783 743.600, 1765.465 742.500 C 1766.148 741.400, 1767.033 738.250, 1767.431 735.500 C 1767.830 732.750, 1768.725 729.600, 1769.421 728.500 C 1770.117 727.400, 1770.976 723.676, 1771.330 720.225 C 1771.685 716.774, 1772.655 712.633, 1773.487 711.025 C 1774.319 709.416, 1775 705.590, 1775 702.523 C 1775 699.456, 1775.929 693.363, 1777.064 688.983 C 1779.013 681.465, 1779.107 678.882, 1778.743 642.760 C 1778.415 610.255, 1778.105 603.762, 1776.679 599.591 C 1775.755 596.891, 1775 592.103, 1775 588.950 C 1775 585.375, 1774.256 581.578, 1773.022 578.859 C 1771.934 576.462, 1771.034 572.463, 1771.022 569.973 C 1771.010 567.482, 1770.321 564.475, 1769.490 563.289 C 1768.660 562.104, 1767.692 558.966, 1767.341 556.317 C 1766.989 553.668, 1766.094 550.612, 1765.351 549.527 C 1764.608 548.443, 1764 546.411, 1764 545.013 C 1764 543.614, 1763.100 540.791, 1762 538.739 C 1760.900 536.686, 1760 533.941, 1760 532.638 C 1760 531.336, 1759.100 529.126, 1758 527.727 C 1756.900 526.329, 1756 524.073, 1756 522.715 C 1756 521.356, 1755.337 519.695, 1754.526 519.022 C 1753.716 518.349, 1752.769 516.285, 1752.422 514.435 C 1752.075 512.585, 1751.192 510.574, 1750.460 509.967 C 1749.728 509.359, 1748.846 507.574, 1748.500 506 C 1748.154 504.426, 1747.254 502.626, 1746.500 502 C 1745.746 501.374, 1744.846 499.574, 1744.500 498 C 1744.154 496.426, 1743.225 494.602, 1742.436 493.947 C 1741.646 493.291, 1741 492.117, 1741 491.337 C 1741 490.557, 1740.194 488.700, 1739.210 487.210 C 1736.158 482.590, 1735.010 480.609, 1733.538 477.420 C 1732.756 475.727, 1731.415 473.759, 1730.558 473.048 C 1729.701 472.337, 1729 471.374, 1729 470.909 C 1729 469.691, 1720.740 457.651, 1719.252 456.700 C 1718.563 456.260, 1718 455.423, 1718 454.839 C 1718 454.255, 1716.200 451.628, 1714 449 C 1711.800 446.372, 1710 443.760, 1710 443.195 C 1710 442.629, 1709.588 442.017, 1709.084 441.833 C 1708.580 441.650, 1705.845 438.575, 1703.005 435 C 1693.373 422.875, 1673.468 403.375, 1658.775 391.671 C 1656.176 389.601, 1653.476 387.355, 1652.775 386.681 C 1652.074 386.007, 1649.025 383.782, 1646 381.737 C 1642.975 379.692, 1638.700 376.732, 1636.500 375.160 C 1628.501 369.443, 1621.458 365, 1620.396 365 C 1619.799 365, 1618.495 364.100, 1617.500 363 C 1616.505 361.900, 1615.043 361, 1614.253 361 C 1613.462 361, 1611.671 360.100, 1610.273 359 C 1608.874 357.900, 1606.918 357, 1605.924 357 C 1604.931 357, 1603.837 356.545, 1603.493 355.989 C 1602.942 355.097, 1599.443 353.360, 1586 347.305 C 1573.206 341.543, 1564.134 338.015, 1561.981 337.966 C 1561.166 337.947, 1558.700 337.063, 1556.500 336 C 1554.300 334.937, 1551.375 334.050, 1550 334.028 C 1548.625 334.006, 1546.170 333.294, 1544.545 332.447 C 1542.919 331.599, 1539.544 330.663, 1537.045 330.366 C 1534.545 330.069, 1530.842 329.206, 1528.816 328.448 C 1526.790 327.690, 1522.065 326.764, 1518.316 326.392 C 1514.567 326.019, 1510.375 325.272, 1509 324.732 C 1507.625 324.192, 1496.825 323.139, 1485 322.393 C 1462.324 320.961, 1426.145 321.887, 1415.500 324.172 C 1412.750 324.762, 1406.900 325.809, 1402.500 326.499 C 1398.100 327.189, 1393.150 328.227, 1391.500 328.806 C 1389.850 329.385, 1386.250 330.286, 1383.500 330.809 C 1380.750 331.331, 1377.150 332.215, 1375.500 332.774 C 1365.735 336.082, 1362.139 337.226, 1359.083 338 C 1357.204 338.475, 1354.167 339.570, 1352.333 340.432 C 1343.937 344.381, 1342.298 345.032, 1339.272 345.617 C 1337.497 345.960, 1335.530 346.862, 1334.900 347.621 C 1334.270 348.379, 1333.297 349, 1332.737 349 C 1331.716 349, 1323.809 352.457, 1321 354.131 C 1320.175 354.623, 1317.700 355.918, 1315.500 357.010 C 1309.094 360.189, 1300.633 365.083, 1298.921 366.601 C 1298.053 367.370, 1296.928 368.010, 1296.421 368.022 C 1295.592 368.043, 1289.729 371.917, 1275.397 381.917 C 1257.445 394.441, 1231.317 419.239, 1215.776 438.500 C 1215.332 439.050, 1213.963 440.673, 1212.734 442.107 C 1211.506 443.541, 1209.825 445.741, 1209 446.996 C 1208.175 448.251, 1205.925 451.366, 1204 453.919 C 1198.180 461.636, 1196 464.874, 1196 465.805 C 1196 466.292, 1195.100 467.505, 1194 468.500 C 1192.900 469.495, 1192 470.845, 1192 471.500 C 1192 472.155, 1191.100 473.505, 1190 474.500 C 1188.900 475.495, 1188 477.114, 1188 478.096 C 1188 479.078, 1187.504 480.188, 1186.898 480.563 C 1186.292 480.938, 1185.161 482.764, 1184.385 484.622 C 1183.608 486.480, 1182.565 488, 1182.066 488 C 1181.567 488, 1180.869 489.319, 1180.515 490.931 C 1180.161 492.543, 1179.225 494.398, 1178.436 495.053 C 1177.646 495.709, 1177 497.029, 1177 497.988 C 1177 498.946, 1176.100 500.874, 1175 502.273 C 1173.900 503.671, 1172.997 505.419, 1172.993 506.158 C 1172.990 506.896, 1172.093 508.850, 1171 510.500 C 1169.907 512.150, 1169.010 514.329, 1169.007 515.342 C 1169.003 516.356, 1168.100 518.329, 1167 519.727 C 1165.900 521.126, 1165 523.111, 1165 524.138 C 1165 525.166, 1164.100 527.686, 1163 529.739 C 1161.900 531.791, 1161 534.434, 1161 535.613 C 1161 536.791, 1160.325 538.315, 1159.500 539 C 1158.675 539.685, 1158 541.659, 1158 543.387 C 1158 545.116, 1157.100 548.209, 1156 550.261 C 1154.900 552.314, 1153.985 555.457, 1153.966 557.246 C 1153.947 559.036, 1153.063 562.300, 1152 564.500 C 1150.937 566.700, 1150.050 570.525, 1150.028 573 C 1150.006 575.475, 1149.277 578.850, 1148.409 580.500 C 1147.541 582.150, 1146.619 586.875, 1146.361 591 C 1146.102 595.125, 1145.128 601.200, 1144.195 604.500 C 1142.743 609.640, 1142.502 615.659, 1142.512 646.500 C 1142.522 678.174, 1142.732 683.075, 1144.262 687.285 C 1145.218 689.917, 1146 694.765, 1146 698.060 C 1146 701.487, 1146.856 706.485, 1148 709.740 C 1149.100 712.870, 1150 717.152, 1150 719.255 C 1150 721.359, 1150.900 724.844, 1152 727 C 1153.100 729.156, 1154 732.418, 1154 734.249 C 1154 736.079, 1154.900 739.342, 1156 741.500 C 1157.100 743.658, 1158 746.469, 1158 747.747 C 1158 749.025, 1158.624 751.067, 1159.388 752.285 C 1160.151 753.503, 1161.063 756.142, 1161.414 758.150 C 1161.766 760.157, 1162.716 762.349, 1163.526 763.022 C 1164.337 763.695, 1165 765.479, 1165 766.988 C 1165 768.496, 1165.900 770.874, 1167 772.273 C 1168.100 773.671, 1169 775.696, 1169 776.773 C 1169 777.849, 1169.900 779.874, 1171 781.273 C 1172.100 782.671, 1173 784.574, 1173 785.500 C 1173 786.426, 1173.900 788.329, 1175 789.727 C 1176.100 791.126, 1177 793.082, 1177 794.076 C 1177 795.069, 1177.496 796.188, 1178.102 796.563 C 1178.708 796.938, 1179.851 798.652, 1180.643 800.372 C 1181.434 802.092, 1183.157 805.300, 1184.472 807.500 C 1185.787 809.700, 1187.581 812.850, 1188.458 814.500 C 1191.237 819.724, 1192.631 821.934, 1194.339 823.822 C 1195.252 824.831, 1196 826.115, 1196 826.674 C 1196 827.233, 1196.900 828.505, 1198 829.500 C 1199.100 830.495, 1200 831.915, 1200 832.655 C 1200 833.395, 1200.406 834, 1200.901 834 C 1201.397 834, 1202.674 835.462, 1203.739 837.250 C 1208.431 845.127, 1224.528 863.757, 1239.381 878.503 L 1255.500 894.506 1251 896.577 C 1248.525 897.717, 1243.588 899.965, 1240.028 901.574 C 1233.134 904.691, 1210.108 916.838, 1200.734 922.304 C 1170.393 939.995, 1139.167 963.185, 1109.629 989.963 C 1085.732 1011.627, 1053.654 1048.024, 1038.223 1070.982 C 1035.827 1074.548, 1033.559 1077.698, 1033.183 1077.982 C 1032.807 1078.267, 1032.020 1079.370, 1031.433 1080.433 C 1029.396 1084.125, 1027.317 1084.641, 1024.286 1082.208 C 1022.754 1080.978, 1020.375 1079.426, 1019 1078.759 C 1017.625 1078.092, 1014.367 1076.073, 1011.760 1074.273 C 1009.153 1072.473, 1006.714 1071, 1006.339 1071 C 1005.964 1071, 1004.947 1070.370, 1004.079 1069.601 C 1002.410 1068.121, 994.194 1063.353, 987.500 1059.979 C 985.300 1058.870, 980.350 1056.200, 976.500 1054.046 C 969.742 1050.264, 963.606 1047.129, 952 1041.527 C 948.975 1040.067, 945.825 1038.518, 945 1038.084 C 943.539 1037.316, 938.378 1034.953, 929.750 1031.104 C 927.413 1030.061, 923.250 1028.311, 920.500 1027.215 C 917.750 1026.119, 914.150 1024.631, 912.500 1023.909 C 910.850 1023.187, 907.961 1022.120, 906.080 1021.538 C 901.595 1020.152, 901.178 1018.476, 904.846 1016.580 C 906.481 1015.734, 907.972 1014.677, 908.160 1014.230 C 908.347 1013.784, 913 1009.858, 918.500 1005.507 C 931.641 995.110, 961.611 965.143, 971.500 952.512 C 972.600 951.107, 975.050 948.154, 976.944 945.949 C 981.987 940.078, 1000 914.528, 1000 913.245 C 1000 912.922, 1000.748 911.831, 1001.661 910.822 C 1003.369 908.934, 1004.763 906.724, 1007.542 901.500 C 1008.419 899.850, 1010.213 896.700, 1011.528 894.500 C 1012.843 892.300, 1014.566 889.092, 1015.357 887.372 C 1016.149 885.652, 1017.292 883.938, 1017.898 883.563 C 1018.504 883.188, 1019 882.192, 1019 881.349 C 1019 880.505, 1019.900 878.671, 1021 877.273 C 1022.100 875.874, 1023 874.074, 1023 873.273 C 1023 872.471, 1023.900 870.671, 1025 869.273 C 1026.100 867.874, 1027 865.946, 1027 864.988 C 1027 864.029, 1027.675 862.685, 1028.500 862 C 1029.325 861.315, 1030 860.005, 1030 859.089 C 1030 858.173, 1030.874 855.709, 1031.942 853.614 C 1033.010 851.519, 1034.164 848.530, 1034.506 846.971 C 1034.849 845.413, 1035.775 843.602, 1036.564 842.947 C 1037.354 842.291, 1038.003 840.573, 1038.007 839.128 C 1038.010 837.682, 1038.907 835.150, 1040 833.500 C 1041.093 831.850, 1041.990 829.486, 1041.993 828.246 C 1041.997 827.007, 1042.900 824.314, 1044 822.261 C 1045.100 820.209, 1046 817.488, 1046 816.215 C 1046 814.942, 1046.683 812.581, 1047.517 810.968 C 1048.351 809.354, 1049.322 805.889, 1049.675 803.267 C 1050.027 800.645, 1050.867 797.600, 1051.540 796.500 C 1052.213 795.400, 1053.051 791.874, 1053.401 788.664 C 1053.751 785.454, 1054.641 781.629, 1055.379 780.164 C 1056.117 778.699, 1056.985 774.575, 1057.308 771 C 1057.630 767.425, 1058.593 762.531, 1059.447 760.124 C 1060.301 757.718, 1061 752.636, 1061 748.832 C 1061 745.028, 1061.787 738.447, 1062.750 734.208 C 1064.228 727.696, 1064.500 721.302, 1064.500 693 C 1064.500 664.504, 1064.239 658.425, 1062.750 652.303 C 1061.787 648.344, 1061 641.803, 1061 637.768 C 1061 632.994, 1060.301 628.443, 1059 624.740 C 1057.900 621.611, 1057 616.664, 1057 613.747 C 1057 610.688, 1056.375 607.553, 1055.522 606.335 C 1054.709 605.174, 1053.747 601.587, 1053.383 598.362 C 1053.020 595.138, 1052.168 591.375, 1051.491 590 C 1050.814 588.625, 1049.958 585.423, 1049.589 582.885 C 1049.220 580.347, 1048.276 577.422, 1047.491 576.385 C 1046.706 575.348, 1046.049 573.143, 1046.032 571.485 C 1046.014 569.827, 1045.100 566.791, 1044 564.739 C 1042.900 562.686, 1041.997 559.993, 1041.993 558.754 C 1041.990 557.514, 1041.093 555.150, 1040 553.500 C 1038.907 551.850, 1038.010 549.318, 1038.007 547.872 C 1038.003 546.427, 1037.337 544.695, 1036.526 544.022 C 1035.716 543.349, 1034.759 541.157, 1034.400 539.150 C 1034.041 537.142, 1033.164 534.825, 1032.451 534 C 1031.739 533.175, 1030.852 531.281, 1030.480 529.791 C 1030.108 528.301, 1029.173 526.558, 1028.402 525.919 C 1027.631 525.279, 1027 523.746, 1027 522.512 C 1027 521.279, 1026.100 519.126, 1025 517.727 C 1023.900 516.329, 1023 514.537, 1023 513.745 C 1023 512.954, 1022.100 511.268, 1021 510 C 1019.900 508.732, 1019 506.889, 1019 505.906 C 1019 504.923, 1018.504 503.812, 1017.898 503.437 C 1017.292 503.062, 1016.136 501.348, 1015.329 499.628 C 1014.523 497.908, 1012.787 494.700, 1011.472 492.500 C 1010.157 490.300, 1008.376 487.150, 1007.514 485.500 C 1004.880 480.458, 1003.396 478.095, 1001.661 476.178 C 1000.748 475.169, 1000 474.063, 1000 473.721 C 1000 473.380, 998.538 471.013, 996.750 468.462 C 994.962 465.911, 993.045 463.076, 992.488 462.162 C 990.267 458.515, 987.422 454.447, 986 452.885 C 985.175 451.979, 983.706 450.172, 982.735 448.869 C 975.083 438.598, 972.584 435.367, 971.616 434.490 C 971.002 433.934, 967.596 430.109, 964.048 425.990 C 947.590 406.886, 923.708 384.720, 902.987 369.316 C 897.205 365.017, 891.755 361.050, 890.877 360.500 C 889.999 359.950, 888.205 358.768, 886.890 357.873 C 882.361 354.791, 870.493 347.281, 867.500 345.603 C 865.850 344.678, 862.700 342.835, 860.500 341.508 C 858.300 340.181, 855.825 338.816, 855 338.476 C 854.175 338.135, 852.825 337.451, 852 336.957 C 850.106 335.822, 830.670 326.362, 826 324.302 C 824.075 323.453, 820.836 321.913, 818.802 320.879 C 816.768 319.846, 814.511 319, 813.787 319 C 813.063 319, 810.791 318.100, 808.739 317 C 806.686 315.900, 804.329 315, 803.500 315 C 802.671 315, 800.314 314.100, 798.261 313 C 796.209 311.900, 793.386 311, 791.987 311 C 790.589 311, 788.557 310.381, 787.473 309.625 C 786.388 308.869, 783.475 307.916, 781 307.507 C 778.525 307.098, 775.375 306.200, 774 305.512 C 772.625 304.823, 769.345 303.946, 766.712 303.563 C 764.078 303.180, 760.380 302.221, 758.494 301.433 C 756.608 300.645, 753.782 300, 752.214 300 C 750.647 300, 746.020 299.111, 741.932 298.024 C 737.845 296.936, 731.913 296.036, 728.750 296.024 C 725.587 296.011, 723 295.550, 723 295 C 723 294.346, 704.667 294, 670 294 C 635.333 294, 617 294.346, 617 295" stroke="none" fill="#040404" fill-rule="evenodd"/></svg>