<svg xmlns="http://www.w3.org/2000/svg" width="2000" height="2000" viewBox="0 0 2000 2000" version="1.1"><path d="" stroke="none" fill="#080404" fill-rule="evenodd"/><path d="M 617 295 C 617 295.550, 614.413 296.011, 611.250 296.024 C 608.087 296.036, 602.155 296.936, 598.068 298.024 C 593.980 299.111, 589.353 300, 587.786 300 C 586.218 300, 583.480 300.608, 581.701 301.351 C 579.922 302.095, 576.230 303.038, 573.497 303.448 C 570.763 303.858, 567.395 304.762, 566.013 305.458 C 564.631 306.153, 561.531 307.024, 559.125 307.393 C 556.718 307.762, 553.793 308.599, 552.625 309.254 C 551.456 309.909, 548.700 310.967, 546.500 311.606 C 540.972 313.211, 536.228 314.948, 531.390 317.139 C 529.130 318.162, 526.744 319, 526.089 319 C 525.433 319, 523.232 319.846, 521.198 320.879 C 519.164 321.913, 515.925 323.427, 514 324.244 C 508.776 326.460, 484.092 338.872, 479.500 341.592 C 477.300 342.894, 474.375 344.521, 473 345.207 C 471.625 345.893, 468.367 347.927, 465.760 349.727 C 463.153 351.527, 460.719 353, 460.351 353 C 459.983 353, 457.298 354.800, 454.384 357 C 451.470 359.200, 448.758 361, 448.357 361 C 447.957 361, 445.494 362.800, 442.885 365 C 440.276 367.200, 437.811 369, 437.408 369 C 436.690 369, 422.470 380.284, 420.500 382.417 C 419.950 383.013, 415.675 386.721, 411 390.659 C 401.557 398.611, 381.872 418.507, 375.044 427 C 372.612 430.025, 369.870 433.175, 368.952 434 C 367.504 435.300, 363.298 440.609, 357.215 448.813 C 356.272 450.085, 354.712 451.872, 353.750 452.785 C 352.788 453.698, 352 454.950, 352 455.567 C 352 456.185, 351.100 457.505, 350 458.500 C 348.900 459.495, 348 460.845, 348 461.500 C 348 462.155, 347.100 463.505, 346 464.500 C 344.900 465.495, 344 466.915, 344 467.655 C 344 468.395, 343.556 469, 343.013 469 C 342.471 469, 341.369 470.575, 340.564 472.500 C 339.760 474.425, 338.728 476, 338.270 476 C 337.813 476, 336.881 477.238, 336.199 478.750 C 334.185 483.219, 331.752 487.391, 330.329 488.813 C 329.598 489.545, 329 490.717, 329 491.418 C 329 492.120, 328.100 493.732, 327 495 C 325.900 496.268, 325 497.857, 325 498.531 C 325 499.204, 324.354 500.291, 323.564 500.947 C 322.775 501.602, 321.846 503.426, 321.500 505 C 321.154 506.574, 320.254 508.374, 319.500 509 C 318.746 509.626, 317.846 511.426, 317.500 513 C 317.154 514.574, 316.225 516.398, 315.436 517.053 C 314.646 517.709, 314 519.029, 314 519.988 C 314 520.946, 313.100 522.874, 312 524.273 C 310.900 525.671, 310 527.696, 310 528.773 C 310 529.849, 309.100 531.874, 308 533.273 C 306.900 534.671, 306 536.927, 306 538.285 C 306 539.644, 305.337 541.305, 304.526 541.978 C 303.716 542.651, 302.759 544.843, 302.400 546.850 C 302.041 548.858, 301.167 551.175, 300.458 552 C 299.749 552.825, 298.842 555.300, 298.443 557.500 C 298.043 559.700, 297.105 562.388, 296.358 563.473 C 295.611 564.557, 295 566.589, 295 567.987 C 295 569.386, 294.100 572.209, 293 574.261 C 291.900 576.314, 291 579.464, 291 581.261 C 291 583.059, 290.100 586.209, 289 588.261 C 287.900 590.314, 287 593.817, 287 596.046 C 287 598.275, 286.276 601.500, 285.390 603.212 C 284.505 604.924, 283.568 609.064, 283.308 612.412 C 283.048 615.760, 282.190 620.213, 281.403 622.308 C 280.615 624.402, 279.705 630.252, 279.381 635.308 C 279.057 640.363, 278.164 646.719, 277.396 649.432 C 275.376 656.567, 275.385 728.115, 277.406 737.188 C 278.180 740.660, 279.122 747.771, 279.500 752.991 C 279.878 758.211, 280.654 763.354, 281.224 764.419 C 281.794 765.484, 282.627 769.625, 283.075 773.621 C 283.524 777.617, 284.590 782.240, 285.445 783.894 C 286.300 785.548, 287 788.725, 287 790.954 C 287 793.183, 287.900 796.686, 289 798.739 C 290.100 800.791, 291 804.064, 291 806.013 C 291 807.961, 291.638 810.466, 292.417 811.579 C 293.197 812.692, 294.147 815.379, 294.530 817.551 C 294.912 819.723, 295.816 822.447, 296.540 823.604 C 297.263 824.761, 298.169 827.461, 298.554 829.604 C 298.939 831.747, 299.814 834.175, 300.500 835 C 301.186 835.825, 302.041 838.142, 302.400 840.150 C 302.759 842.157, 303.716 844.349, 304.526 845.022 C 305.337 845.695, 306 847.356, 306 848.715 C 306 850.073, 306.900 852.329, 308 853.727 C 309.100 855.126, 310 857.151, 310 858.227 C 310 859.304, 310.900 861.329, 312 862.727 C 313.100 864.126, 314 866.054, 314 867.012 C 314 867.971, 314.646 869.291, 315.436 869.947 C 316.225 870.602, 317.154 872.426, 317.500 874 C 317.846 875.574, 318.746 877.374, 319.500 878 C 320.254 878.626, 321.154 880.426, 321.500 882 C 321.846 883.574, 322.775 885.398, 323.564 886.053 C 324.354 886.709, 325 887.804, 325 888.488 C 325 889.171, 325.900 890.874, 327 892.273 C 328.100 893.671, 329 895.384, 329 896.079 C 329 896.774, 329.748 898.169, 330.661 899.178 C 332.336 901.028, 333.840 903.416, 336.210 907.986 C 336.920 909.354, 338.288 911.266, 339.250 912.236 C 340.213 913.206, 341 914.627, 341 915.393 C 341 916.159, 341.675 917.045, 342.500 917.362 C 343.325 917.678, 344 918.557, 344 919.316 C 344 920.074, 344.788 921.650, 345.750 922.818 C 346.713 923.987, 349.300 927.431, 351.500 930.472 C 357.274 938.453, 370.915 955.903, 375 960.533 C 384.955 971.817, 415.167 1000.615, 425.322 1008.500 C 436.355 1017.067, 439.466 1021, 435.211 1021 C 434.228 1021, 431.658 1021.900, 429.500 1023 C 427.342 1024.100, 425.139 1025, 424.604 1025 C 424.069 1025, 421.577 1025.928, 419.066 1027.063 C 409.979 1031.168, 406.437 1032.757, 403 1034.270 C 395.457 1037.591, 364.070 1053.290, 356.500 1057.529 C 352.100 1059.992, 347.375 1062.558, 346 1063.231 C 344.625 1063.904, 341.475 1065.825, 339 1067.500 C 336.525 1069.175, 333.375 1071.116, 332 1071.813 C 326.883 1074.405, 315.686 1081.626, 303 1090.516 C 299.975 1092.635, 294.350 1096.542, 290.500 1099.198 C 283.131 1104.281, 251.298 1129.096, 246.964 1133.136 C 245.569 1134.436, 240.169 1139.279, 234.964 1143.899 C 218.242 1158.739, 193.923 1183.093, 182 1196.940 C 178.975 1200.453, 175.698 1204.169, 174.718 1205.196 C 173.737 1206.224, 169.272 1211.663, 164.795 1217.282 C 160.318 1222.902, 155.945 1228.270, 155.078 1229.211 C 154.210 1230.152, 152.733 1231.952, 151.795 1233.211 C 150.858 1234.470, 147.370 1238.981, 144.045 1243.235 C 140.720 1247.489, 138 1251.357, 138 1251.830 C 138 1252.303, 137.100 1253.505, 136 1254.500 C 134.900 1255.495, 134 1256.893, 134 1257.605 C 134 1258.318, 133.438 1259.260, 132.750 1259.700 C 131.194 1260.696, 127 1266.607, 127 1267.805 C 127 1268.292, 126.100 1269.505, 125 1270.500 C 123.900 1271.495, 123 1272.845, 123 1273.500 C 123 1274.155, 122.100 1275.505, 121 1276.500 C 119.900 1277.495, 119 1278.845, 119 1279.500 C 119 1280.155, 118.100 1281.505, 117 1282.500 C 115.900 1283.495, 115 1284.883, 115 1285.584 C 115 1286.284, 114.402 1287.455, 113.671 1288.187 C 112.424 1289.433, 110.846 1292.081, 107.820 1298 C 107.117 1299.375, 105.970 1300.860, 105.271 1301.300 C 104.572 1301.740, 104 1302.691, 104 1303.415 C 104 1304.138, 103.100 1305.874, 102 1307.273 C 100.900 1308.671, 100 1310.462, 100 1311.253 C 100 1312.043, 99.100 1313.505, 98 1314.500 C 96.900 1315.495, 96 1317.114, 96 1318.096 C 96 1319.078, 95.504 1320.188, 94.898 1320.563 C 94.292 1320.938, 93.136 1322.652, 92.329 1324.372 C 89.902 1329.548, 87.950 1333.414, 86.963 1335 C 86.450 1335.825, 85.394 1337.908, 84.617 1339.628 C 83.840 1341.348, 82.708 1343.062, 82.102 1343.437 C 81.496 1343.812, 81 1345.148, 81 1346.406 C 81 1347.664, 80.100 1349.732, 79 1351 C 77.900 1352.268, 77 1354.068, 77 1355 C 77 1355.932, 76.100 1357.732, 75 1359 C 73.900 1360.268, 73 1362.307, 73 1363.531 C 73 1364.754, 72.354 1366.291, 71.564 1366.947 C 70.775 1367.602, 69.825 1369.570, 69.453 1371.319 C 69.081 1373.069, 68.203 1375.175, 67.500 1376 C 66.797 1376.825, 65.919 1378.931, 65.547 1380.681 C 65.175 1382.430, 64.225 1384.398, 63.436 1385.053 C 62.646 1385.709, 61.997 1387.202, 61.993 1388.372 C 61.990 1389.543, 61.093 1391.850, 60 1393.500 C 58.907 1395.150, 58.007 1397.400, 58 1398.500 C 57.993 1399.600, 57.093 1401.850, 56 1403.500 C 54.907 1405.150, 54.007 1407.625, 54 1409 C 53.993 1410.375, 53.093 1412.850, 52 1414.500 C 50.907 1416.150, 50.010 1418.637, 50.007 1420.027 C 50.003 1421.418, 49.339 1423.498, 48.532 1424.651 C 47.725 1425.803, 46.769 1428.595, 46.407 1430.854 C 46.046 1433.114, 45.132 1435.476, 44.375 1436.104 C 43.619 1436.731, 43 1438.659, 43 1440.387 C 43 1442.116, 42.100 1445.209, 41 1447.261 C 39.900 1449.314, 39 1452.346, 39 1454 C 39 1455.654, 38.100 1458.686, 37 1460.739 C 35.900 1462.791, 34.985 1466.052, 34.966 1467.985 C 34.947 1469.918, 34.063 1473.300, 33 1475.500 C 31.937 1477.700, 31.053 1481.210, 31.034 1483.300 C 31.015 1485.389, 30.354 1488.348, 29.565 1489.874 C 28.776 1491.400, 27.701 1495.540, 27.177 1499.074 C 26.652 1502.608, 25.753 1506.850, 25.178 1508.500 C 22.999 1514.749, 22 1529.487, 22 1555.359 C 22 1581.957, 22.949 1593.763, 25.548 1599.500 C 26.295 1601.150, 27.165 1604.142, 27.480 1606.150 C 27.795 1608.157, 28.716 1610.349, 29.526 1611.022 C 30.337 1611.695, 31 1613.246, 31 1614.469 C 31 1615.693, 31.900 1617.732, 33 1619 C 34.100 1620.268, 35 1622.292, 35 1623.498 C 35 1624.704, 35.900 1626.505, 37 1627.500 C 38.100 1628.495, 39 1630.154, 39 1631.186 C 39 1632.218, 39.658 1633.315, 40.462 1633.624 C 41.266 1633.932, 42.229 1635.147, 42.603 1636.323 C 43.292 1638.495, 46.636 1643.647, 48.552 1645.489 C 49.131 1646.045, 50.827 1648.337, 52.321 1650.582 C 57.030 1657.654, 76.471 1675.505, 86.768 1682.211 C 100.749 1691.315, 99.707 1690.744, 116.500 1698.489 C 118.150 1699.250, 121.075 1700.180, 123 1700.557 C 124.925 1700.933, 127.715 1701.862, 129.200 1702.620 C 130.686 1703.379, 133.273 1704, 134.950 1704 C 136.628 1704, 138 1704.450, 138 1705 C 138 1705.665, 316 1706, 670 1706 C 984.289 1706, 1202 1705.632, 1202 1705.101 C 1202 1704.606, 1203.912 1703.986, 1206.250 1703.724 C 1210.501 1703.246, 1216.978 1701.184, 1224.500 1697.914 C 1235.035 1693.335, 1239.938 1690.909, 1240.502 1689.997 C 1240.841 1689.449, 1241.707 1689, 1242.427 1689 C 1244.865 1689, 1260.960 1677.577, 1269.854 1669.533 C 1275.533 1664.398, 1284.499 1654.821, 1288.287 1649.847 C 1295.825 1639.947, 1297.960 1636.617, 1301.449 1629.318 C 1302.285 1627.568, 1303.392 1625.876, 1303.908 1625.557 C 1304.424 1625.238, 1305.135 1623.663, 1305.487 1622.058 C 1305.840 1620.452, 1306.775 1618.602, 1307.564 1617.947 C 1308.354 1617.291, 1309.003 1615.798, 1309.007 1614.628 C 1309.010 1613.457, 1309.907 1611.150, 1311 1609.500 C 1312.093 1607.850, 1312.993 1605.150, 1313 1603.500 C 1313.007 1601.850, 1313.907 1599.150, 1315 1597.500 C 1316.286 1595.558, 1316.989 1592.807, 1316.993 1589.700 C 1316.997 1587.027, 1317.775 1583.483, 1318.750 1581.700 C 1320.273 1578.915, 1320.500 1575.519, 1320.500 1555.500 C 1320.500 1537.538, 1320.191 1531.955, 1319.089 1530.014 C 1318.312 1528.647, 1317.341 1523.922, 1316.930 1519.514 C 1316.519 1515.106, 1315.469 1510.150, 1314.598 1508.500 C 1313.726 1506.850, 1313.010 1503.412, 1313.006 1500.859 C 1313.003 1498.307, 1312.110 1494.257, 1311.022 1491.859 C 1309.934 1489.462, 1309.034 1485.688, 1309.022 1483.473 C 1309.010 1481.257, 1308.305 1478.452, 1307.455 1477.239 C 1306.605 1476.026, 1305.634 1472.663, 1305.298 1469.766 C 1304.961 1466.870, 1304.134 1463.600, 1303.461 1462.500 C 1302.787 1461.400, 1301.948 1458.556, 1301.595 1456.180 C 1301.242 1453.803, 1300.247 1450.780, 1299.383 1449.462 C 1298.519 1448.143, 1297.967 1446.602, 1298.156 1446.038 C 1298.390 1445.340, 1389.761 1444.928, 1583.500 1444.752 C 1816.726 1444.539, 1869.136 1444.251, 1872 1443.171 C 1873.925 1442.444, 1877.975 1441.262, 1881 1440.544 C 1888.860 1438.678, 1892.316 1437.341, 1902.765 1432.125 C 1916.584 1425.226, 1916.968 1424.994, 1925.552 1418.338 C 1936.621 1409.755, 1941.713 1404.755, 1948.805 1395.500 C 1952.178 1391.100, 1955.514 1386.819, 1956.218 1385.986 C 1956.923 1385.154, 1958.059 1383.354, 1958.743 1381.986 C 1960.135 1379.200, 1961.575 1376.779, 1964.210 1372.790 C 1965.194 1371.300, 1966 1369.223, 1966 1368.175 C 1966 1367.127, 1966.900 1365.126, 1968 1363.727 C 1969.100 1362.329, 1970 1359.941, 1970 1358.421 C 1970 1356.901, 1970.689 1354.896, 1971.531 1353.966 C 1972.373 1353.036, 1973.336 1349.850, 1973.671 1346.887 C 1974.006 1343.924, 1974.980 1340.150, 1975.837 1338.500 C 1978.144 1334.055, 1978.157 1291.893, 1975.853 1287.500 C 1974.987 1285.850, 1974.009 1281.475, 1973.680 1277.778 C 1973.350 1274.081, 1972.387 1269.716, 1971.540 1268.078 C 1970.693 1266.440, 1969.985 1263.164, 1969.966 1260.800 C 1969.947 1258.435, 1969.063 1254.700, 1968 1252.500 C 1966.937 1250.300, 1966.053 1247.020, 1966.034 1245.210 C 1966.015 1243.401, 1965.100 1240.156, 1964 1238 C 1962.900 1235.844, 1962 1232.582, 1962 1230.751 C 1962 1228.921, 1961.100 1225.658, 1960 1223.500 C 1958.900 1221.342, 1958 1218.647, 1958 1217.511 C 1958 1216.375, 1957.389 1214.557, 1956.642 1213.473 C 1955.895 1212.388, 1954.957 1209.700, 1954.557 1207.500 C 1954.158 1205.300, 1953.255 1202.825, 1952.551 1202 C 1951.847 1201.175, 1951.004 1198.757, 1950.678 1196.626 C 1950.352 1194.495, 1949.391 1191.985, 1948.543 1191.047 C 1947.694 1190.110, 1947 1188.324, 1947 1187.079 C 1947 1185.834, 1946.100 1183.671, 1945 1182.273 C 1943.900 1180.874, 1942.997 1178.778, 1942.993 1177.615 C 1942.990 1176.452, 1942.093 1174.150, 1941 1172.500 C 1939.907 1170.850, 1939.010 1168.543, 1939.007 1167.372 C 1939.003 1166.202, 1938.354 1164.709, 1937.564 1164.053 C 1936.775 1163.398, 1935.846 1161.574, 1935.500 1160 C 1935.154 1158.426, 1934.225 1156.602, 1933.436 1155.947 C 1932.646 1155.291, 1932 1154.112, 1932 1153.326 C 1932 1152.101, 1929.926 1147.565, 1926.822 1142 C 1926.362 1141.175, 1925.491 1139.375, 1924.886 1138 C 1924.281 1136.625, 1923.375 1134.825, 1922.873 1134 C 1922.371 1133.175, 1921.263 1131.150, 1920.411 1129.500 C 1919.559 1127.850, 1917.787 1124.700, 1916.472 1122.500 C 1915.157 1120.300, 1913.385 1117.150, 1912.533 1115.500 C 1911.682 1113.850, 1909.887 1110.700, 1908.544 1108.500 C 1907.202 1106.300, 1905.677 1103.582, 1905.156 1102.459 C 1904.635 1101.336, 1903.486 1099.819, 1902.604 1099.086 C 1901.722 1098.354, 1901 1097.378, 1901 1096.916 C 1901 1096.455, 1898.525 1092.442, 1895.500 1088 C 1892.475 1083.558, 1890 1079.668, 1890 1079.356 C 1890 1079.044, 1888.987 1077.549, 1887.750 1076.033 C 1886.513 1074.518, 1884.825 1072.255, 1884 1071.004 C 1883.175 1069.754, 1880.587 1066.347, 1878.250 1063.433 C 1875.912 1060.519, 1874 1057.655, 1874 1057.067 C 1874 1056.480, 1873.562 1056, 1873.026 1056 C 1872.490 1056, 1871.397 1054.763, 1870.597 1053.250 C 1869.797 1051.737, 1867.873 1049.128, 1866.321 1047.452 C 1864.770 1045.776, 1862.209 1042.851, 1860.631 1040.952 C 1843.226 1020.009, 1826.102 1002.153, 1807.995 986.064 C 1802.773 981.424, 1798.275 977.353, 1798 977.019 C 1797.188 976.031, 1768.899 953.783, 1764 950.279 C 1754.357 943.382, 1736.990 931.944, 1725 924.596 C 1718.948 920.886, 1717.617 920.118, 1713 917.673 C 1710.525 916.363, 1705.800 913.807, 1702.500 911.995 C 1694.567 907.637, 1688.787 904.754, 1681.500 901.519 C 1672.424 897.490, 1667 894.587, 1667 893.759 C 1667 893.350, 1668.462 891.799, 1670.250 890.311 C 1682.497 880.121, 1718 840.557, 1718 837.099 C 1718 836.549, 1718.563 835.740, 1719.250 835.300 C 1720.806 834.304, 1725 828.393, 1725 827.195 C 1725 826.708, 1725.900 825.495, 1727 824.500 C 1728.100 823.505, 1729 822.080, 1729 821.335 C 1729 820.590, 1729.900 819.210, 1731 818.268 C 1732.100 817.326, 1733 815.825, 1733 814.933 C 1733 814.040, 1733.900 812.495, 1735 811.500 C 1736.100 810.505, 1737 809.043, 1737 808.253 C 1737 807.462, 1737.900 805.671, 1739 804.273 C 1740.100 802.874, 1741 801.171, 1741 800.488 C 1741 799.804, 1741.646 798.709, 1742.436 798.053 C 1743.225 797.398, 1744.154 795.574, 1744.500 794 C 1744.846 792.426, 1745.775 790.602, 1746.564 789.947 C 1747.354 789.291, 1748 787.971, 1748 787.012 C 1748 786.054, 1748.900 784.126, 1750 782.727 C 1751.100 781.329, 1752 779.304, 1752 778.227 C 1752 777.151, 1752.900 775.126, 1754 773.727 C 1755.100 772.329, 1756.003 770.131, 1756.007 768.842 C 1756.010 767.554, 1756.907 765.150, 1758 763.500 C 1759.093 761.850, 1759.990 759.588, 1759.993 758.473 C 1759.997 757.357, 1760.638 755.534, 1761.417 754.421 C 1762.197 753.308, 1763.147 750.621, 1763.530 748.449 C 1763.912 746.277, 1764.783 743.600, 1765.465 742.500 C 1766.148 741.400, 1767.033 738.250, 1767.431 735.500 C 1767.830 732.750, 1768.725 729.600, 1769.421 728.500 C 1770.117 727.400, 1770.976 723.676, 1771.330 720.225 C 1771.685 716.774, 1772.655 712.633, 1773.487 711.025 C 1774.319 709.416, 1775 705.590, 1775 702.523 C 1775 699.456, 1775.929 693.363, 1777.064 688.983 C 1779.013 681.465, 1779.107 678.882, 1778.743 642.760 C 1778.415 610.255, 1778.105 603.762, 1776.679 599.591 C 1775.755 596.891, 1775 592.103, 1775 588.950 C 1775 585.375, 1774.256 581.578, 1773.022 578.859 C 1771.934 576.462, 1771.034 572.463, 1771.022 569.973 C 1771.010 567.482, 1770.321 564.475, 1769.490 563.289 C 1768.660 562.104, 1767.692 558.966, 1767.341 556.317 C 1766.989 553.668, 1766.094 550.612, 1765.351 549.527 C 1764.608 548.443, 1764 546.411, 1764 545.013 C 1764 543.614, 1763.100 540.791, 1762 538.739 C 1760.900 536.686, 1760 533.941, 1760 532.638 C 1760 531.336, 1759.100 529.126, 1758 527.727 C 1756.900 526.329, 1756 524.073, 1756 522.715 C 1756 521.356, 1755.337 519.695, 1754.526 519.022 C 1753.716 518.349, 1752.769 516.285, 1752.422 514.435 C 1752.075 512.585, 1751.192 510.574, 1750.460 509.967 C 1749.728 509.359, 1748.846 507.574, 1748.500 506 C 1748.154 504.426, 1747.254 502.626, 1746.500 502 C 1745.746 501.374, 1744.846 499.574, 1744.500 498 C 1744.154 496.426, 1743.225 494.602, 1742.436 493.947 C 1741.646 493.291, 1741 492.117, 1741 491.337 C 1741 490.557, 1740.194 488.700, 1739.210 487.210 C 1736.158 482.590, 1735.010 480.609, 1733.538 477.420 C 1732.756 475.727, 1731.415 473.759, 1730.558 473.048 C 1729.701 472.337, 1729 471.374, 1729 470.909 C 1729 469.691, 1720.740 457.651, 1719.252 456.700 C 1718.563 456.260, 1718 455.423, 1718 454.839 C 1718 454.255, 1716.200 451.628, 1714 449 C 1711.800 446.372, 1710 443.760, 1710 443.195 C 1710 442.629, 1709.588 442.017, 1709.084 441.833 C 1708.580 441.650, 1705.845 438.575, 1703.005 435 C 1693.373 422.875, 1673.468 403.375, 1658.775 391.671 C 1656.176 389.601, 1653.476 387.355, 1652.775 386.681 C 1652.074 386.007, 1649.025 383.782, 1646 381.737 C 1642.975 379.692, 1638.700 376.732, 1636.500 375.160 C 1628.501 369.443, 1621.458 365, 1620.396 365 C 1619.799 365, 1618.495 364.100, 1617.500 363 C 1616.505 361.900, 1615.043 361, 1614.253 361 C 1613.462 361, 1611.671 360.100, 1610.273 359 C 1608.874 357.900, 1606.918 357, 1605.924 357 C 1604.931 357, 1603.837 356.545, 1603.493 355.989 C 1602.942 355.097, 1599.443 353.360, 1586 347.305 C 1573.206 341.543, 1564.134 338.015, 1561.981 337.966 C 1561.166 337.947, 1558.700 337.063, 1556.500 336 C 1554.300 334.937, 1551.375 334.050, 1550 334.028 C 1548.625 334.006, 1546.170 333.294, 1544.545 332.447 C 1542.919 331.599, 1539.544 330.663, 1537.045 330.366 C 1534.545 330.069, 1530.842 329.206, 1528.816 328.448 C 1526.790 327.690, 1522.065 326.764, 1518.316 326.392 C 1514.567 326.019, 1510.375 325.272, 1509 324.732 C 1507.625 324.192, 1496.825 323.139, 1485 322.393 C 1462.324 320.961, 1426.145 321.887, 1415.500 324.172 C 1412.750 324.762, 1406.900 325.809, 1402.500 326.499 C 1398.100 327.189, 1393.150 328.227, 1391.500 328.806 C 1389.850 329.385, 1386.250 330.286, 1383.500 330.809 C 1380.750 331.331, 1377.150 332.215, 1375.500 332.774 C 1365.735 336.082, 1362.139 337.226, 1359.083 338 C 1357.204 338.475, 1354.167 339.570, 1352.333 340.432 C 1343.937 344.381, 1342.298 345.032, 1339.272 345.617 C 1337.497 345.960, 1335.530 346.862, 1334.900 347.621 C 1334.270 348.379, 1333.297 349, 1332.737 349 C 1331.716 349, 1323.809 352.457, 1321 354.131 C 1320.175 354.623, 1317.700 355.918, 1315.500 357.010 C 1309.094 360.189, 1300.633 365.083, 1298.921 366.601 C 1298.053 367.370, 1296.928 368.010, 1296.421 368.022 C 1295.592 368.043, 1289.729 371.917, 1275.397 381.917 C 1257.445 394.441, 1231.317 419.239, 1215.776 438.500 C 1215.332 439.050, 1213.963 440.673, 1212.734 442.107 C 1211.506 443.541, 1209.825 445.741, 1209 446.996 C 1208.175 448.251, 1205.925 451.366, 1204 453.919 C 1198.180 461.636, 1196 464.874, 1196 465.805 C 1196 466.292, 1195.100 467.505, 1194 468.500 C 1192.900 469.495, 1192 470.845, 1192 471.500 C 1192 472.155, 1191.100 473.505, 1190 474.500 C 1188.900 475.495, 1188 477.114, 1188 478.096 C 1188 479.078, 1187.504 480.188, 1186.898 480.563 C 1186.292 480.938, 1185.161 482.764, 1184.385 484.622 C 1183.608 486.480, 1182.565 488, 1182.066 488 C 1181.567 488, 1180.869 489.319, 1180.515 490.931 C 1180.161 492.543, 1179.225 494.398, 1178.436 495.053 C 1177.646 495.709, 1177 497.029, 1177 497.988 C 1177 498.946, 1176.100 500.874, 1175 502.273 C 1173.900 503.671, 1172.997 505.419, 1172.993 506.158 C 1172.990 506.896, 1172.093 508.850, 1171 510.500 C 1169.907 512.150, 1169.010 514.329, 1169.007 515.342 C 1169.003 516.356, 1168.100 518.329, 1167 519.727 C 1165.900 521.126, 1165 523.111, 1165 524.138 C 1165 525.166, 1164.100 527.686, 1163 529.739 C 1161.900 531.791, 1161 534.434, 1161 535.613 C 1161 536.791, 1160.325 538.315, 1159.500 539 C 1158.675 539.685, 1158 541.659, 1158 543.387 C 1158 545.116, 1157.100 548.209, 1156 550.261 C 1154.900 552.314, 1153.985 555.457, 1153.966 557.246 C 1153.947 559.036, 1153.063 562.300, 1152 564.500 C 1150.937 566.700, 1150.050 570.525, 1150.028 573 C 1150.006 575.475, 1149.277 578.850, 1148.409 580.500 C 1147.541 582.150, 1146.619 586.875, 1146.361 591 C 1146.102 595.125, 1145.128 601.200, 1144.195 604.500 C 1142.743 609.640, 1142.502 615.659, 1142.512 646.500 C 1142.522 678.174, 1142.732 683.075, 1144.262 687.285 C 1145.218 689.917, 1146 694.765, 1146 698.060 C 1146 701.487, 1146.856 706.485, 1148 709.740 C 1149.100 712.870, 1150 717.152, 1150 719.255 C 1150 721.359, 1150.900 724.844, 1152 727 C 1153.100 729.156, 1154 732.418, 1154 734.249 C 1154 736.079, 1154.900 739.342, 1156 741.500 C 1157.100 743.658, 1158 746.469, 1158 747.747 C 1158 749.025, 1158.624 751.067, 1159.388 752.285 C 1160.151 753.503, 1161.063 756.142, 1161.414 758.150 C 1161.766 760.157, 1162.716 762.349, 1163.526 763.022 C 1164.337 763.695, 1165 765.479, 1165 766.988 C 1165 768.496, 1165.900 770.874, 1167 772.273 C 1168.100 773.671, 1169 775.696, 1169 776.773 C 1169 777.849, 1169.900 779.874, 1171 781.273 C 1172.100 782.671, 1173 784.574, 1173 785.500 C 1173 786.426, 1173.900 788.329, 1175 789.727 C 1176.100 791.126, 1177 793.082, 1177 794.076 C 1177 795.069, 1177.496 796.188, 1178.102 796.563 C 1178.708 796.938, 1179.851 798.652, 1180.643 800.372 C 1181.434 802.092, 1183.157 805.300, 1184.472 807.500 C 1185.787 809.700, 1187.581 812.850, 1188.458 814.500 C 1191.237 819.724, 1192.631 821.934, 1194.339 823.822 C 1195.252 824.831, 1196 826.115, 1196 826.674 C 1196 827.233, 1196.900 828.505, 1198 829.500 C 1199.100 830.495, 1200 831.915, 1200 832.655 C 1200 833.395, 1200.406 834, 1200.901 834 C 1201.397 834, 1202.674 835.462, 1203.739 837.250 C 1208.431 845.127, 1224.528 863.757, 1239.381 878.503 L 1255.500 894.506 1251 896.577 C 1248.525 897.717, 1243.588 899.965, 1240.028 901.574 C 1233.134 904.691, 1210.108 916.838, 1200.734 922.304 C 1170.393 939.995, 1139.167 963.185, 1109.629 989.963 C 1085.732 1011.627, 1053.654 1048.024, 1038.223 1070.982 C 1035.827 1074.548, 1033.559 1077.698, 1033.183 1077.982 C 1032.807 1078.267, 1032.020 1079.370, 1031.433 1080.433 C 1029.396 1084.125, 1027.317 1084.641, 1024.286 1082.208 C 1022.754 1080.978, 1020.375 1079.426, 1019 1078.759 C 1017.625 1078.092, 1014.367 1076.073, 1011.760 1074.273 C 1009.153 1072.473, 1006.714 1071, 1006.339 1071 C 1005.964 1071, 1004.947 1070.370, 1004.079 1069.601 C 1002.410 1068.121, 994.194 1063.353, 987.500 1059.979 C 985.300 1058.870, 980.350 1056.200, 976.500 1054.046 C 969.742 1050.264, 963.606 1047.129, 952 1041.527 C 948.975 1040.067, 945.825 1038.518, 945 1038.084 C 943.539 1037.316, 938.378 1034.953, 929.750 1031.104 C 927.413 1030.061, 923.250 1028.311, 920.500 1027.215 C 917.750 1026.119, 914.150 1024.631, 912.500 1023.909 C 910.850 1023.187, 907.961 1022.120, 906.080 1021.538 C 901.595 1020.152, 901.178 1018.476, 904.846 1016.580 C 906.481 1015.734, 907.972 1014.677, 908.160 1014.230 C 908.347 1013.784, 913 1009.858, 918.500 1005.507 C 931.641 995.110, 961.611 965.143, 971.500 952.512 C 972.600 951.107, 975.050 948.154, 976.944 945.949 C 981.987 940.078, 1000 914.528, 1000 913.245 C 1000 912.922, 1000.748 911.831, 1001.661 910.822 C 1003.369 908.934, 1004.763 906.724, 1007.542 901.500 C 1008.419 899.850, 1010.213 896.700, 1011.528 894.500 C 1012.843 892.300, 1014.566 889.092, 1015.357 887.372 C 1016.149 885.652, 1017.292 883.938, 1017.898 883.563 C 1018.504 883.188, 1019 882.192, 1019 881.349 C 1019 880.505, 1019.900 878.671, 1021 877.273 C 1022.100 875.874, 1023 874.074, 1023 873.273 C 1023 872.471, 1023.900 870.671, 1025 869.273 C 1026.100 867.874, 1027 865.946, 1027 864.988 C 1027 864.029, 1027.675 862.685, 1028.500 862 C 1029.325 861.315, 1030 860.005, 1030 859.089 C 1030 858.173, 1030.874 855.709, 1031.942 853.614 C 1033.010 851.519, 1034.164 848.530, 1034.506 846.971 C 1034.849 845.413, 1035.775 843.602, 1036.564 842.947 C 1037.354 842.291, 1038.003 840.573, 1038.007 839.128 C 1038.010 837.682, 1038.907 835.150, 1040 833.500 C 1041.093 831.850, 1041.990 829.486, 1041.993 828.246 C 1041.997 827.007, 1042.900 824.314, 1044 822.261 C 1045.100 820.209, 1046 817.488, 1046 816.215 C 1046 814.942, 1046.683 812.581, 1047.517 810.968 C 1048.351 809.354, 1049.322 805.889, 1049.675 803.267 C 1050.027 800.645, 1050.867 797.600, 1051.540 796.500 C 1052.213 795.400, 1053.051 791.874, 1053.401 788.664 C 1053.751 785.454, 1054.641 781.629, 1055.379 780.164 C 1056.117 778.699, 1056.985 774.575, 1057.308 771 C 1057.630 767.425, 1058.593 762.531, 1059.447 760.124 C 1060.301 757.718, 1061 752.636, 1061 748.832 C 1061 745.028, 1061.787 738.447, 1062.750 734.208 C 1064.228 727.696, 1064.500 721.302, 1064.500 693 C 1064.500 664.504, 1064.239 658.425, 1062.750 652.303 C 1061.787 648.344, 1061 641.803, 1061 637.768 C 1061 632.994, 1060.301 628.443, 1059 624.740 C 1057.900 621.611, 1057 616.664, 1057 613.747 C 1057 610.688, 1056.375 607.553, 1055.522 606.335 C 1054.709 605.174, 1053.747 601.587, 1053.383 598.362 C 1053.020 595.138, 1052.168 591.375, 1051.491 590 C 1050.814 588.625, 1049.958 585.423, 1049.589 582.885 C 1049.220 580.347, 1048.276 577.422, 1047.491 576.385 C 1046.706 575.348, 1046.049 573.143, 1046.032 571.485 C 1046.014 569.827, 1045.100 566.791, 1044 564.739 C 1042.900 562.686, 1041.997 559.993, 1041.993 558.754 C 1041.990 557.514, 1041.093 555.150, 1040 553.500 C 1038.907 551.850, 1038.010 549.318, 1038.007 547.872 C 1038.003 546.427, 1037.337 544.695, 1036.526 544.022 C 1035.716 543.349, 1034.759 541.157, 1034.400 539.150 C 1034.041 537.142, 1033.164 534.825, 1032.451 534 C 1031.739 533.175, 1030.852 531.281, 1030.480 529.791 C 1030.108 528.301, 1029.173 526.558, 1028.402 525.919 C 1027.631 525.279, 1027 523.746, 1027 522.512 C 1027 521.279, 1026.100 519.126, 1025 517.727 C 1023.900 516.329, 1023 514.537, 1023 513.745 C 1023 512.954, 1022.100 511.268, 1021 510 C 1019.900 508.732, 1019 506.889, 1019 505.906 C 1019 504.923, 1018.504 503.812, 1017.898 503.437 C 1017.292 503.062, 1016.136 501.348, 1015.329 499.628 C 1014.523 497.908, 1012.787 494.700, 1011.472 492.500 C 1010.157 490.300, 1008.376 487.150, 1007.514 485.500 C 1004.880 480.458, 1003.396 478.095, 1001.661 476.178 C 1000.748 475.169, 1000 474.063, 1000 473.721 C 1000 473.380, 998.538 471.013, 996.750 468.462 C 994.962 465.911, 993.045 463.076, 992.488 462.162 C 990.267 458.515, 987.422 454.447, 986 452.885 C 985.175 451.979, 983.706 450.172, 982.735 448.869 C 975.083 438.598, 972.584 435.367, 971.616 434.490 C 971.002 433.934, 967.596 430.109, 964.048 425.990 C 947.590 406.886, 923.708 384.720, 902.987 369.316 C 897.205 365.017, 891.755 361.050, 890.877 360.500 C 889.999 359.950, 888.205 358.768, 886.890 357.873 C 882.361 354.791, 870.493 347.281, 867.500 345.603 C 865.850 344.678, 862.700 342.835, 860.500 341.508 C 858.300 340.181, 855.825 338.816, 855 338.476 C 854.175 338.135, 852.825 337.451, 852 336.957 C 850.106 335.822, 830.670 326.362, 826 324.302 C 824.075 323.453, 820.836 321.913, 818.802 320.879 C 816.768 319.846, 814.511 319, 813.787 319 C 813.063 319, 810.791 318.100, 808.739 317 C 806.686 315.900, 804.329 315, 803.500 315 C 802.671 315, 800.314 314.100, 798.261 313 C 796.209 311.900, 793.386 311, 791.987 311 C 790.589 311, 788.557 310.381, 787.473 309.625 C 786.388 308.869, 783.475 307.916, 781 307.507 C 778.525 307.098, 775.375 306.200, 774 305.512 C 772.625 304.823, 769.345 303.946, 766.712 303.563 C 764.078 303.180, 760.380 302.221, 758.494 301.433 C 756.608 300.645, 753.782 300, 752.214 300 C 750.647 300, 746.020 299.111, 741.932 298.024 C 737.845 296.936, 731.913 296.036, 728.750 296.024 C 725.587 296.011, 723 295.550, 723 295 C 723 294.346, 704.667 294, 670 294 C 635.333 294, 617 294.346, 617 295 M 647 411.511 C 642.325 412.193, 634.450 413.246, 629.500 413.849 C 618.399 415.203, 611.429 416.560, 603 419.009 C 599.425 420.048, 595.375 421.110, 594 421.368 C 588.523 422.398, 564.071 431.538, 560 434.077 C 559.175 434.592, 557.825 435.265, 557 435.573 C 554.640 436.455, 537.926 444.997, 533.500 447.583 C 531.300 448.869, 528.150 450.673, 526.500 451.591 C 524.850 452.510, 520.469 455.453, 516.765 458.131 C 513.061 460.809, 509.611 463, 509.099 463 C 508.586 463, 508.017 463.350, 507.833 463.778 C 507.650 464.206, 504.800 466.715, 501.500 469.353 C 485.670 482.007, 471.924 495.364, 459.670 510 C 453.216 517.708, 450 521.921, 450 522.667 C 450 523.155, 449.100 524.326, 448 525.268 C 446.900 526.210, 446 527.660, 446 528.490 C 446 529.321, 445.630 530, 445.178 530 C 444.183 530, 439.406 537.144, 438.508 539.974 C 438.155 541.088, 437.452 542, 436.946 542 C 436.440 542, 435.355 543.462, 434.534 545.250 C 433.079 548.416, 432.578 549.357, 430.138 553.500 C 429.490 554.600, 428.301 556.932, 427.495 558.682 C 426.689 560.432, 425.608 562.124, 425.092 562.443 C 424.576 562.762, 423.865 564.337, 423.513 565.942 C 423.160 567.548, 422.272 569.359, 421.540 569.967 C 420.808 570.574, 419.925 572.585, 419.578 574.435 C 419.231 576.285, 418.284 578.349, 417.474 579.022 C 416.663 579.695, 415.997 581.202, 415.993 582.372 C 415.990 583.543, 415.093 585.850, 414 587.500 C 412.907 589.150, 412.007 591.625, 412 593 C 411.993 594.375, 411.093 596.850, 410 598.500 C 408.907 600.150, 408.010 602.739, 408.007 604.254 C 408.003 605.768, 407.100 608.686, 406 610.739 C 404.900 612.791, 404 615.962, 404 617.785 C 404 619.608, 403.357 622.343, 402.571 623.863 C 401.785 625.383, 400.822 629.523, 400.431 633.064 C 400.040 636.604, 399.263 640.625, 398.703 642 C 398.144 643.375, 397.115 650.800, 396.418 658.500 C 395.720 666.200, 394.677 677.225, 394.099 683 C 393.418 689.814, 393.372 696.835, 393.967 703 C 394.472 708.225, 395.387 718.575, 396.001 726 C 396.615 733.425, 397.734 741.525, 398.487 744 C 399.240 746.475, 400.160 751.200, 400.531 754.499 C 400.902 757.798, 401.835 761.714, 402.603 763.199 C 403.371 764.685, 404 767.392, 404 769.215 C 404 771.038, 404.900 774.209, 406 776.261 C 407.100 778.314, 408.003 781.232, 408.007 782.746 C 408.010 784.261, 408.907 786.850, 410 788.500 C 411.093 790.150, 411.993 792.625, 412 794 C 412.007 795.375, 412.907 797.850, 414 799.500 C 415.093 801.150, 415.990 803.457, 415.993 804.628 C 415.997 805.798, 416.663 807.305, 417.474 807.978 C 418.284 808.651, 419.231 810.715, 419.578 812.565 C 419.925 814.415, 420.808 816.426, 421.540 817.033 C 422.272 817.641, 423.154 819.426, 423.500 821 C 423.846 822.574, 424.775 824.398, 425.564 825.053 C 426.354 825.709, 427 827.020, 427 827.967 C 427 828.915, 427.900 830.505, 429 831.500 C 430.100 832.495, 431 834.114, 431 835.096 C 431 836.078, 431.494 837.188, 432.099 837.561 C 432.703 837.935, 433.716 839.430, 434.349 840.885 C 435.493 843.514, 446.332 860.119, 448.782 862.995 C 449.486 863.823, 452.749 867.981, 456.032 872.235 C 474.090 895.638, 505.680 923.639, 529.816 937.636 C 536.195 941.335, 565.456 956.016, 566.434 956.008 C 566.948 956.004, 569.198 956.868, 571.434 957.929 C 573.670 958.989, 577.394 960.352, 579.708 960.956 C 582.022 961.560, 584.186 962.492, 584.517 963.027 C 584.847 963.562, 586.200 964, 587.522 964 C 588.844 964, 592.209 964.900, 595 966 C 597.791 967.100, 601.295 968, 602.787 968.001 C 604.279 968.001, 607.867 968.901, 610.761 970.001 C 613.654 971.100, 617.864 972, 620.116 972 C 622.369 972, 626.976 972.777, 630.356 973.726 C 635.611 975.202, 641.344 975.454, 670 975.467 C 698.853 975.480, 704.352 975.241, 709.644 973.741 C 713.024 972.784, 717.539 972, 719.679 972 C 721.819 972, 726.130 971.100, 729.260 970 C 732.389 968.900, 736.070 968, 737.438 968 C 738.806 968, 742.209 967.100, 745 966 C 747.791 964.900, 750.836 964, 751.768 964 C 753.484 964, 761.150 961.188, 768.566 957.837 C 770.802 956.827, 773.052 956.002, 773.566 956.004 C 774.387 956.008, 785.991 950.637, 791.500 947.703 C 792.600 947.118, 796.200 945.236, 799.500 943.522 C 805.212 940.555, 808.814 938.403, 819 931.871 C 826.194 927.259, 826.681 926.905, 837.556 918.392 C 850.121 908.556, 866.776 892.742, 876.152 881.746 C 877.443 880.231, 880.187 877.100, 882.249 874.787 C 884.311 872.475, 886.254 869.777, 886.566 868.791 C 886.879 867.806, 887.479 867, 887.899 867 C 888.319 867, 890.177 864.638, 892.026 861.750 C 893.876 858.862, 895.639 856.275, 895.945 856 C 897.322 854.760, 901.129 848.792, 901.995 846.514 C 902.520 845.131, 903.368 844, 903.877 844 C 904.387 844, 905.292 842.763, 905.888 841.250 C 906.962 838.522, 907.913 836.818, 911.045 832 C 911.939 830.625, 912.979 828.263, 913.355 826.750 C 913.730 825.237, 914.462 824, 914.981 824 C 915.499 824, 916.408 822.200, 917 820 C 917.592 817.800, 918.489 816, 918.993 816 C 919.497 816, 920.202 814.441, 920.559 812.536 C 920.917 810.630, 921.825 808.560, 922.578 807.935 C 923.331 807.310, 924.241 805.157, 924.600 803.150 C 924.959 801.142, 925.891 798.768, 926.669 797.874 C 927.448 796.980, 928.352 794.505, 928.678 792.374 C 929.004 790.243, 929.825 787.825, 930.502 787 C 931.180 786.175, 932.033 783.530, 932.399 781.123 C 932.765 778.716, 933.725 775.803, 934.532 774.651 C 935.339 773.498, 936 771.097, 936 769.315 C 936 767.532, 936.900 763.791, 938 761 C 939.100 758.209, 940 754.100, 940 751.868 C 940 749.636, 940.866 744.816, 941.925 741.155 C 946.501 725.329, 946.455 660.182, 941.857 645.620 C 940.836 642.386, 940 637.790, 940 635.407 C 940 633.024, 939.100 628.791, 938 626 C 936.900 623.209, 936 619.468, 936 617.685 C 936 615.903, 935.339 613.502, 934.532 612.349 C 933.725 611.197, 932.754 608.284, 932.376 605.877 C 931.997 603.470, 931.127 600.600, 930.442 599.500 C 929.757 598.400, 928.877 595.925, 928.487 594 C 928.097 592.075, 927.209 589.825, 926.515 589 C 925.821 588.175, 924.951 585.813, 924.581 583.750 C 924.212 581.688, 923.488 580, 922.974 580 C 922.459 580, 921.739 578.763, 921.373 577.250 C 920.793 574.850, 918.527 569.849, 915.822 565 C 914.967 563.467, 913.656 560.676, 912.534 558 C 912.188 557.175, 910.806 554.700, 909.464 552.500 C 908.122 550.300, 906.524 547.263, 905.914 545.750 C 905.304 544.237, 904.387 543, 903.877 543 C 903.368 543, 902.520 541.869, 901.995 540.486 C 901.165 538.303, 897.479 532.474, 895.997 531 C 895.721 530.725, 894.160 528.475, 892.529 526 C 890.898 523.525, 888.995 520.825, 888.301 520 C 887.606 519.175, 886.017 517.288, 884.769 515.807 C 883.521 514.325, 880.925 511.198, 879 508.858 C 868.664 496.290, 859.649 487.230, 846.512 476.208 C 841.569 472.061, 837.012 468.180, 836.385 467.584 C 835.758 466.988, 834.248 465.825, 833.030 465 C 831.812 464.175, 828.164 461.587, 824.923 459.250 C 821.683 456.913, 818.822 455, 818.566 455 C 818.310 455, 815.940 453.538, 813.300 451.750 C 800.750 443.253, 762.567 425.094, 756.981 424.966 C 756.166 424.947, 753.700 424.063, 751.500 423 C 749.300 421.937, 746.279 421.053, 744.787 421.034 C 743.295 421.015, 739.791 420.100, 737 419 C 734.209 417.900, 730.424 417, 728.589 417 C 726.753 417, 723.491 416.379, 721.339 415.620 C 719.187 414.860, 711.818 413.700, 704.963 413.042 C 698.108 412.383, 690.301 411.429, 687.614 410.922 C 680.917 409.658, 657.343 410, 647 411.511 M 1440.500 441.077 C 1438.300 441.606, 1433.125 442.522, 1429 443.114 C 1424.875 443.705, 1418.678 445.046, 1415.229 446.094 C 1411.780 447.142, 1407.964 448, 1406.748 448 C 1404.580 448, 1397.486 450.525, 1389.434 454.163 C 1387.198 455.173, 1384.900 456, 1384.326 456 C 1383.753 456, 1380.263 457.575, 1376.569 459.500 C 1372.876 461.425, 1369.419 463, 1368.887 463 C 1368.355 463, 1366.700 463.833, 1365.210 464.852 C 1363.719 465.870, 1359.665 468.458, 1356.199 470.602 C 1336.957 482.507, 1315.832 502.143, 1301.442 521.500 C 1298.988 524.800, 1296.310 528.379, 1295.491 529.453 C 1294.671 530.528, 1294 531.921, 1294 532.548 C 1294 533.176, 1293.100 534.505, 1292 535.500 C 1290.900 536.495, 1290 538.040, 1290 538.933 C 1290 539.825, 1289.100 541.326, 1288 542.268 C 1286.900 543.210, 1286 544.837, 1286 545.883 C 1286 546.930, 1285.350 548.036, 1284.555 548.340 C 1283.761 548.645, 1282.813 550.478, 1282.451 552.412 C 1282.088 554.346, 1281.163 556.450, 1280.395 557.087 C 1279.628 557.724, 1279 559.029, 1279 559.988 C 1279 560.946, 1278.100 562.874, 1277 564.273 C 1275.900 565.671, 1274.997 568.094, 1274.993 569.658 C 1274.990 571.221, 1274.093 573.850, 1273 575.500 C 1271.907 577.150, 1271.010 579.637, 1271.007 581.027 C 1271.003 582.418, 1270.291 584.567, 1269.425 585.804 C 1268.559 587.040, 1267.606 590.628, 1267.308 593.776 C 1267.009 596.924, 1266.125 600.524, 1265.343 601.776 C 1264.544 603.054, 1263.529 608.755, 1263.028 614.776 C 1262.537 620.674, 1261.581 630.113, 1260.904 635.750 C 1259.928 643.872, 1259.928 648.128, 1260.905 656.250 C 1261.584 661.888, 1262.517 671.057, 1262.980 676.627 C 1263.453 682.318, 1264.517 688.100, 1265.411 689.827 C 1266.285 691.518, 1267.010 694.611, 1267.022 696.700 C 1267.034 698.790, 1267.934 702.462, 1269.022 704.859 C 1270.110 707.257, 1271.003 710.182, 1271.007 711.359 C 1271.010 712.537, 1271.907 714.850, 1273 716.500 C 1274.093 718.150, 1274.993 720.625, 1275 722 C 1275.007 723.375, 1275.907 725.850, 1277 727.500 C 1278.093 729.150, 1278.990 731.232, 1278.993 732.128 C 1278.997 733.023, 1279.602 734.255, 1280.338 734.866 C 1281.074 735.476, 1282.217 737.782, 1282.878 739.988 C 1283.539 742.195, 1284.512 744, 1285.040 744 C 1285.568 744, 1286 744.614, 1286 745.365 C 1286 746.116, 1286.900 747.874, 1288 749.273 C 1289.100 750.671, 1290 752.462, 1290 753.253 C 1290 754.043, 1290.900 755.505, 1292 756.500 C 1293.100 757.495, 1294 758.845, 1294 759.500 C 1294 760.155, 1294.900 761.505, 1296 762.500 C 1297.100 763.495, 1298 764.893, 1298 765.605 C 1298 766.318, 1298.563 767.260, 1299.250 767.700 C 1299.938 768.140, 1301.740 770.298, 1303.255 772.495 C 1309.991 782.263, 1325.302 798.009, 1338.051 808.278 C 1345.105 813.960, 1358.270 823, 1359.492 823 C 1360.187 823, 1361.278 823.631, 1361.918 824.401 C 1362.558 825.172, 1365.650 827.022, 1368.791 828.513 C 1371.931 830.003, 1375.175 831.624, 1376 832.114 C 1376.825 832.604, 1378.625 833.466, 1380 834.029 C 1381.375 834.592, 1383.850 835.668, 1385.500 836.420 C 1393.125 839.894, 1412.410 846.036, 1415.624 846.014 C 1416.793 846.007, 1419.674 846.679, 1422.027 847.510 C 1429.085 850, 1457.947 851.414, 1477.050 850.206 C 1493.322 849.176, 1501.687 847.737, 1513.500 843.932 C 1516.800 842.869, 1520.289 842, 1521.254 842 C 1522.218 842, 1524.686 841.100, 1526.739 840 C 1528.791 838.900, 1531.228 838, 1532.154 838 C 1533.080 838, 1535.112 837.316, 1536.669 836.480 C 1538.226 835.644, 1540.625 834.520, 1542 833.982 C 1543.375 833.445, 1545.175 832.624, 1546 832.158 C 1548.118 830.962, 1551.917 828.925, 1556 826.796 C 1569.253 819.886, 1588.953 804.868, 1601.203 792.335 C 1610.026 783.307, 1619.984 771.630, 1619.992 770.300 C 1619.996 769.640, 1620.563 768.740, 1621.252 768.300 C 1623.052 767.149, 1631 755.184, 1631 753.624 C 1631 752.901, 1631.900 751.495, 1633 750.500 C 1634.100 749.505, 1635 747.960, 1635 747.067 C 1635 746.175, 1635.900 744.674, 1637 743.732 C 1638.100 742.790, 1639 741.074, 1639 739.918 C 1639 738.761, 1639.900 736.671, 1641 735.273 C 1642.100 733.874, 1643 731.946, 1643 730.988 C 1643 730.029, 1643.675 728.685, 1644.500 728 C 1645.325 727.315, 1646 725.791, 1646 724.613 C 1646 723.434, 1646.900 720.791, 1648 718.739 C 1649.100 716.686, 1650 713.986, 1650 712.739 C 1650 711.491, 1650.900 708.791, 1652 706.739 C 1653.100 704.686, 1654.015 701.318, 1654.034 699.254 C 1654.053 697.189, 1654.937 693.700, 1656 691.500 C 1657.324 688.760, 1657.946 685.296, 1657.977 680.500 C 1658.002 676.650, 1658.735 671.250, 1659.606 668.500 C 1661.877 661.336, 1661.890 631.909, 1659.626 623.356 C 1658.732 619.976, 1657.985 614.351, 1657.966 610.856 C 1657.944 606.680, 1657.269 603.128, 1656 600.500 C 1654.937 598.300, 1654.053 594.795, 1654.034 592.710 C 1654.015 590.626, 1653.100 587.156, 1652 585 C 1650.900 582.844, 1650 580.160, 1650 579.036 C 1650 577.912, 1649.100 575.314, 1648 573.261 C 1646.900 571.209, 1646 568.566, 1646 567.387 C 1646 566.209, 1645.325 564.685, 1644.500 564 C 1643.675 563.315, 1643 561.971, 1643 561.012 C 1643 560.054, 1642.100 558.126, 1641 556.727 C 1639.900 555.329, 1639 553.304, 1639 552.227 C 1639 551.151, 1638.162 549.197, 1637.138 547.885 C 1636.113 546.573, 1634.958 544.487, 1634.570 543.250 C 1634.182 542.013, 1633.476 541, 1633 541 C 1632.524 541, 1631.843 540.081, 1631.487 538.958 C 1630.841 536.925, 1622.487 524.004, 1621.180 523.018 C 1620.803 522.733, 1619.146 520.494, 1617.497 518.042 C 1611.330 508.869, 1593.206 490.678, 1581.565 481.976 C 1577.792 479.155, 1574.064 476.207, 1573.281 475.424 C 1572.498 474.641, 1571.435 474, 1570.918 474 C 1570.402 474, 1567.739 472.425, 1565 470.500 C 1562.261 468.575, 1559.749 467, 1559.418 467 C 1559.087 467, 1557.671 466.100, 1556.273 465 C 1554.874 463.900, 1553.074 463, 1552.273 463 C 1551.471 463, 1549.671 462.100, 1548.273 461 C 1546.874 459.900, 1544.946 459, 1543.988 459 C 1543.029 459, 1541.721 458.369, 1541.081 457.598 C 1540.442 456.827, 1538.699 455.906, 1537.209 455.551 C 1534.321 454.864, 1525.457 451.641, 1520.500 449.477 C 1518.850 448.756, 1515.540 447.891, 1513.145 447.555 C 1510.750 447.218, 1507.510 446.281, 1505.945 445.471 C 1504.380 444.662, 1500.925 444, 1498.268 444 C 1495.610 444, 1490.975 443.291, 1487.968 442.425 C 1481.453 440.548, 1446.794 439.564, 1440.500 441.077 M 1425 972.535 C 1421.425 973.248, 1414.225 974.136, 1409 974.508 C 1403.775 974.881, 1397.250 975.795, 1394.500 976.539 C 1391.750 977.283, 1386.800 978.198, 1383.500 978.571 C 1380.200 978.945, 1376.666 979.685, 1375.648 980.215 C 1374.629 980.746, 1370.891 981.591, 1367.340 982.094 C 1363.790 982.597, 1359.583 983.681, 1357.992 984.504 C 1356.401 985.327, 1353.839 986.015, 1352.300 986.034 C 1350.760 986.053, 1347.700 986.937, 1345.500 988 C 1343.300 989.063, 1340.375 989.963, 1339 990 C 1337.625 990.037, 1334.700 990.937, 1332.500 992 C 1330.300 993.063, 1327.514 993.947, 1326.309 993.966 C 1325.104 993.985, 1323.847 994.438, 1323.516 994.974 C 1323.185 995.510, 1320.796 996.606, 1318.207 997.409 C 1315.618 998.213, 1311.250 999.818, 1308.500 1000.976 C 1305.750 1002.134, 1302.159 1003.625, 1300.519 1004.291 C 1294.409 1006.770, 1264.503 1022.194, 1260.281 1025.043 C 1257.871 1026.669, 1255.631 1028, 1255.303 1028 C 1254.717 1028, 1250.335 1030.774, 1236.519 1039.893 C 1218.209 1051.977, 1197.977 1068.871, 1178.990 1087.931 C 1162.763 1104.219, 1160.366 1106.804, 1152.666 1116.315 C 1150.077 1119.513, 1147.521 1122.663, 1146.987 1123.315 C 1138.755 1133.363, 1130 1145.485, 1130 1146.835 C 1130 1147.305, 1129.100 1148.505, 1128 1149.500 C 1126.900 1150.495, 1126 1151.815, 1126 1152.433 C 1126 1153.050, 1125.071 1154.351, 1123.935 1155.323 C 1122.800 1156.296, 1122.012 1157.743, 1122.185 1158.540 C 1122.358 1159.337, 1128.578 1166.179, 1136.006 1173.745 C 1143.435 1181.310, 1152.660 1191.051, 1156.506 1195.390 C 1160.353 1199.730, 1164.574 1204.455, 1165.887 1205.890 C 1171.053 1211.538, 1195 1242.066, 1195 1243.004 C 1195 1243.552, 1195.374 1244, 1195.832 1244 C 1196.289 1244, 1198.176 1246.362, 1200.024 1249.250 C 1201.872 1252.138, 1203.973 1254.860, 1204.692 1255.300 C 1205.412 1255.740, 1206 1256.682, 1206 1257.395 C 1206 1258.107, 1206.900 1259.505, 1208 1260.500 C 1209.100 1261.495, 1210 1262.845, 1210 1263.500 C 1210 1264.155, 1210.900 1265.505, 1212 1266.500 C 1213.100 1267.495, 1214 1268.929, 1214 1269.686 C 1214 1270.443, 1214.644 1271.310, 1215.430 1271.612 C 1216.217 1271.913, 1217.318 1273.474, 1217.878 1275.080 C 1218.438 1276.686, 1219.369 1278, 1219.948 1278 C 1220.527 1278, 1221 1278.675, 1221 1279.500 C 1221 1280.325, 1221.787 1281.794, 1222.750 1282.764 C 1223.713 1283.734, 1225.067 1285.646, 1225.761 1287.014 C 1226.454 1288.381, 1227.905 1290.850, 1228.986 1292.500 C 1231.561 1296.432, 1234.543 1301.709, 1236.474 1305.750 C 1237.328 1307.537, 1238.435 1309, 1238.934 1309 C 1239.433 1309, 1240.144 1310.380, 1240.515 1312.068 C 1240.885 1313.755, 1241.821 1315.378, 1242.594 1315.675 C 1243.367 1315.971, 1244 1316.929, 1244 1317.803 C 1244 1318.677, 1245.186 1321.104, 1246.636 1323.196 L 1249.272 1327 1548.191 1327 L 1847.110 1327 1851.596 1324.956 C 1854.233 1323.755, 1856.453 1321.940, 1856.980 1320.553 C 1857.473 1319.256, 1858.354 1317.899, 1858.938 1317.538 C 1860.477 1316.587, 1860.240 1310.366, 1858.541 1307.079 C 1857.739 1305.528, 1856.786 1301.163, 1856.425 1297.379 C 1856.064 1293.596, 1855.215 1289.600, 1854.540 1288.500 C 1853.865 1287.400, 1853.007 1283.862, 1852.634 1280.638 C 1852.261 1277.413, 1851.291 1273.826, 1850.478 1272.665 C 1849.665 1271.505, 1849 1269.175, 1849 1267.489 C 1849 1265.803, 1848.100 1262.658, 1847 1260.500 C 1845.900 1258.342, 1845 1255.546, 1845 1254.285 C 1845 1253.024, 1844.100 1250.314, 1843 1248.261 C 1841.900 1246.209, 1840.997 1243.398, 1840.993 1242.015 C 1840.990 1240.632, 1840.093 1238.150, 1839 1236.500 C 1837.907 1234.850, 1837.010 1232.543, 1837.007 1231.372 C 1837.003 1230.202, 1836.360 1228.714, 1835.578 1228.065 C 1834.796 1227.416, 1833.861 1225.137, 1833.500 1223 C 1833.139 1220.863, 1832.251 1218.623, 1831.526 1218.022 C 1830.802 1217.421, 1829.925 1215.415, 1829.578 1213.565 C 1829.231 1211.715, 1828.284 1209.651, 1827.474 1208.978 C 1826.663 1208.305, 1826 1206.971, 1826 1206.012 C 1826 1205.054, 1825.100 1203.126, 1824 1201.727 C 1822.900 1200.329, 1822 1198.298, 1822 1197.215 C 1822 1196.131, 1821.348 1194.704, 1820.551 1194.042 C 1819.754 1193.381, 1818.594 1191.301, 1817.974 1189.420 C 1817.353 1187.539, 1816.466 1186, 1816.002 1186 C 1815.538 1186, 1814.869 1184.681, 1814.515 1183.069 C 1814.161 1181.457, 1813.225 1179.602, 1812.436 1178.947 C 1811.646 1178.291, 1810.999 1177.248, 1810.999 1176.628 C 1810.998 1176.007, 1809.198 1172.908, 1806.999 1169.739 C 1804.799 1166.571, 1803 1163.603, 1803 1163.142 C 1803 1162.682, 1802.100 1161.268, 1801 1160 C 1799.900 1158.732, 1799 1157.158, 1799 1156.502 C 1799 1155.846, 1798.100 1154.495, 1797 1153.500 C 1795.900 1152.505, 1795 1151.071, 1795 1150.314 C 1795 1149.557, 1794.325 1148.678, 1793.500 1148.362 C 1792.675 1148.045, 1792 1147.225, 1792 1146.539 C 1792 1145.426, 1790.828 1143.835, 1785.525 1137.750 C 1784.686 1136.787, 1784 1135.727, 1784 1135.394 C 1784 1135.061, 1782.868 1133.374, 1781.485 1131.644 C 1780.102 1129.915, 1778.636 1128.050, 1778.227 1127.500 C 1767.417 1112.944, 1736.813 1080.425, 1723.495 1069.343 C 1720.748 1067.057, 1714.900 1062.180, 1710.500 1058.506 C 1706.100 1054.832, 1701.825 1051.564, 1701 1051.245 C 1700.175 1050.925, 1697.475 1049.027, 1695 1047.026 C 1692.525 1045.025, 1686.675 1040.900, 1682 1037.858 C 1667.739 1028.578, 1664.618 1026.638, 1660.500 1024.486 C 1658.850 1023.624, 1655.700 1021.875, 1653.500 1020.600 C 1648.681 1017.807, 1633.424 1010.149, 1626.500 1007.048 C 1623.750 1005.816, 1619.475 1003.887, 1617 1002.760 C 1607.570 998.465, 1595.828 994, 1593.966 994 C 1593.143 994, 1590.791 993.100, 1588.739 992 C 1586.686 990.900, 1583.993 989.990, 1582.754 989.978 C 1581.514 989.966, 1578.538 989.066, 1576.141 987.978 C 1573.743 986.890, 1570.818 986, 1569.641 985.999 C 1568.463 985.999, 1565.133 985.099, 1562.239 983.999 C 1559.346 982.900, 1555.688 982, 1554.111 982 C 1552.534 982, 1549.727 981.379, 1547.872 980.621 C 1546.017 979.862, 1541.800 978.934, 1538.500 978.559 C 1535.200 978.183, 1530.025 977.265, 1527 976.517 C 1523.975 975.770, 1516.550 974.654, 1510.500 974.037 C 1504.450 973.420, 1497.025 972.517, 1494 972.030 C 1485.291 970.630, 1432.622 971.015, 1425 972.535 M 617.500 1098.544 C 614.200 1099.281, 607 1100.173, 601.500 1100.527 C 596 1100.881, 589.475 1101.782, 587 1102.528 C 584.525 1103.275, 579.368 1104.199, 575.539 1104.582 C 571.711 1104.965, 567.211 1105.834, 565.539 1106.512 C 563.868 1107.191, 559.597 1108.061, 556.049 1108.446 C 552.501 1108.830, 548.764 1109.591, 547.745 1110.137 C 546.725 1110.682, 543.118 1111.575, 539.730 1112.121 C 536.341 1112.667, 533.081 1113.518, 532.485 1114.013 C 531.889 1114.507, 529.398 1115.231, 526.950 1115.621 C 524.503 1116.010, 520.700 1117.145, 518.500 1118.143 C 516.300 1119.140, 513.375 1119.969, 512 1119.984 C 510.625 1120, 508.293 1120.642, 506.817 1121.412 C 505.342 1122.182, 502.644 1123.139, 500.821 1123.539 C 498.999 1123.939, 496.156 1124.830, 494.504 1125.519 C 492.852 1126.207, 488.800 1127.756, 485.500 1128.960 C 482.200 1130.165, 477.250 1132.069, 474.500 1133.192 C 471.750 1134.315, 467.250 1136.155, 464.500 1137.281 C 443.434 1145.903, 399.451 1168.588, 391.115 1175.129 C 389.803 1176.158, 388.375 1177, 387.940 1177 C 387.206 1177, 363.107 1192.793, 362 1194 C 361.725 1194.300, 358.575 1196.652, 355 1199.228 C 351.425 1201.803, 347.825 1204.519, 347 1205.263 C 346.175 1206.006, 343.025 1208.387, 340 1210.553 C 336.975 1212.720, 330.173 1218.319, 324.885 1222.996 C 319.598 1227.673, 312.305 1234.114, 308.680 1237.310 C 295.797 1248.667, 275.626 1269.386, 266.726 1280.404 C 264.101 1283.655, 261.347 1286.806, 260.607 1287.407 C 258.332 1289.255, 240 1312.893, 240 1313.979 C 240 1314.540, 239.594 1315, 239.099 1315 C 238.603 1315, 237.269 1316.463, 236.134 1318.250 C 234.999 1320.037, 232.060 1324.200, 229.602 1327.500 C 227.145 1330.800, 225.104 1333.993, 225.067 1334.595 C 225.030 1335.197, 224.100 1336.505, 223 1337.500 C 221.900 1338.495, 221 1339.767, 221 1340.326 C 221 1340.885, 220.252 1342.169, 219.339 1343.178 C 217.393 1345.328, 215.510 1348.408, 213.791 1352.250 C 213.115 1353.763, 212.216 1355, 211.794 1355 C 211.372 1355, 210.343 1356.463, 209.506 1358.250 C 208.670 1360.037, 206.895 1363.300, 205.562 1365.500 C 204.228 1367.700, 202.441 1370.850, 201.589 1372.500 C 200.737 1374.150, 199.581 1376.287, 199.020 1377.250 C 198.459 1378.213, 197.541 1379.787, 196.980 1380.750 C 196.419 1381.713, 195.287 1383.850, 194.465 1385.500 C 193.643 1387.150, 192.527 1389.175, 191.984 1390 C 191.442 1390.825, 190.550 1392.625, 190.002 1394 C 189.453 1395.375, 188.602 1397.175, 188.109 1398 C 187.617 1398.825, 186.719 1400.625, 186.114 1402 C 185.509 1403.375, 184.638 1405.175, 184.178 1406 C 180.951 1411.785, 179 1416.134, 179 1417.540 C 179 1418.445, 178.100 1420.329, 177 1421.727 C 175.900 1423.126, 175 1425.279, 175 1426.512 C 175 1427.746, 174.337 1429.305, 173.526 1429.978 C 172.716 1430.651, 171.759 1432.843, 171.400 1434.850 C 171.041 1436.858, 170.179 1439.175, 169.485 1440 C 168.791 1440.825, 167.897 1443.075, 167.500 1445 C 167.103 1446.925, 166.213 1449.175, 165.524 1450 C 164.835 1450.825, 164.004 1453.243, 163.678 1455.374 C 163.352 1457.505, 162.391 1460.015, 161.543 1460.953 C 160.694 1461.890, 159.997 1463.972, 159.993 1465.579 C 159.990 1467.185, 159.093 1469.850, 158 1471.500 C 156.907 1473.150, 156.010 1475.688, 156.007 1477.141 C 156.003 1478.593, 155.110 1481.743, 154.022 1484.141 C 152.934 1486.538, 152.034 1489.753, 152.022 1491.285 C 152.010 1492.817, 151.311 1495.123, 150.468 1496.409 C 149.625 1497.695, 148.654 1501.166, 148.311 1504.124 C 147.967 1507.081, 147.134 1510.400, 146.461 1511.500 C 145.787 1512.600, 144.949 1516.126, 144.599 1519.336 C 144.249 1522.546, 143.296 1526.461, 142.481 1528.036 C 141.667 1529.612, 141 1533.184, 141 1535.975 C 141 1538.766, 140.100 1543.611, 139 1546.740 C 136.495 1553.868, 136.500 1558.302, 139.022 1563.859 C 140.110 1566.257, 141 1568.824, 141 1569.565 C 141 1572.074, 149.419 1583, 151.352 1583 C 151.897 1583, 153.053 1583.636, 153.921 1584.413 C 154.790 1585.190, 158.184 1586.765, 161.465 1587.913 L 167.431 1590 670 1590 C 1168.811 1590, 1172.612 1589.985, 1178.219 1588.014 C 1189.526 1584.040, 1198.154 1575.756, 1200.107 1567 C 1200.536 1565.075, 1201.437 1561.657, 1202.109 1559.404 C 1203.137 1555.959, 1203.066 1554.498, 1201.665 1550.216 C 1200.749 1547.416, 1200 1543.285, 1200 1541.037 C 1200 1538.789, 1199.100 1534.389, 1198 1531.260 C 1196.900 1528.130, 1196 1523.747, 1196 1521.520 C 1196 1519.293, 1195.100 1515.791, 1194 1513.739 C 1192.900 1511.686, 1192 1508.204, 1192 1506 C 1192 1503.796, 1191.100 1500.314, 1190 1498.261 C 1188.900 1496.209, 1188 1493.335, 1188 1491.874 C 1188 1490.413, 1187.110 1487.257, 1186.022 1484.859 C 1184.934 1482.462, 1184.034 1479.093, 1184.022 1477.372 C 1184.010 1475.652, 1183.325 1473.685, 1182.500 1473 C 1181.675 1472.315, 1181 1470.555, 1181 1469.089 C 1181 1467.623, 1180.100 1464.658, 1179 1462.500 C 1177.900 1460.342, 1176.998 1457.660, 1176.996 1456.539 C 1176.994 1455.417, 1176.094 1453.027, 1174.996 1451.226 C 1173.898 1449.425, 1172.997 1447.175, 1172.993 1446.226 C 1172.990 1445.277, 1172.093 1443.150, 1171 1441.500 C 1169.907 1439.850, 1169.010 1437.446, 1169.007 1436.158 C 1169.003 1434.869, 1168.100 1432.671, 1167 1431.273 C 1165.900 1429.874, 1165 1427.721, 1165 1426.488 C 1165 1425.254, 1164.337 1423.695, 1163.526 1423.022 C 1162.716 1422.349, 1161.769 1420.285, 1161.422 1418.435 C 1161.075 1416.585, 1160.163 1414.550, 1159.395 1413.913 C 1158.628 1413.276, 1157.993 1412.023, 1157.985 1411.128 C 1157.977 1410.232, 1157.415 1408.504, 1156.735 1407.286 C 1156.056 1406.069, 1154.212 1402.469, 1152.639 1399.286 C 1151.065 1396.104, 1149.387 1392.825, 1148.911 1392 C 1148.434 1391.175, 1146.430 1387.350, 1144.458 1383.500 C 1142.485 1379.650, 1139.806 1374.700, 1138.504 1372.500 C 1137.203 1370.300, 1135.419 1367.150, 1134.542 1365.500 C 1131.838 1360.416, 1130.385 1358.085, 1128.779 1356.257 C 1127.931 1355.291, 1126.928 1353.487, 1126.551 1352.250 C 1126.174 1351.013, 1125.476 1350, 1125 1350 C 1124.524 1350, 1123.843 1349.081, 1123.487 1347.958 C 1122.781 1345.736, 1114.364 1332.858, 1113.068 1332.018 C 1112.629 1331.733, 1111.954 1330.487, 1111.567 1329.250 C 1111.181 1328.013, 1110.431 1327, 1109.900 1327 C 1109.370 1327, 1108.613 1326.205, 1108.218 1325.232 C 1107.047 1322.349, 1083.554 1291.402, 1079.099 1286.875 C 1078.220 1285.981, 1075.025 1282.391, 1072 1278.897 C 1057.283 1261.898, 1042.040 1246.596, 1025 1231.713 C 1018.675 1226.189, 1013.050 1221.169, 1012.500 1220.557 C 1011.950 1219.945, 1008.581 1217.207, 1005.014 1214.472 C 1001.447 1211.738, 997.172 1208.265, 995.514 1206.755 C 993.856 1205.245, 992.231 1204.007, 991.903 1204.005 C 991.575 1204.002, 990.350 1203.213, 989.182 1202.250 C 986.391 1199.951, 977.414 1193.502, 973 1190.625 C 971.075 1189.370, 965.770 1185.791, 961.211 1182.672 C 956.653 1179.552, 952.649 1177, 952.315 1177 C 951.981 1177, 949.410 1175.478, 946.604 1173.618 C 943.797 1171.758, 939.025 1168.894, 936 1167.253 C 932.975 1165.612, 928.250 1162.959, 925.500 1161.358 C 920.017 1158.165, 899.813 1148.152, 888 1142.773 C 883.875 1140.895, 878.350 1138.378, 875.723 1137.179 C 873.096 1135.981, 870.396 1135.001, 869.723 1135.003 C 869.050 1135.004, 866.700 1134.126, 864.500 1133.052 C 862.300 1131.977, 857.800 1130.119, 854.500 1128.922 C 851.200 1127.726, 846.925 1126.168, 845 1125.459 C 838.109 1122.924, 831.431 1120.856, 827.264 1119.968 C 824.934 1119.472, 821.694 1118.376, 820.063 1117.533 C 818.433 1116.690, 816.064 1116, 814.800 1115.999 C 813.535 1115.999, 810.133 1115.099, 807.239 1113.999 C 804.346 1112.900, 800.611 1112, 798.940 1112 C 797.268 1112, 794.599 1111.327, 793.009 1110.505 C 791.419 1109.682, 786.905 1108.554, 782.979 1107.997 C 779.052 1107.440, 775.088 1106.596, 774.170 1106.122 C 773.251 1105.647, 769.125 1104.955, 765 1104.584 C 760.875 1104.212, 755.475 1103.293, 753 1102.542 C 750.525 1101.791, 744.092 1100.901, 738.704 1100.565 C 733.316 1100.228, 725.749 1099.289, 721.889 1098.477 C 712.229 1096.445, 626.658 1096.500, 617.500 1098.544" stroke="none" fill="#040404" fill-rule="evenodd"/></svg>