<?xml version="1.0" standalone="no"?>
<!DOCTYPE svg PUBLIC "-//W3C//DTD SVG 20010904//EN"
 "http://www.w3.org/TR/2001/REC-SVG-20010904/DTD/svg10.dtd">
<svg version="1.0" xmlns="http://www.w3.org/2000/svg"
 width="2000.000000pt" height="2000.000000pt" viewBox="0 0 2000.000000 2000.000000"
 preserveAspectRatio="xMidYMid meet">

<g transform="translate(0.000000,2000.000000) scale(0.100000,-0.100000)"
fill="#000000" stroke="none">
<path d="M2378 19809 c-2 -5 -37 -15 -78 -20 -75 -10 -118 -19 -220 -43 -102
-25 -175 -46 -210 -60 -19 -7 -62 -23 -95 -36 -108 -40 -305 -136 -373 -181
-24 -16 -45 -29 -48 -29 -22 0 -270 -188 -373 -284 -275 -254 -513 -599 -635
-921 -65 -170 -61 -157 -122 -395 -40 -158 -39 87 -39 -7840 0 -7927 -1 -7682
39 -7840 61 -238 58 -226 122 -395 124 -325 358 -666 635 -921 103 -96 351
-284 373 -284 3 0 24 -13 48 -29 68 -45 265 -141 373 -181 33 -13 76 -29 95
-36 35 -14 108 -35 210 -60 102 -24 145 -33 220 -43 41 -5 76 -15 78 -20 5
-16 15209 -15 15214 0 2 6 39 15 83 21 126 16 348 73 480 123 39 14 81 30 95
34 99 32 390 197 524 296 247 183 514 468 638 681 18 30 41 68 50 82 35 54
148 289 183 382 37 98 56 160 81 266 7 34 18 73 23 87 6 14 13 54 16 89 4 34
14 99 23 143 16 74 17 601 17 7605 0 7004 -1 7531 -17 7605 -9 44 -19 109 -23
143 -3 35 -10 75 -16 89 -5 14 -16 53 -23 87 -25 106 -44 168 -81 266 -35 93
-148 328 -183 382 -9 14 -32 52 -50 82 -124 213 -391 498 -638 681 -134 99
-425 264 -524 296 -14 4 -56 20 -95 34 -132 50 -354 107 -480 123 -44 6 -81
15 -83 21 -5 15 -15209 16 -15214 0z m14962 -1149 c47 -6 124 -15 172 -20 47
-6 110 -18 140 -29 29 -10 85 -29 123 -42 39 -12 79 -28 90 -35 18 -10 101
-56 165 -90 13 -8 68 -50 121 -94 277 -229 441 -533 484 -895 15 -128 16 -492
13 -4238 -2 -2703 -6 -4098 -13 -4099 -10 -2 -88 90 -385 457 -98 121 -258
319 -357 439 -98 121 -248 306 -333 411 -85 106 -234 288 -330 406 -96 118
-247 304 -336 414 -89 110 -237 292 -329 405 -92 113 -221 273 -288 355 -383
475 -549 655 -690 749 -38 25 -70 46 -73 46 -2 0 -30 18 -61 40 -32 22 -62 40
-66 40 -5 0 -23 6 -40 14 -253 108 -417 140 -697 134 -135 -3 -200 -8 -240
-20 -30 -10 -100 -29 -155 -44 -162 -44 -358 -150 -517 -281 -95 -78 -833
-811 -2762 -2745 -1448 -1451 -2639 -2638 -2647 -2638 -11 0 -365 289 -699
570 -25 21 -117 98 -206 172 -88 73 -185 153 -215 178 -30 25 -108 90 -174
145 -66 54 -158 131 -204 170 -46 38 -114 95 -151 125 -37 30 -128 105 -201
166 -123 101 -189 150 -303 227 -22 15 -79 46 -126 68 -47 22 -96 46 -110 53
-26 14 -75 29 -238 73 -92 25 -109 26 -337 26 -217 -1 -246 -3 -304 -22 -35
-11 -70 -21 -77 -21 -64 0 -344 -124 -441 -194 -23 -17 -71 -51 -105 -76 -35
-24 -139 -110 -233 -189 -248 -211 -363 -310 -430 -366 -33 -27 -80 -68 -106
-90 -25 -22 -115 -98 -199 -170 -85 -71 -201 -170 -259 -220 -58 -49 -117
-100 -131 -111 -59 -50 -322 -274 -400 -340 -47 -40 -139 -119 -206 -176 -67
-57 -190 -161 -274 -233 -85 -71 -203 -173 -264 -225 -61 -52 -138 -117 -170
-145 -33 -27 -140 -119 -239 -203 -99 -84 -185 -151 -191 -149 -8 3 -12 1529
-14 5483 -3 5032 -2 5490 13 5619 16 129 44 250 82 350 73 192 219 399 377
533 97 82 145 116 240 166 38 20 74 40 80 44 6 5 43 19 81 32 39 12 94 31 123
41 30 11 95 24 145 30 51 6 121 14 157 18 99 12 14617 13 14720 1z m-2488
-6809 c71 -27 129 -82 263 -250 55 -68 123 -151 151 -185 46 -55 477 -586 824
-1015 74 -92 191 -236 260 -321 69 -84 150 -184 180 -221 185 -228 389 -481
535 -659 92 -113 247 -304 345 -425 98 -121 253 -312 345 -425 92 -113 238
-293 325 -400 86 -107 250 -309 364 -449 l206 -253 0 -2292 c0 -2202 -1 -2297
-19 -2436 -11 -80 -27 -167 -37 -195 -9 -27 -26 -77 -37 -110 -20 -59 -88
-194 -133 -267 -72 -115 -300 -341 -394 -392 -64 -34 -147 -80 -165 -90 -11
-7 -51 -23 -90 -35 -38 -13 -94 -32 -123 -42 -30 -11 -93 -23 -140 -29 -48 -5
-125 -14 -172 -20 -56 -6 -2601 -10 -7355 -10 -4754 0 -7299 4 -7355 10 -47 6
-124 15 -172 20 -47 6 -110 18 -140 29 -29 10 -84 29 -123 41 -38 13 -75 27
-81 32 -6 4 -42 24 -80 44 -272 143 -508 411 -617 699 -39 105 -60 192 -78
325 -18 135 -19 220 -19 1204 l0 1058 33 32 c27 26 110 97 305 261 20 17 73
62 117 100 45 39 209 178 365 310 156 132 335 285 400 340 64 55 186 159 270
230 84 72 205 175 270 230 64 55 186 159 270 230 84 72 206 175 270 230 64 55
168 143 230 195 62 52 165 140 230 195 64 55 185 159 270 230 84 72 205 175
270 230 64 55 141 121 171 146 30 25 117 99 193 164 77 65 169 137 205 159 64
39 69 40 169 44 165 7 128 32 852 -573 41 -34 131 -109 200 -166 69 -56 163
-135 209 -173 46 -39 111 -93 146 -121 34 -27 104 -85 156 -129 213 -178 250
-208 374 -311 72 -59 177 -147 235 -195 58 -48 161 -134 230 -191 69 -56 150
-123 180 -149 84 -69 120 -94 180 -123 170 -82 352 -74 540 22 32 16 854 831
2925 2901 1584 1584 2894 2890 2910 2903 29 22 91 51 130 61 45 11 172 -2 227
-23z"/>
<path d="M6080 17390 c-350 -41 -632 -119 -908 -251 -57 -27 -106 -49 -108
-49 -3 0 -62 -34 -132 -77 -390 -235 -719 -559 -958 -943 -68 -111 -185 -337
-204 -397 -5 -15 -21 -59 -35 -98 -49 -131 -108 -337 -121 -420 -3 -22 -12
-71 -19 -110 -8 -38 -19 -151 -25 -250 -12 -197 0 -480 25 -610 7 -38 16 -88
19 -110 11 -73 77 -316 101 -370 23 -53 55 -140 55 -149 0 -27 155 -322 243
-461 139 -221 434 -537 649 -697 115 -86 252 -178 265 -178 3 0 14 -6 22 -14
16 -14 160 -88 271 -139 90 -42 239 -96 335 -123 50 -14 114 -32 143 -40 28
-8 91 -21 140 -29 48 -8 116 -19 152 -26 40 -7 172 -12 350 -12 251 -1 303 2
430 22 80 13 174 32 209 42 35 11 71 19 80 19 19 0 138 38 236 75 39 14 83 30
98 35 15 5 75 32 132 59 57 28 114 55 127 61 12 5 39 20 59 32 20 13 63 38 95
57 185 109 408 293 588 487 95 103 252 302 291 371 8 15 23 40 33 55 75 116
205 373 230 459 6 19 23 66 37 104 126 335 182 856 131 1230 -18 131 -62 360
-72 377 -4 5 -12 35 -19 66 -7 32 -25 89 -39 127 -15 39 -31 84 -36 100 -5 17
-14 39 -19 50 -5 11 -22 47 -37 80 -57 128 -99 207 -169 323 -103 171 -332
457 -442 552 -21 18 -58 51 -83 74 -52 48 -156 134 -190 156 -12 8 -43 31 -68
50 -74 56 -246 156 -377 219 -122 59 -152 72 -260 111 -33 12 -75 29 -94 37
-19 8 -53 18 -75 23 -23 4 -86 20 -141 34 -90 25 -184 40 -390 66 -83 11 -433
10 -525 0z m355 -1151 c39 -5 113 -14 166 -19 54 -5 114 -16 135 -24 22 -8 80
-26 129 -41 155 -47 340 -147 490 -266 121 -96 168 -143 269 -267 94 -116 236
-366 250 -442 4 -19 13 -51 21 -70 49 -127 80 -319 80 -495 0 -101 -24 -323
-40 -370 -7 -22 -25 -80 -40 -130 -25 -86 -73 -193 -150 -334 -108 -198 -385
-472 -575 -570 -25 -13 -76 -40 -115 -61 -38 -20 -101 -47 -140 -60 -38 -12
-88 -29 -110 -36 -141 -48 -327 -69 -535 -61 -169 7 -247 19 -350 53 -41 13
-106 34 -145 47 -38 12 -100 39 -137 60 -37 20 -70 37 -72 37 -3 0 -33 17 -68
37 -79 46 -243 178 -314 252 -79 83 -196 233 -225 288 -118 225 -128 248 -167
378 -44 144 -52 183 -62 325 -16 224 8 478 58 600 6 14 22 63 37 110 15 47 40
108 56 135 16 28 32 57 36 65 26 60 100 172 175 265 110 136 292 294 423 365
174 95 225 120 261 129 76 19 172 49 192 60 11 6 68 15 128 21 60 6 134 15
164 19 77 12 96 12 175 0z"/>
</g>
</svg>
