<?xml version="1.0" standalone="no"?>
<!DOCTYPE svg PUBLIC "-//W3C//DTD SVG 20010904//EN"
 "http://www.w3.org/TR/2001/REC-SVG-20010904/DTD/svg10.dtd">
<svg version="1.0" xmlns="http://www.w3.org/2000/svg"
 width="2000.000000pt" height="2000.000000pt" viewBox="0 0 2000.000000 2000.000000"
 preserveAspectRatio="xMidYMid meet">

<g transform="translate(0.000000,2000.000000) scale(0.100000,-0.100000)"
fill="#000000" stroke="none">
<path d="M9590 19601 c0 -5 -53 -14 -117 -21 -65 -6 -149 -18 -188 -25 -38 -8
-103 -19 -144 -25 -41 -6 -77 -13 -81 -15 -5 -3 -41 -12 -82 -20 -40 -8 -104
-24 -143 -36 -38 -11 -95 -27 -125 -34 -66 -17 -143 -42 -187 -61 -17 -8 -36
-14 -43 -14 -6 0 -35 -9 -63 -21 -29 -11 -74 -30 -102 -41 -27 -11 -63 -26
-80 -33 -16 -8 -57 -26 -90 -40 -124 -55 -239 -114 -410 -210 -75 -42 -214
-131 -331 -213 -535 -374 -1025 -912 -1332 -1462 -80 -144 -101 -182 -134
-250 -20 -41 -48 -102 -63 -135 -14 -33 -32 -73 -40 -90 -71 -154 -213 -596
-240 -745 -3 -19 -12 -62 -20 -95 -21 -91 -52 -293 -72 -465 -25 -216 -25
-663 0 -885 19 -168 47 -355 72 -465 7 -36 17 -81 20 -100 13 -70 71 -275 107
-380 16 -47 35 -103 40 -125 6 -22 17 -49 25 -60 7 -11 13 -26 13 -33 0 -8 6
-28 14 -45 8 -18 35 -81 61 -142 108 -252 275 -552 439 -785 331 -471 734
-863 1226 -1190 83 -55 362 -220 373 -220 3 0 31 -15 64 -33 32 -18 87 -45
123 -61 36 -16 92 -41 125 -56 33 -15 87 -37 120 -50 33 -12 74 -29 90 -36 17
-7 46 -17 65 -23 19 -5 69 -22 110 -36 41 -15 98 -33 125 -40 28 -7 86 -23
130 -35 115 -31 272 -66 330 -74 28 -4 82 -13 120 -21 263 -52 824 -68 1140
-32 170 19 358 48 465 72 146 33 286 67 310 75 14 4 66 20 115 35 50 14 106
32 125 39 19 8 60 23 90 34 93 34 193 74 209 82 9 5 63 30 121 56 58 27 132
62 165 79 136 72 223 120 270 150 28 18 70 44 95 59 55 33 168 111 275 191
365 273 738 656 990 1015 161 229 327 520 429 751 11 24 26 58 33 74 8 17 25
59 39 95 14 36 32 81 39 100 20 49 44 117 60 170 7 25 18 59 24 75 22 64 57
196 101 380 22 92 50 268 72 450 33 261 33 739 0 1000 -31 251 -52 373 -103
580 -39 156 -107 378 -150 485 -9 25 -34 88 -55 140 -79 202 -250 532 -383
735 -338 520 -805 991 -1316 1326 -210 139 -454 271 -670 363 -60 26 -119 51
-130 57 -11 5 -33 14 -50 19 -16 5 -61 21 -100 35 -129 47 -226 77 -420 130
-27 8 -76 18 -108 24 -32 6 -62 13 -66 15 -4 3 -39 10 -77 16 -38 5 -107 17
-154 25 -47 8 -131 20 -187 26 -57 6 -103 15 -103 20 0 5 -174 9 -400 9 -224
0 -400 -4 -400 -9z"/>
<path d="M9575 9390 c-532 -36 -905 -85 -1305 -173 -74 -16 -162 -35 -195 -42
-62 -13 -222 -55 -310 -82 -27 -8 -75 -20 -105 -28 -30 -7 -89 -25 -130 -40
-77 -27 -129 -43 -215 -68 -27 -9 -86 -29 -130 -47 -159 -62 -181 -70 -189
-70 -8 0 -158 -63 -242 -101 -22 -11 -44 -19 -49 -19 -5 0 -52 -21 -104 -46
-53 -26 -131 -62 -173 -81 -43 -18 -115 -53 -160 -77 -199 -104 -264 -138
-273 -146 -5 -4 -39 -23 -75 -42 -60 -33 -103 -56 -161 -90 -13 -7 -44 -27
-69 -44 -25 -16 -52 -33 -60 -37 -114 -54 -524 -345 -816 -578 -415 -331 -886
-796 -1219 -1204 -154 -188 -242 -306 -462 -620 -22 -33 -109 -167 -165 -255
-138 -219 -332 -576 -438 -805 -18 -38 -52 -112 -76 -162 -24 -51 -44 -96 -44
-100 0 -4 -8 -25 -19 -47 -10 -23 -30 -70 -45 -106 -15 -36 -34 -79 -42 -97
-8 -17 -14 -35 -14 -39 0 -5 -9 -31 -19 -59 -63 -162 -93 -244 -131 -365 -23
-74 -47 -146 -51 -160 -5 -14 -20 -65 -34 -115 -13 -49 -34 -121 -44 -160 -68
-243 -81 -345 -81 -635 0 -299 14 -411 82 -645 11 -38 26 -86 33 -105 8 -19
19 -52 25 -72 6 -21 16 -40 21 -43 5 -4 9 -13 9 -20 0 -15 75 -172 113 -237
65 -110 87 -142 162 -243 138 -184 354 -387 551 -518 39 -26 73 -47 77 -47 3
0 25 -13 49 -29 77 -51 393 -191 432 -191 8 0 30 -6 48 -14 40 -17 188 -52
283 -65 38 -6 71 -15 73 -21 5 -14 12199 -14 12204 0 2 6 35 15 73 21 137 20
310 66 445 119 30 12 72 28 92 36 64 23 248 124 332 181 140 94 162 111 259
197 302 270 521 604 646 986 50 153 67 228 92 395 45 299 19 664 -67 945 -7
25 -22 79 -34 120 -42 156 -153 495 -210 640 -12 30 -28 73 -35 95 -14 42 -37
99 -60 150 -7 17 -32 75 -56 130 -111 263 -328 694 -439 875 -5 8 -30 51 -56
95 -50 85 -72 120 -177 280 -459 703 -1023 1330 -1686 1874 -221 182 -561 425
-831 596 -19 12 -60 38 -90 57 -30 19 -120 72 -200 117 -80 45 -152 86 -160
91 -26 16 -473 236 -535 264 -33 15 -68 31 -77 36 -10 6 -39 18 -65 29 -27 10
-111 44 -188 76 -77 31 -158 63 -180 70 -22 7 -71 25 -110 39 -38 15 -106 38
-150 52 -44 14 -94 32 -112 40 -17 8 -36 14 -42 14 -6 0 -37 8 -68 19 -127 40
-247 73 -543 147 -36 9 -96 22 -135 30 -38 7 -117 22 -175 33 -389 76 -641
106 -1175 141 -160 11 -637 10 -800 0z"/>
</g>
</svg>
